<svg xmlns="http://www.w3.org/2000/svg" xmlns:xlink="http://www.w3.org/1999/xlink" viewBox="0 0 471.99 140.59"><defs><style>.a,.b,.c,.i{fill:none;}.b,.c,.i{stroke:#9d9e9e;stroke-miterlimit:22.93;}.b{stroke-width:0.32px;}.c{stroke-width:0.31px;}.d,.f{fill:#254896;}.d,.e{fill-rule:evenodd;}.e{fill:#9d9e9e;}.g{clip-path:url(#a);}.h{fill:url(#b);}.i{stroke-width:1.16px;}</style><clipPath id="a"><path class="a" d="M389.41,63.61h56.52v-.35h.23c8.51,0,11.49-3.88,11.49-7.88,0-5.33-4.82-5.91-15.49-9-11-3.17-21.63-7.79-21.63-21.42S431.81,5.11,444.11,5.11h.69v0h23.32V18.34H445.18v.24c-.35,0-.7,0-1.07,0-5.94,0-9.43,1.89-9.43,6,0,4.4,2.77,6.76,13.64,10,11.38,3.59,23.47,5.92,23.47,20.58,0,13.23-10.44,21.38-25.36,21.62v.07h-57ZM333.28,5.08V48.85L302.52,5.08H291.76V76.84h14.15V33l30.75,43.88h10.77V18.34h29v0h12.13c6,0,10.46,4.62,10.46,10.87S394.59,40,388.54,40H361.78v36.8h14.15V53.26h12.61c13.84,0,24.51-10.66,24.51-24.09S402.38,5.08,388.54,5.08H333.28Z"/></clipPath><linearGradient id="b" x1="291.76" y1="40.97" x2="471.79" y2="40.97" gradientUnits="userSpaceOnUse"><stop offset="0" stop-color="#0060a8"/><stop offset="1" stop-color="#66c3d0"/></linearGradient></defs><line class="b" y1="5.62" x2="276.89" y2="5.62"/><line class="b" y1="12.06" x2="276.89" y2="12.06"/><line class="b" y1="18.49" x2="276.89" y2="18.49"/><line class="b" y1="24.92" x2="276.89" y2="24.92"/><line class="b" y1="31.36" x2="276.89" y2="31.36"/><line class="b" y1="37.8" x2="276.89" y2="37.8"/><line class="b" y1="44.24" x2="276.89" y2="44.24"/><line class="b" y1="50.67" x2="276.89" y2="50.67"/><line class="b" y1="57.1" x2="276.89" y2="57.1"/><line class="b" y1="63.54" x2="276.89" y2="63.54"/><line class="b" y1="69.97" x2="276.89" y2="69.97"/><line class="b" y1="76.41" x2="276.89" y2="76.41"/><line class="c" x1="7.11" x2="7.11" y2="83.23"/><line class="c" x1="13.11" x2="13.11" y2="83.23"/><line class="c" x1="19.1" x2="19.1" y2="83.23"/><line class="c" x1="25.1" x2="25.1" y2="83.23"/><line class="c" x1="31.1" x2="31.1" y2="83.23"/><line class="c" x1="37.1" x2="37.1" y2="83.23"/><line class="c" x1="43.09" x2="43.09" y2="83.23"/><line class="c" x1="49.09" x2="49.09" y2="83.23"/><line class="c" x1="55.09" x2="55.09" y2="83.23"/><line class="c" x1="61.08" x2="61.08" y2="83.23"/><line class="c" x1="67.09" x2="67.09" y2="83.23"/><line class="c" x1="73.08" x2="73.08" y2="83.23"/><line class="c" x1="79.08" x2="79.08" y2="83.23"/><line class="c" x1="85.08" x2="85.08" y2="83.23"/><line class="c" x1="91.07" x2="91.07" y2="83.23"/><line class="c" x1="97.07" x2="97.07" y2="83.23"/><line class="c" x1="103.07" x2="103.07" y2="83.23"/><line class="c" x1="109.07" x2="109.07" y2="83.23"/><line class="c" x1="115.06" x2="115.06" y2="83.23"/><line class="c" x1="121.06" x2="121.06" y2="83.23"/><line class="c" x1="127.06" x2="127.06" y2="83.23"/><line class="c" x1="133.05" x2="133.05" y2="83.23"/><line class="c" x1="139.05" x2="139.05" y2="83.23"/><line class="c" x1="145.05" x2="145.05" y2="83.23"/><line class="c" x1="151.04" x2="151.04" y2="83.23"/><line class="c" x1="157.04" x2="157.04" y2="83.23"/><line class="c" x1="163.04" x2="163.04" y2="83.23"/><line class="c" x1="169.04" x2="169.04" y2="83.23"/><line class="c" x1="175.04" x2="175.04" y2="83.23"/><line class="c" x1="181.04" x2="181.04" y2="83.23"/><line class="c" x1="187.03" x2="187.03" y2="83.23"/><line class="c" x1="193.03" x2="193.03" y2="83.23"/><line class="c" x1="199.03" x2="199.03" y2="83.23"/><line class="c" x1="205.02" x2="205.02" y2="83.23"/><line class="c" x1="211.02" x2="211.02" y2="83.23"/><line class="c" x1="217.02" x2="217.02" y2="83.23"/><line class="c" x1="223.02" x2="223.02" y2="83.23"/><line class="c" x1="229.02" x2="229.02" y2="83.23"/><line class="c" x1="235.01" x2="235.01" y2="83.23"/><line class="c" x1="241.01" x2="241.01" y2="83.23"/><line class="c" x1="247.01" x2="247.01" y2="83.23"/><line class="c" x1="253.01" x2="253.01" y2="83.23"/><line class="c" x1="259.01" x2="259.01" y2="83.23"/><path class="d" d="M6.78,38.15c.15-1.4.35-2.82.59-4.25A46.1,46.1,0,0,1,15.6,14.52Q22,5.6,36.11,4.62a28.06,28.06,0,0,1,5.11.54,26.37,26.37,0,0,1,5.9,1.9A27.44,27.44,0,0,1,56,14.28q4.2,5,6.18,14.15H53q-2-7.8-6.67-11.61A15.7,15.7,0,0,0,36.29,13h-.67a1.76,1.76,0,0,0-.58.1Q28,13.7,22,20.67T15.7,40.73q0,15.71,6,22.68t13.16,7.08h.28q7,0,12.89-5.42t6.45-14.39H63.6c-.12.85-.26,1.71-.4,2.59S62.85,55,62.61,56a37.34,37.34,0,0,1-9,15.9,21.84,21.84,0,0,1-16.78,7.22Q21.52,79.57,14,68.39T6.47,42.29c.06-1.37.17-2.75.31-4.14"/><polygon class="e" points="96.67 17.69 77.6 76.83 67.74 76.83 91.02 5.4 101.59 5.4 125.5 76.83 115.65 76.83 96.67 17.69"/><polygon class="d" points="134.05 5.4 147.14 5.4 166.16 65.32 185.18 5.4 198.35 5.4 198.35 76.83 188.8 76.83 188.8 19.94 170.52 76.83 161.79 76.83 143.52 20.72 143.52 76.83 134.05 76.83 134.05 5.4"/><path class="d" d="M216.67,53.81q0,8.67,5.33,12.82a20.27,20.27,0,0,0,11.77,4.45h.71A20,20,0,0,0,245,68.2a10.89,10.89,0,0,0,5.5-8.25,3.23,3.23,0,0,0,.09-.73v-.73q0-6.83-5.23-9.22a58.52,58.52,0,0,0-12-3.85c-.54-.14-1-.25-1.52-.35s-1-.21-1.43-.34A48,48,0,0,1,216,38.88q-6.48-4-5.68-15.82a19.23,19.23,0,0,1,6.36-13q5.82-5.46,16.92-5.46t17.77,5.56q6.67,5.57,6.14,15.9h-8.42V25a10.52,10.52,0,0,0-4.7-9.26A19.08,19.08,0,0,0,234,12.33h-.54a17.72,17.72,0,0,0-10,3q-4.53,3-4.8,9.31a8.81,8.81,0,0,0,5.42,7.27A61.44,61.44,0,0,0,235,35.46c.72.2,1.47.39,2.24.59l2.33.58a50.15,50.15,0,0,1,13.48,5.61q6.21,3.76,7.29,13.13Q260.9,67,252.67,73a31.22,31.22,0,0,1-18.27,6.25h-.27a29.23,29.23,0,0,1-18-6.2q-8.19-6.18-7.93-19.26Z"/><path class="d" d="M125,26.89a1.76,1.76,0,0,0-1.34-.13l-9,1.1a1.35,1.35,0,0,0-.68,1.8,1.45,1.45,0,0,0,1.8.74L120,30l-5.8,6.61-10.73.71L103,38l-3.74,6.46H87l-.41.56-3.73,5.08H70.39l-.39.6L65.43,58a1.36,1.36,0,0,0,2.26,1.5l4.16-6.66H84.22l.4-.56,3.73-5.08h12.51l.39-.68L105,40l10.44-.84.33-.33,6.72-7.31-.13,5.5a1.35,1.35,0,1,0,2.7.22l.48-9.15a1.37,1.37,0,0,0-.58-1.22"/><path class="f" d="M301.55,93.68h3.23v16.37h-2.46l-7-10v10h-3.23V93.68h2.45l7,10Z"/><path class="f" d="M316.56,98.36h3v11.69h-3v-1.38a4.57,4.57,0,0,1-3.81,1.71,5.3,5.3,0,0,1-4-1.79,6.59,6.59,0,0,1,0-8.77,5.3,5.3,0,0,1,4-1.79,4.57,4.57,0,0,1,3.81,1.71ZM311,106.58a3.12,3.12,0,0,0,2.31.92,3.18,3.18,0,0,0,2.33-.92,3.53,3.53,0,0,0,0-4.75,3.18,3.18,0,0,0-2.33-.92,3.12,3.12,0,0,0-2.31.92,3.53,3.53,0,0,0,0,4.75Z"/><path class="f" d="M329,101.26h-2.64v4.86a1.17,1.17,0,0,0,.3.89,1.44,1.44,0,0,0,.89.32,12.11,12.11,0,0,0,1.45,0v2.74c-2.07.23-3.53,0-4.38-.58a3.91,3.91,0,0,1-1.28-3.35v-4.86h-2v-2.9h2V96l3-.92v3.28H329Z"/><path class="f" d="M332.63,97a1.79,1.79,0,0,1-1.3-.55,1.77,1.77,0,0,1-.55-1.3,1.79,1.79,0,0,1,.55-1.31,1.73,1.73,0,0,1,1.3-.56,1.77,1.77,0,0,1,1.32.56,1.83,1.83,0,0,1,.55,1.31,1.81,1.81,0,0,1-.55,1.3A1.84,1.84,0,0,1,332.63,97Zm-1.5,13.09V98.36h3v11.69Z"/><path class="f" d="M346.87,108.59a6,6,0,0,1-4.4,1.79,6.18,6.18,0,1,1,0-12.35,6,6,0,0,1,4.4,1.79,6.24,6.24,0,0,1,0,8.77Zm-6.66-2.07a3,3,0,0,0,2.26.91,3.08,3.08,0,0,0,2.27-.91,3.4,3.4,0,0,0,0-4.63,3.08,3.08,0,0,0-2.27-.91,3,3,0,0,0-2.26.91,3.43,3.43,0,0,0,0,4.63Z"/><path class="f" d="M357.3,98a4.21,4.21,0,0,1,3.16,1.29,4.84,4.84,0,0,1,1.26,3.55v7.18h-3v-6.8a2.4,2.4,0,0,0-.63-1.79,2.27,2.27,0,0,0-1.69-.62,2.49,2.49,0,0,0-1.87.72,3.07,3.07,0,0,0-.7,2.18v6.31h-3V98.36h3v1.31A3.92,3.92,0,0,1,357.3,98Z"/><path class="f" d="M373.17,98.36h3v11.69h-3v-1.38a4.57,4.57,0,0,1-3.81,1.71,5.31,5.31,0,0,1-4-1.79,6.59,6.59,0,0,1,0-8.77,5.31,5.31,0,0,1,4-1.79,4.57,4.57,0,0,1,3.81,1.71Zm-5.56,8.22a3.14,3.14,0,0,0,2.31.92,3.3,3.3,0,1,0,0-6.59,3.14,3.14,0,0,0-2.31.92,3.55,3.55,0,0,0,0,4.75Z"/><path class="f" d="M378.93,110.05V93h3v17.07Z"/><path class="f" d="M396.79,93.68a5.45,5.45,0,0,1,4,1.59,5.54,5.54,0,0,1,0,7.81,5.45,5.45,0,0,1-4,1.59h-2.87v5.38h-3.23V93.68Zm0,8a2.24,2.24,0,0,0,1.71-.72,2.64,2.64,0,0,0,0-3.54,2.26,2.26,0,0,0-1.71-.7h-2.87v5Z"/><path class="f" d="M406.12,105.44c.41,1.47,1.51,2.2,3.3,2.2a3.1,3.1,0,0,0,2.62-1.17l2.43,1.41a5.81,5.81,0,0,1-5.1,2.5,6.29,6.29,0,0,1-4.65-1.76A6.17,6.17,0,0,1,409.14,98a5.55,5.55,0,0,1,4.24,1.78,6.13,6.13,0,0,1,1.67,4.39,7.81,7.81,0,0,1-.11,1.24Zm-.05-2.34h6a2.81,2.81,0,0,0-1.07-1.77,3,3,0,0,0-1.83-.59,3.19,3.19,0,0,0-2,.62A3.06,3.06,0,0,0,406.07,103.1Z"/><path class="f" d="M423.66,98a4.24,4.24,0,0,1,3.17,1.29,4.88,4.88,0,0,1,1.25,3.55v7.18h-3v-6.8a2.4,2.4,0,0,0-.63-1.79,2.26,2.26,0,0,0-1.68-.62,2.48,2.48,0,0,0-1.87.72,3,3,0,0,0-.71,2.18v6.31h-3V98.36h3v1.31A3.92,3.92,0,0,1,423.66,98Z"/><path class="f" d="M433.43,101.68c0,.31.21.56.62.76a8.3,8.3,0,0,0,1.51.51,17.39,17.39,0,0,1,1.78.56,3.55,3.55,0,0,1,1.51,1.14,3.15,3.15,0,0,1,.62,2,3.21,3.21,0,0,1-1.35,2.77,5.62,5.62,0,0,1-3.35,1q-3.6,0-4.91-2.78l2.61-1.48a2.17,2.17,0,0,0,2.3,1.52c1.07,0,1.61-.33,1.61-1,0-.32-.21-.57-.62-.76a8.74,8.74,0,0,0-1.51-.53,18.42,18.42,0,0,1-1.78-.58,3.67,3.67,0,0,1-1.5-1.12,2.86,2.86,0,0,1-.62-1.9A3.29,3.29,0,0,1,431.62,99a5,5,0,0,1,3.17-1,5.34,5.34,0,0,1,2.59.64,4.68,4.68,0,0,1,1.85,1.84l-2.57,1.4a1.93,1.93,0,0,0-1.87-1.19,1.73,1.73,0,0,0-1,.26A.79.79,0,0,0,433.43,101.68Z"/><path class="f" d="M442.9,97a1.85,1.85,0,0,1-1.3-3.16,1.81,1.81,0,0,1,2.62,0,1.79,1.79,0,0,1,.55,1.31,1.77,1.77,0,0,1-.55,1.3A1.8,1.8,0,0,1,442.9,97Zm-1.49,13.09V98.36h3v11.69Z"/><path class="f" d="M457.14,108.59a6.18,6.18,0,1,1,0-8.77,6.24,6.24,0,0,1,0,8.77Zm-6.65-2.07a3.26,3.26,0,0,0,4.52,0,3.37,3.37,0,0,0,0-4.63,3.26,3.26,0,0,0-4.52,0,3.43,3.43,0,0,0,0,4.63Z"/><path class="f" d="M467.57,98a4.22,4.22,0,0,1,3.17,1.29,4.84,4.84,0,0,1,1.25,3.55v7.18h-3v-6.8a2.36,2.36,0,0,0-.64-1.79,2.26,2.26,0,0,0-1.68-.62,2.49,2.49,0,0,0-1.87.72,3,3,0,0,0-.7,2.18v6.31h-3V98.36h3v1.31A3.89,3.89,0,0,1,467.57,98Z"/><path class="f" d="M297.67,136.23a7.33,7.33,0,0,1-4.09-1.09,5.81,5.81,0,0,1-2.34-3l2.76-1.61a3.67,3.67,0,0,0,3.76,2.5,3.29,3.29,0,0,0,2-.49,1.55,1.55,0,0,0-.14-2.59,12.39,12.39,0,0,0-2.76-1,17.73,17.73,0,0,1-1.86-.65,7.94,7.94,0,0,1-1.52-.88,3.56,3.56,0,0,1-1.16-1.39,4.63,4.63,0,0,1-.39-2,4.38,4.38,0,0,1,1.57-3.55,5.75,5.75,0,0,1,3.8-1.32,6.39,6.39,0,0,1,3.5,1,6.52,6.52,0,0,1,2.35,2.7l-2.71,1.57a3.28,3.28,0,0,0-3.14-2.1,2.51,2.51,0,0,0-1.58.45,1.45,1.45,0,0,0-.57,1.18,1.49,1.49,0,0,0,.65,1.25,8.74,8.74,0,0,0,2.46,1l1.14.37q.38.12,1.05.39a6.14,6.14,0,0,1,1,.51,6.75,6.75,0,0,1,.83.63,3.11,3.11,0,0,1,.71.82,5,5,0,0,1,.42,1,4.49,4.49,0,0,1,.18,1.3,4.39,4.39,0,0,1-1.65,3.6A6.61,6.61,0,0,1,297.67,136.23Z"/><path class="f" d="M312.73,124.21H316l-4.26,11.71a7.7,7.7,0,0,1-2.42,3.64,5.56,5.56,0,0,1-3.75,1v-2.8a3,3,0,0,0,1.93-.52,3.55,3.55,0,0,0,1.14-1.73l-4.8-11.31h3.3l3.05,7.85Z"/><path class="f" d="M319.44,127.53c0,.31.2.56.62.76a8.7,8.7,0,0,0,1.5.51,16.65,16.65,0,0,1,1.78.56,3.49,3.49,0,0,1,1.51,1.14,3.14,3.14,0,0,1,.62,2,3.24,3.24,0,0,1-1.34,2.78,5.66,5.66,0,0,1-3.36,1q-3.6,0-4.91-2.79l2.62-1.47a2.17,2.17,0,0,0,2.29,1.52c1.08,0,1.61-.34,1.61-1,0-.31-.2-.56-.62-.76a8.5,8.5,0,0,0-1.51-.52,15.3,15.3,0,0,1-1.77-.59A3.59,3.59,0,0,1,317,129.5a2.91,2.91,0,0,1-.62-1.9,3.27,3.27,0,0,1,1.27-2.73,5,5,0,0,1,3.17-1,5.3,5.3,0,0,1,2.6.64,4.74,4.74,0,0,1,1.85,1.84l-2.58,1.4a1.92,1.92,0,0,0-1.87-1.19,1.73,1.73,0,0,0-1,.25A.83.83,0,0,0,319.44,127.53Z"/><path class="f" d="M333.75,127.11h-2.64V132a1.17,1.17,0,0,0,.3.89,1.36,1.36,0,0,0,.89.31,11.84,11.84,0,0,0,1.45,0v2.74c-2.08.23-3.54,0-4.39-.59a3.87,3.87,0,0,1-1.27-3.34v-4.86h-2v-2.9h2v-2.37l3-.91v3.28h2.64Z"/><path class="f" d="M338.07,131.29c.41,1.47,1.51,2.2,3.3,2.2a3.09,3.09,0,0,0,2.62-1.17l2.43,1.4a5.8,5.8,0,0,1-5.1,2.51,6.29,6.29,0,0,1-4.65-1.76,6.17,6.17,0,0,1,4.42-10.59,5.57,5.57,0,0,1,4.25,1.78,6.18,6.18,0,0,1,1.67,4.39,6.92,6.92,0,0,1-.12,1.24Zm0-2.34h6a2.85,2.85,0,0,0-1.06-1.77,3.06,3.06,0,0,0-1.84-.59,3.19,3.19,0,0,0-2,.62A2.93,2.93,0,0,0,338,129Z"/><path class="f" d="M362,123.88a4.14,4.14,0,0,1,3.22,1.31,5,5,0,0,1,1.2,3.51v7.2h-3v-7a2.41,2.41,0,0,0-.52-1.64,1.83,1.83,0,0,0-1.45-.59,2,2,0,0,0-1.6.68,3,3,0,0,0-.57,2v6.57h-3v-7a2.4,2.4,0,0,0-.51-1.64,1.85,1.85,0,0,0-1.45-.59,2.06,2.06,0,0,0-1.61.68,2.93,2.93,0,0,0-.59,2v6.57h-3V124.21h3v1.23a3.64,3.64,0,0,1,3.25-1.56,3.48,3.48,0,0,1,3.18,1.68A4,4,0,0,1,362,123.88Z"/><g class="g"><rect class="h" x="291.76" y="5.08" width="180.04" height="71.79"/></g><line class="c" x1="264.89" x2="264.89" y2="83.23"/><line class="c" x1="270.89" x2="270.89" y2="83.23"/><line class="i" x1="276.88" x2="276.88" y2="139.8"/></svg>