<svg width="28" height="28" viewBox="0 0 28 28" fill="none" xmlns="http://www.w3.org/2000/svg">
<g clip-path="url(#clip0_6310_1096)">
<path d="M2.1875 6.5625H25.8125V21.4375H2.1875V6.5625Z" fill="#064F98"/>
<path d="M4.375 16.625C4.375 18.3164 5.74613 19.6875 7.4375 19.6875H25.8125V6.5625H4.375V16.625Z" fill="#1C355E"/>
<path d="M5.25 8.3125H7V17.9375H5.25V8.3125Z" fill="#064F98"/>
<path d="M5.6875 8.3125H7V17.5H5.6875V8.3125Z" fill="white"/>
<path d="M9.1875 8.3125H10.9375V17.9375H9.1875V8.3125Z" fill="#064F98"/>
<path d="M9.625 8.3125H10.9375V17.5H9.625V8.3125Z" fill="white"/>
<path d="M13.125 8.3125H14.875V17.9375H13.125V8.3125Z" fill="#064F98"/>
<path d="M13.5625 8.3125H14.875V17.5H13.5625V8.3125Z" fill="white"/>
<path d="M17.0625 8.3125H18.8125V17.9375H17.0625V8.3125Z" fill="#064F98"/>
<path d="M17.5 8.3125H18.8125V17.5H17.5V8.3125Z" fill="white"/>
<path d="M21 8.3125H22.75V17.9375H21V8.3125Z" fill="#064F98"/>
<path d="M21.4375 8.3125H22.75V17.5H21.4375V8.3125Z" fill="white"/>
<path d="M9.1875 10.9375H10.9375V11.8125H9.1875V10.9375Z" fill="#064F98"/>
<path d="M13.125 10.9375H14.875V11.8125H13.125V10.9375Z" fill="#064F98"/>
<path d="M5.25 10.9375H7V11.8125H5.25V10.9375Z" fill="#064F98"/>
<path d="M18.8125 3.5V1.75L14 0.875L9.1875 1.75V3.5" fill="#064F98"/>
<path d="M27.125 6.5625V4.8125L18.8125 3.5H9.1875L0.875 4.8125V6.5625H27.125Z" fill="#1C355E"/>
<path d="M9.18887 3.5L3.98438 4.32163C4.15981 5.103 4.855 5.6875 5.68887 5.6875H27.1264V4.8125L18.8139 3.5H9.18887Z" fill="#005CB9"/>
<path d="M0.875 21.4375H27.125V27.125H0.875V21.4375Z" fill="#1C355E"/>
<path d="M2.1875 22.75C2.1875 24.4414 3.55863 25.8125 5.25 25.8125H27.125V21.4375H2.1875V22.75Z" fill="#005CB9"/>
<path d="M27.125 27.125L14 23.625L0.875 27.125" fill="#1C355E"/>
<path d="M17.0625 10.9375H18.8125V11.8125H17.0625V10.9375Z" fill="#064F98"/>
<path d="M21 10.9375H22.75V11.8125H21V10.9375Z" fill="#064F98"/>
<path d="M14 23.625L5.79688 25.8125H22.2031L14 23.625Z" fill="#1C355E"/>
<path d="M14.6562 0.994141L10.5 1.7497V3.4997H18.8125V1.7497L14.6562 0.994141Z" fill="#1C355E"/>
</g>
<defs>
<clipPath id="clip0_6310_1096">
<rect width="28" height="28" fill="white"/>
</clipPath>
</defs>
</svg>
