<svg width="28" height="28" viewBox="0 0 28 28" fill="none" xmlns="http://www.w3.org/2000/svg">
<path fill-rule="evenodd" clip-rule="evenodd" d="M7.85575 13.0636C7.84528 13.2378 7.88207 13.4181 7.97783 13.5793C8.07331 13.7401 7.74913 13.2945 7.59367 13.2165C7.50525 13.172 6.42255 11.7841 4.38039 11.1287C4.26716 11.0924 4.14945 11.1112 4.05627 11.1702L4.05582 11.1695L3.22741 11.6962C3.04731 11.8105 2.99395 12.049 3.10813 12.2291C3.22237 12.4092 3.46093 12.4626 3.64108 12.3484L4.29393 11.9333C4.30782 11.9244 4.32344 11.9227 4.3389 11.9282C4.42536 11.9591 4.5111 11.9919 4.59599 12.0266C4.63615 12.0429 4.63939 12.0985 4.60143 12.1194L4.12873 12.38C3.94197 12.4826 3.87371 12.7172 3.97624 12.9039C4.07878 13.0907 4.31336 13.1589 4.50012 13.0564L5.49227 12.5093C5.50902 12.5001 5.52806 12.5006 5.5443 12.5107C5.90231 12.7328 6.23915 12.9898 6.55902 13.2812C6.63344 13.349 6.47289 13.3833 6.34986 13.6363C6.33995 13.6566 6.31906 13.6678 6.29666 13.6648C5.40799 13.5449 4.52403 13.5793 3.65525 13.7851C3.51721 13.8178 3.44329 13.9008 3.38735 14.0131L2.96175 14.8695C2.86755 15.0605 2.94595 15.2916 3.13686 15.3858C3.32782 15.48 3.55899 15.4016 3.65318 15.2107L3.99601 14.5208C4.00329 14.5061 4.01578 14.4965 4.03185 14.4933C4.12263 14.4748 4.21363 14.4583 4.30485 14.4439C4.34769 14.4371 4.37922 14.483 4.35749 14.5206L4.08695 14.9891C3.98106 15.1734 4.04462 15.4086 4.22886 15.5145C4.4131 15.6204 4.64835 15.5569 4.75425 15.3726L5.31985 14.3929C5.32943 14.3763 5.34595 14.3669 5.36504 14.3671C5.68592 14.3708 6.00529 14.3982 6.32774 14.4483C6.34431 14.4509 6.35742 14.4603 6.36526 14.4751C6.68603 15.0773 7.51712 15.1234 7.91332 14.5992C7.93449 14.5712 7.97632 14.5718 7.99654 14.6006C9.09638 16.1646 10.1254 17.6444 10.2274 19.5592C10.2289 19.5889 10.2056 19.6135 10.1759 19.6135H5.42939C5.39343 19.6135 5.36863 19.649 5.381 19.6828C5.54469 20.1282 5.73767 20.5595 5.95775 20.9742C5.96693 20.9915 5.98367 21.0016 6.00327 21.0016H24.4513C24.4708 21.0016 24.4876 20.9915 24.4968 20.9742C24.7168 20.5595 24.9099 20.1282 25.0736 19.6828C25.086 19.649 25.0612 19.6135 25.0252 19.6135H18.2383C18.2117 19.6135 18.1896 19.5935 18.187 19.5669L17.2872 10.2487C17.2846 10.2222 17.2625 10.2021 17.2359 10.2021H13.2186C13.192 10.2021 13.1699 10.2222 13.1674 10.2487L12.263 19.6135H12.2628C11.7663 17.4146 10.397 15.7837 8.89775 14.1137C8.87042 14.0833 8.8875 14.035 8.92782 14.0284C9.55983 13.9256 9.91387 13.1984 9.55978 12.6308C9.55093 12.6165 9.54936 12.6005 9.55541 12.5849C9.67295 12.2809 9.80836 11.9914 9.96505 11.7123C9.9744 11.6956 9.99081 11.686 10.01 11.686H11.1435C11.3569 11.686 11.53 11.513 11.53 11.2995C11.53 11.086 11.3569 10.913 11.1435 10.913H10.6037C10.5603 10.913 10.5364 10.8628 10.5636 10.8291C10.6213 10.7579 10.6805 10.6879 10.7413 10.6191C10.7522 10.6067 10.7667 10.6008 10.7832 10.6018L11.5556 10.65C11.7683 10.6625 11.9508 10.5003 11.9632 10.2877C11.9757 10.0751 11.8135 9.89258 11.6009 9.88009L10.6211 9.81894C10.5111 9.8125 10.3991 9.8531 10.3177 9.93962C9.69961 10.5956 9.23375 11.3361 8.89271 12.1661C8.86291 12.2386 8.76452 12.1528 8.49494 12.2396C8.46582 12.249 8.43535 12.2315 8.4288 12.2016C8.33679 11.7801 8.28253 11.3583 8.26931 10.9378C8.2687 10.9187 8.27783 10.9019 8.29418 10.8921L9.26326 10.3069C9.44587 10.1968 9.50467 9.95955 9.39458 9.77694C9.28454 9.59432 9.04727 9.53552 8.86465 9.64562L8.40265 9.92461C8.36552 9.94706 8.31904 9.91649 8.32498 9.87348C8.33752 9.78226 8.35214 9.69126 8.36877 9.60042C8.37174 9.5843 8.38103 9.57164 8.39559 9.56402L9.07952 9.20725C9.26796 9.10886 9.34093 8.87634 9.24259 8.6879C9.1442 8.49946 8.91169 8.4265 8.72325 8.52483L7.8786 8.96533C7.76783 9.01298 7.68103 9.11177 7.65359 9.23861C7.1996 11.338 7.86236 12.9518 7.85575 13.0636ZM7.97834 13.5802C7.98175 13.5861 7.98528 13.592 7.98881 13.5978L7.98836 13.5982C7.98511 13.5922 7.98175 13.5861 7.97834 13.5802ZM15.1412 1.55132C15.3553 1.48989 15.5813 1.45506 15.8051 1.44705C17.111 1.40023 17.6339 2.31774 18.9278 2.18367C19.1264 2.16306 19.3144 2.12521 19.5126 2.07565C19.8242 1.99775 20.0959 2.31578 19.9535 2.61823C19.6491 3.26514 19.2452 3.76836 18.6139 4.05838C17.4646 4.58646 16.6686 4.00546 15.6544 4.22538C15.6304 4.23058 15.6138 4.25125 15.6138 4.27578V5.24654C15.6138 5.27039 15.6294 5.2905 15.6525 5.29643C15.9035 5.36066 16.1361 5.4833 16.3169 5.66441C16.7523 6.10054 17.0197 6.63198 17.1622 7.30622C17.169 7.33842 17.1447 7.36838 17.1118 7.36838H13.3427C13.3098 7.36838 13.2855 7.33842 13.2923 7.30622C13.4349 6.63192 13.7022 6.10054 14.1376 5.66441C14.3184 5.4833 14.551 5.36066 14.8019 5.29643C14.8251 5.2905 14.8407 5.27039 14.8407 5.24654V1.92831C14.8407 1.7378 14.9633 1.60262 15.1412 1.55132ZM12.7924 8.1414H17.6621C17.8889 8.1414 18.0744 8.30693 18.0744 8.50932V9.06126C18.0744 9.26364 17.8889 9.42918 17.6621 9.42918H12.7924C12.5656 9.42918 12.3801 9.26364 12.3801 9.06126V8.50932C12.3801 8.30693 12.5656 8.1414 12.7924 8.1414ZM15.635 11.0899C15.9046 11.3599 16.0021 11.7276 16.0006 12.2738C16.0006 12.3021 15.9774 12.3252 15.9491 12.3252H14.5055C14.4771 12.3252 14.454 12.3021 14.454 12.2738C14.4525 11.7276 14.5499 11.3599 14.8196 11.0899C15.0292 10.8797 15.4253 10.8797 15.635 11.0899ZM15.635 16.8046C15.9046 17.0747 16.0021 17.4423 16.0006 17.9886C16.0006 18.0169 15.9774 18.04 15.9491 18.04H14.5055C14.4771 18.04 14.454 18.0169 14.454 17.9886C14.4525 17.4423 14.5499 17.0747 14.8196 16.8046C15.0292 16.5945 15.4253 16.5945 15.635 16.8046ZM15.635 13.9472C15.9046 14.2173 16.0021 14.5849 16.0006 15.1312C16.0006 15.1595 15.9774 15.1826 15.9491 15.1826H14.5055C14.4771 15.1826 14.454 15.1595 14.454 15.1312C14.4525 14.5849 14.5499 14.2173 14.8196 13.9472C15.0292 13.7371 15.4253 13.7371 15.635 13.9472ZM23.5303 22.4727C23.1728 22.9354 22.7773 23.3674 22.3488 23.7641C22.3389 23.7732 22.3273 23.7778 22.3138 23.7778H8.14068C8.12719 23.7778 8.11559 23.7732 8.10568 23.7641C7.67717 23.3674 7.2817 22.9354 6.92414 22.4727C6.89799 22.4388 6.92207 22.3897 6.96491 22.3897H23.4895C23.5324 22.3897 23.5565 22.4388 23.5303 22.4727ZM20.2717 25.2626C17.138 26.9854 13.3165 26.9854 10.1828 25.2626C10.1363 25.237 10.1546 25.1659 10.2077 25.1659H20.2469C20.3 25.1659 20.3182 25.2371 20.2717 25.2626ZM21.4949 15.5358C21.5046 15.5457 21.5096 15.5578 21.5096 15.5718V18.789C21.5096 18.8174 21.4864 18.8405 21.458 18.8405H18.9402C18.9136 18.8405 18.8915 18.8205 18.8889 18.7939L18.5545 15.3311C18.553 15.3155 18.558 15.3014 18.5689 15.2902L19.8751 13.9524C19.8955 13.9316 19.9286 13.9316 19.9489 13.9524L21.4949 15.5358ZM22.2493 14.9087L23.0704 13.9572C23.0902 13.9342 23.125 13.9331 23.1463 13.9548L24.6899 15.5358C24.6997 15.5457 24.7046 15.5578 24.7046 15.5718V18.789C24.7046 18.8174 24.6815 18.8405 24.6531 18.8405H22.3334C22.3053 18.8405 22.2822 18.8178 22.2819 18.7896L22.2368 14.943C22.2366 14.9298 22.2408 14.9185 22.2493 14.9087Z" fill="url(#paint0_linear_6310_1130)"/>
<defs>
<linearGradient id="paint0_linear_6310_1130" x1="13.9993" y1="1.44531" x2="13.9993" y2="26.5547" gradientUnits="userSpaceOnUse">
<stop stop-color="#1C355E"/>
<stop offset="1" stop-color="#005CB9"/>
</linearGradient>
</defs>
</svg>
