<svg width="28" height="28" viewBox="0 0 28 28" fill="none" xmlns="http://www.w3.org/2000/svg">
<g clip-path="url(#clip0_6310_1358)">
<path d="M14 27.9999C21.7319 27.9999 27.9999 21.7319 27.9999 14C27.9999 6.268 21.7319 0 14 0C6.268 0 0 6.268 0 14C0 21.7319 6.268 27.9999 14 27.9999Z" fill="#569FDB"/>
<path d="M23.7037 16.46C23.7037 16.8624 23.3775 17.1886 22.975 17.1885H21.2443C20.8418 17.1885 20.5156 17.5147 20.5156 17.9171C20.5156 18.3195 20.8419 18.6457 21.2443 18.6457H21.4467C21.8492 18.6457 22.1754 18.9719 22.1754 19.3743C22.1754 19.7767 22.5017 20.1029 22.904 20.1029H26.6033C27.2584 18.7527 27.7027 17.2813 27.8939 15.7314H24.4324C24.0299 15.7314 23.7037 16.0577 23.7037 16.46Z" fill="#77BBE8"/>
<path d="M22.2949 2.72168H20.1203C19.9192 2.72168 19.7369 2.80338 19.6054 2.9354C19.4734 3.06741 19.3917 3.24908 19.3917 3.45083C19.3917 3.85311 19.718 4.17937 20.1203 4.17937H21.8429C22.0441 4.17937 22.2263 4.26053 22.3578 4.39249C22.4898 4.5245 22.5715 4.70618 22.5715 4.90792C22.5715 5.3102 22.2453 5.63646 21.843 5.63646H17.8341C17.6329 5.63646 17.4507 5.71817 17.3192 5.85018C17.1872 5.9816 17.1055 6.16387 17.1055 6.36506C17.1055 6.76734 17.4317 7.09361 17.834 7.09361H23.2709C23.4721 7.09361 23.6543 7.17531 23.7864 7.30733C23.9178 7.43874 23.9995 7.62101 23.9995 7.82221C23.9995 8.22449 23.6732 8.55075 23.2709 8.55075H21.1294C20.9282 8.55075 20.746 8.63246 20.6145 8.76447C20.4825 8.89589 20.4008 9.07816 20.4008 9.27935C20.4008 9.68164 20.727 10.0079 21.1293 10.0079L27.4215 10.008C26.5439 7.05292 24.7175 4.50651 22.2949 2.72168Z" fill="#77BBE8"/>
<path d="M7.2703 11.2102H3.26937C2.86709 11.2102 2.54082 10.8839 2.54082 10.4816C2.54082 10.2804 2.62253 10.0982 2.75394 9.96676C2.88596 9.83475 3.06823 9.75304 3.26937 9.75304H4.82347C5.22576 9.75304 5.55202 9.42678 5.55202 9.0245C5.55202 8.8233 5.47032 8.64103 5.3383 8.50962C5.20683 8.3776 5.02456 8.2959 4.82342 8.2959H4.20512H1.21066C0.604561 9.65264 0.208297 11.1235 0.0625 12.6674L7.27041 12.6673C7.67269 12.6673 7.99895 12.3411 7.99895 11.9388C7.99895 11.7376 7.91725 11.5553 7.78523 11.4239C7.65371 11.2919 7.47144 11.2102 7.2703 11.2102Z" fill="#77BBE8"/>
<path d="M14.1797 0C14.4342 0 14.6406 0.206336 14.6406 0.460905V5.9606C14.6406 6.21517 14.4342 6.4215 14.1797 6.4215C13.9251 6.4215 13.7188 6.21517 13.7188 5.9606V0.460905C13.7188 0.206336 13.9251 0 14.1797 0Z" fill="#87D7F5"/>
<path d="M14.8431 11.1263H13.5093C13.3402 11.1263 13.2031 10.9892 13.2031 10.8201V4.34032C13.2031 4.17123 13.3402 4.03418 13.5093 4.03418H14.8431C15.0122 4.03418 15.1493 4.17123 15.1493 4.34032V10.8201C15.1493 10.9892 15.0122 11.1263 14.8431 11.1263Z" fill="#BAEAF7"/>
<path d="M14.1762 10.8201V4.34032C14.1762 4.17128 14.3133 4.03418 14.4824 4.03418H13.5093C13.3402 4.03418 13.2031 4.17123 13.2031 4.34032V10.8201C13.2031 10.9892 13.3402 11.1263 13.5093 11.1263H14.4824C14.3133 11.1263 14.1762 10.9892 14.1762 10.8201Z" fill="#6AD0EF"/>
<path d="M15.2471 10.5342H13.1123C12.9813 10.5342 12.875 10.6404 12.875 10.7715V14.9128V16.3496V20.4909V23.2842V27.4255V27.9548C13.2467 27.9844 13.6223 28 14.0016 28C14.5024 28 14.997 27.9732 15.4844 27.9219V27.4255V23.2842V20.4908V16.3495V14.9127V10.7714C15.4844 10.6404 15.3781 10.5342 15.2471 10.5342Z" fill="#87D7F5"/>
<path d="M13.964 8.21191H13.1123C12.9813 8.21191 12.875 8.31812 12.875 8.4492V12.5905V14.0273V18.1686V20.9619V25.1032V26.54V27.9544C13.2467 27.984 13.6223 27.9997 14.0016 27.9997C14.0683 27.9997 14.1347 27.9981 14.2013 27.9972V26.54V25.1032V20.9619V18.1686V14.0273V12.5905V8.4492C14.2014 8.31817 14.0951 8.21191 13.964 8.21191Z" fill="#6AD0EF"/>
<path d="M16.3828 16.75H14.4141C14.2933 16.75 14.1953 16.8479 14.1953 16.9688V20.7878V27.9972C15.0164 27.9859 15.8204 27.9042 16.6016 27.7573V20.7878V16.9689C16.6016 16.848 16.5036 16.75 16.3828 16.75Z" fill="#87D7F5"/>
<path d="M15.3984 20.7878V16.9688C15.3984 16.8479 15.4964 16.75 15.6172 16.75H14.4141C14.2933 16.75 14.1953 16.8479 14.1953 16.9688V20.7878V27.9972C14.6008 27.9916 15.002 27.9687 15.3984 27.9294V20.7878Z" fill="#87D7F5"/>
<path d="M13.5859 14.9639H11.6172C11.4964 14.9639 11.3984 15.0618 11.3984 15.1827V19.0017V26.7215V27.7576C12.1796 27.9044 12.9836 27.9862 13.8047 27.9975V26.7215V19.0017V15.1827C13.8047 15.0618 13.7067 14.9639 13.5859 14.9639Z" fill="#6AD0EF"/>
<path d="M12.6016 19.4404V15.2065C12.6016 15.0725 12.7102 14.9639 12.8442 14.9639H11.6172C11.4964 14.9639 11.3984 15.0618 11.3984 15.1827V19.0017V26.7215V27.7576C11.7939 27.8319 12.1952 27.8895 12.6016 27.9297V19.4404Z" fill="#50BFD8"/>
<path d="M16.8514 21.9639H14.8829C14.762 21.9639 14.6641 22.0619 14.6641 22.1827V27.9839C15.4867 27.9455 16.2907 27.8358 17.0703 27.6613V22.1827C17.0704 22.0618 16.9723 21.9639 16.8514 21.9639Z" fill="#87D7F5"/>
<path d="M15.8672 22.1827C15.8672 22.0618 15.9652 21.9639 16.086 21.9639H14.8829C14.762 21.9639 14.6641 22.0618 14.6641 22.1827V27.9839C15.0699 27.9649 15.4711 27.9285 15.8672 27.8756V22.1827Z" fill="#87D7F5"/>
<path d="M13.207 20.1777H11.2383C11.1175 20.1777 11.0195 20.2757 11.0195 20.3965V27.6811C11.7994 27.8503 12.6034 27.9544 13.4258 27.9876V20.3965C13.4258 20.2757 13.3278 20.1777 13.207 20.1777Z" fill="#87D7F5"/>
<path d="M12.2227 20.4365C12.2227 20.2936 12.3385 20.1777 12.4814 20.1777H11.2383C11.1175 20.1777 11.0195 20.2757 11.0195 20.3965V27.6811C11.4146 27.7668 11.8159 27.8357 12.2227 27.8872V20.4365Z" fill="#6AD0EF"/>
<path d="M19.7562 25.7012H15.633H12.364H8.24076C8.12553 25.7012 8.03125 25.7955 8.03125 25.9107V26.5669V26.6676C9.84151 27.5219 11.864 28.0003 13.9985 28.0003C16.1329 28.0003 18.1554 27.5219 19.9657 26.6676V26.6368V26.5669V25.9107C19.9657 25.7955 19.8714 25.7012 19.7562 25.7012Z" fill="#D8CCBC"/>
<path d="M12.8751 12.7129H12.875V13.5332H12.8751H15.4844V12.7129H12.8751Z" fill="#F9DDAA"/>
<path d="M12.8751 12.7129H12.875V13.5332H12.8751H14.2014V12.7129H12.8751Z" fill="#FCCB5B"/>
<path d="M15.1493 5.79297H13.2031V6.61328H15.1493V5.79297Z" fill="#F9DDAA"/>
<path d="M14.1762 5.79297H13.2031V6.61328H14.1762V5.79297Z" fill="#FCCB5B"/>
<path d="M16.6019 18.1445H11.3984V18.9648H16.6019V18.1445Z" fill="#F9DDAA"/>
<path d="M14.1784 18.1445H11.3984V18.9648H14.1784V18.1445Z" fill="#FCCB5B"/>
<path d="M11.0196 23.6719H11.0195V24.4922H11.0196H17.0717V23.6719H11.0196Z" fill="#F9DDAA"/>
<path d="M11.0196 23.6719H11.0195V24.4922H11.0196H14.2006V23.6719H11.0196Z" fill="#FCCB5B"/>
<path d="M12.435 27.0442C12.0573 27.0442 11.7482 26.7352 11.7482 26.3574C11.7482 26.0499 11.9531 25.7879 12.2332 25.7012H8.24076C8.12553 25.7012 8.03125 25.7955 8.03125 25.9107V26.5669V26.6676C9.84151 27.5219 11.864 28.0003 13.9985 28.0003C15.7943 28.0003 17.5103 27.6605 19.0879 27.0442H12.435Z" fill="#BFA993"/>
<path d="M8.82812 27.0137C10.4281 27.6501 12.1729 28.0003 13.9997 28.0003C15.8265 28.0003 17.5713 27.6501 19.1713 27.0137H8.82812Z" fill="#BFA993"/>
<path d="M11.7618 27.6667C11.7618 27.3626 11.9623 27.1032 12.2376 27.0137H8.82812C9.76667 27.387 10.7554 27.661 11.781 27.8244C11.7689 27.7737 11.7618 27.7211 11.7618 27.6667Z" fill="#AA927D"/>
</g>
<defs>
<clipPath id="clip0_6310_1358">
<rect width="28" height="28" fill="white"/>
</clipPath>
</defs>
</svg>
