<svg width="40" height="40" viewBox="0 0 40 40" fill="none" xmlns="http://www.w3.org/2000/svg">
<path d="M30 36.25H10C6.55375 36.25 3.75 33.4463 3.75 30V10C3.75 6.55375 6.55375 3.75 10 3.75H30C33.4463 3.75 36.25 6.55375 36.25 10V30C36.25 33.4463 33.4463 36.25 30 36.25Z" fill="url(#paint0_linear_1593_69)"/>
<path d="M31.3963 22.1287C29.9375 20.6687 27.5625 20.6687 26.1037 22.1287L23.3787 24.8537C22.8937 25.3387 22.105 25.3387 21.6213 24.8537L16.3962 19.6287C14.9375 18.1687 12.5625 18.1687 11.1038 19.6287L3.75 26.9824V29.9999C3.75 33.4462 6.55375 36.2499 10 36.2499H30C33.4463 36.2499 36.25 33.4462 36.25 29.9999V26.9824L31.3963 22.1287Z" fill="url(#paint1_linear_1593_69)"/>
<path d="M25.625 17.5C27.6961 17.5 29.375 15.8211 29.375 13.75C29.375 11.6789 27.6961 10 25.625 10C23.5539 10 21.875 11.6789 21.875 13.75C21.875 15.8211 23.5539 17.5 25.625 17.5Z" fill="url(#paint2_linear_1593_69)"/>
<defs>
<linearGradient id="paint0_linear_1593_69" x1="20" y1="3.75" x2="20" y2="36.25" gradientUnits="userSpaceOnUse">
<stop stop-color="#005CB9"/>
<stop offset="1" stop-color="#002953"/>
</linearGradient>
<linearGradient id="paint1_linear_1593_69" x1="20" y1="18.5337" x2="20" y2="36.2499" gradientUnits="userSpaceOnUse">
<stop stop-color="#00AE42"/>
<stop offset="1" stop-color="#00481B"/>
</linearGradient>
<linearGradient id="paint2_linear_1593_69" x1="22.9738" y1="11.0988" x2="28.2762" y2="16.4012" gradientUnits="userSpaceOnUse">
<stop stop-color="#FED200"/>
<stop offset="0.272" stop-color="#FDCE01"/>
<stop offset="0.528" stop-color="#FBC205"/>
<stop offset="0.776" stop-color="#F8B00C"/>
<stop offset="1" stop-color="#F59815"/>
</linearGradient>
</defs>
</svg>
