<svg width="500" height="500" viewBox="0 0 500 500" fill="none" xmlns="http://www.w3.org/2000/svg">
<path d="M443.92 319.263H263.174C259.942 319.263 257.312 316.633 257.312 313.401V50.1266C257.312 46.8946 259.942 44.2646 263.174 44.2646H443.92C447.152 44.2646 449.782 46.8936 449.782 50.1266V313.4C449.783 316.633 447.153 319.263 443.92 319.263ZM263.174 44.5146C260.079 44.5146 257.562 47.0326 257.562 50.1266V313.4C257.562 316.495 260.08 319.012 263.174 319.012H443.92C447.015 319.012 449.532 316.495 449.532 313.4V50.1266C449.532 47.0326 447.014 44.5146 443.92 44.5146H263.174Z" fill="#E0E0E0"/>
<path d="M235.493 319.263H54.7458C51.5138 319.263 48.8838 316.633 48.8838 313.401V50.1266C48.8838 46.8946 51.5128 44.2646 54.7458 44.2646H235.493C238.725 44.2646 241.355 46.8936 241.355 50.1266V313.4C241.355 316.633 238.725 319.263 235.493 319.263ZM54.7458 44.5146C51.6518 44.5146 49.1338 47.0326 49.1338 50.1266V313.4C49.1338 316.495 51.6518 319.012 54.7458 319.012H235.493C238.588 319.012 241.105 316.495 241.105 313.4V50.1266C241.105 47.0326 238.587 44.5146 235.493 44.5146H54.7458Z" fill="#E0E0E0"/>
<path d="M500 380.332H0V380.582H500V380.332Z" fill="#E0E0E0"/>
<path d="M67.7319 394.597H51.6719V394.847H67.7319V394.597Z" fill="#E0E0E0"/>
<path d="M223.882 391.887H170.352V392.137H223.882V391.887Z" fill="#E0E0E0"/>
<path d="M104.982 403.887H68.7324V404.137H104.982V403.887Z" fill="#E0E0E0"/>
<path d="M421.542 391.757H378.352V392.007H421.542V391.757Z" fill="#E0E0E0"/>
<path d="M436.782 391.757H430.452V392.007H436.782V391.757Z" fill="#E0E0E0"/>
<path d="M370.102 397.986H316.212V398.236H370.102V397.986Z" fill="#E0E0E0"/>
<path d="M142.09 57.8887H77.3125V180.007H142.09V57.8887Z" fill="#E6E6E6"/>
<path d="M138.909 57.8887H62.8193V180.007H138.909V57.8887Z" fill="#F0F0F0"/>
<path d="M127.309 68.7354H74.3848V169.159H127.309V68.7354Z" fill="white"/>
<path d="M98.4351 91.9909C95.7721 95.3849 93.6791 99.1279 92.2751 103.214C90.8641 107.32 89.9521 111.935 90.6411 116.268C91.2291 119.962 93.4211 123.54 96.9671 125.023C100.779 126.618 104.781 125.096 107.84 122.658C110.677 120.398 114.344 116.452 113.393 112.49C112.402 108.359 107.469 107.542 104.066 108.928C96.2511 112.111 92.5441 121.088 91.9501 128.946C91.3211 137.256 92.6701 150.954 102.937 152.801C104.825 153.141 105.635 150.25 103.735 149.908C96.4121 148.591 95.1451 139.648 94.8871 133.565C94.6001 126.797 95.9831 119.549 100.98 114.619C102.926 112.699 106.433 110.057 109.254 111.702C112.516 113.605 108.782 117.697 107.092 119.333C104.942 121.413 101.876 123.356 98.7651 122.49C95.8371 121.675 94.1261 118.734 93.6111 115.911C92.9081 112.061 93.8691 107.858 95.1001 104.211C96.3281 100.575 98.1881 97.1319 100.558 94.1109C101.735 92.6099 99.6261 90.4719 98.4351 91.9909Z" fill="#F0F0F0"/>
<path d="M433.767 68.7754H378.494V139.691H433.767V68.7754Z" fill="#E6E6E6"/>
<path d="M431.055 68.7754H366.128V139.691H431.055V68.7754Z" fill="#F0F0F0"/>
<path d="M424.786 75.0742H372.114V133.392H424.786V75.0742Z" fill="white"/>
<path d="M408.429 93.708H389.416V114.759H408.429V93.708Z" fill="#F0F0F0"/>
<path d="M433.767 167.679H378.494V238.595H433.767V167.679Z" fill="#E6E6E6"/>
<path d="M431.055 167.679H366.128V238.595H431.055V167.679Z" fill="#F0F0F0"/>
<path d="M424.786 173.978H372.114V232.296H424.786V173.978Z" fill="white"/>
<path d="M408.429 192.61H389.416V213.661H408.429V192.61Z" fill="#F0F0F0"/>
<path d="M181.207 305.485H48.8838V367.632H181.207V305.485Z" fill="#EBEBEB"/>
<path d="M59.7018 364.693L48.8838 464.127H55.8458L76.6708 364.851L59.7018 364.693Z" fill="#EBEBEB"/>
<path d="M173.427 364.693L184.245 464.127H177.283L156.459 364.851L173.427 364.693Z" fill="#EBEBEB"/>
<path d="M82.2991 288.234L88.1071 305.485H77.3721L82.2991 288.234Z" fill="#E0E0E0"/>
<path d="M62.0439 305.486H82.299L88.1069 277.312H67.8659L62.0439 305.486Z" fill="#E6E6E6"/>
<path d="M80.1764 302.789L84.8764 280.01H69.9754L65.2754 302.789H80.1764Z" fill="white"/>
<path d="M119.133 287.003C116.995 281.818 117.187 275.964 119.66 270.93C123.902 263.025 125.14 261.075 122.295 259.442C119.449 257.808 118.369 265.818 118.369 265.818C117.02 262.201 116.882 258.244 117.974 254.541C119.845 248.771 121.031 239.364 118.448 238.363C115.865 237.362 117.974 250.088 115.813 254.436C114.679 251.382 113.944 248.193 113.626 244.951C113.336 240.314 113.81 232.936 111.781 231.039C109.752 229.142 108.461 230.433 110.437 240.656C111.634 246.734 112.295 252.906 112.413 259.1C112.413 259.1 108.013 245.688 105.061 245.293C102.11 244.898 102.11 249.245 104.639 253.013C107.169 256.781 112.043 263.553 112.86 267.004C112.86 267.004 108.012 256.912 103.691 260.022C99.3697 263.131 107.459 269.191 111.069 271.405C114.679 273.618 117.208 287.425 117.208 287.425L119.133 287.003Z" fill="#E0E0E0"/>
<path d="M116.208 290.191C118.277 284.987 118.018 279.145 115.497 274.144C111.149 266.239 109.911 264.369 112.598 262.709C115.286 261.049 116.603 269.033 116.603 269.033C117.899 265.391 117.992 261.428 116.867 257.729C114.917 251.985 113.626 242.605 116.182 241.577C118.738 240.549 116.814 253.276 119.08 257.597C120.18 254.529 120.88 251.332 121.161 248.085C121.398 243.448 120.845 236.07 122.848 234.146C124.85 232.223 126.168 233.487 124.297 243.763C123.178 249.849 122.588 256.02 122.532 262.207C122.532 262.207 126.774 248.743 129.725 248.295C132.676 247.847 132.729 252.221 130.226 256.015C127.723 259.809 122.954 266.555 122.321 270.138C122.321 270.138 127.011 259.967 131.385 262.997C135.759 266.027 127.722 272.245 124.139 274.485C120.556 276.725 118.184 290.61 118.184 290.61L116.208 290.191Z" fill="#EBEBEB"/>
<path d="M132.861 284.395H103.034L105.458 305.738H130.463L132.861 284.395Z" fill="#E0E0E0"/>
<path d="M171.458 300.931V305.07H172.126V305.738H141.189C139.677 305.738 138.452 304.513 138.452 303.001C138.452 301.489 139.677 300.264 141.189 300.264H172.126V300.932H171.458V300.931Z" fill="#E0E0E0"/>
<path opacity="0.3" d="M171.458 300.931V305.07H172.126V305.738H156.504C154.992 305.738 153.767 304.513 153.767 303.001C153.767 301.489 154.992 300.264 156.504 300.264H172.126V300.932H171.458V300.931Z" fill="white"/>
<path d="M171.458 300.931V305.07H156.504C155.354 305.092 154.404 304.178 154.381 303.028C154.381 303.019 154.381 303.01 154.381 303.001C154.374 301.865 155.288 300.939 156.424 300.931C156.433 300.931 156.442 300.931 156.451 300.931H171.458Z" fill="white"/>
<path d="M174.782 295.456V299.595H175.45V300.263H144.513C143.001 300.263 141.776 299.038 141.776 297.526C141.776 296.014 143.001 294.789 144.513 294.789H175.45V295.457H174.782V295.456Z" fill="#E0E0E0"/>
<path d="M174.783 295.456V299.595H175.451V300.263H159.829C158.317 300.263 157.092 299.038 157.092 297.526C157.092 296.014 158.318 294.789 159.829 294.789H175.451V295.457H174.783V295.456Z" fill="#E6E6E6"/>
<path d="M174.783 295.456V299.595H159.829C158.689 299.588 157.767 298.665 157.759 297.526C157.752 296.39 158.666 295.464 159.802 295.456C159.811 295.456 159.82 295.456 159.829 295.456H174.783Z" fill="white"/>
<path d="M170.604 289.982V294.121H171.272V294.789H140.335C138.823 294.789 137.598 293.564 137.598 292.052C137.598 290.54 138.823 289.315 140.335 289.315H171.272V289.983H170.604V289.982Z" fill="#E0E0E0"/>
<path d="M170.604 289.982V294.121H171.271V294.789H155.716C154.204 294.789 152.979 293.564 152.979 292.052C152.979 290.54 154.205 289.315 155.716 289.315H171.339V289.983H170.604V289.982Z" fill="#E6E6E6"/>
<path d="M170.603 289.982V294.121H155.715C154.565 294.151 153.609 293.242 153.579 292.092C153.579 292.083 153.579 292.074 153.578 292.065C153.562 290.93 154.47 289.996 155.606 289.981C155.642 289.981 155.678 289.981 155.715 289.982H170.603Z" fill="white"/>
<path d="M174.01 313.655H56.6084V345.459H174.01V313.655Z" stroke="#E0E0E0" stroke-miterlimit="10"/>
<path d="M121.356 329.558C121.356 331.44 119.83 332.966 117.948 332.966C116.066 332.966 114.54 331.44 114.54 329.558C114.54 327.676 116.066 326.15 117.948 326.15C119.83 326.149 121.356 327.675 121.356 329.558Z" fill="#E0E0E0"/>
<path d="M457.297 464.128C457.297 467.489 364.487 470.214 250 470.214C135.513 470.214 42.7031 467.489 42.7031 464.128C42.7031 460.767 135.513 458.042 250 458.042C364.487 458.042 457.297 460.767 457.297 464.128Z" fill="#F5F5F5"/>
<path d="M139.042 420.095C131.818 420.095 125.513 417.655 120.124 412.776C114.735 407.897 112.042 401.075 112.042 392.302C112.042 384.52 114.647 377.973 119.858 372.661C125.069 367.352 131.463 364.694 139.042 364.694C146.502 364.694 152.779 367.352 157.871 372.661C162.963 377.973 165.509 384.52 165.509 392.302C165.509 400.949 162.845 407.745 157.516 412.684C152.186 417.622 146.028 420.095 139.042 420.095Z" fill="#005CB9"/>
<path d="M55.8457 224.176C55.8457 212.747 59.3637 201.168 66.3987 189.438C73.4337 177.709 83.6977 167.994 97.1917 160.295C110.686 152.598 126.428 148.746 144.419 148.746C161.142 148.746 175.904 151.967 188.706 158.4C201.508 164.836 211.397 173.588 218.375 184.656C225.352 195.726 228.841 207.754 228.841 220.747C228.841 230.973 226.852 239.938 222.873 247.635C218.894 255.334 214.166 261.981 208.687 267.575C203.209 273.169 193.377 282.583 179.191 295.816C175.27 299.545 172.127 302.826 169.763 305.651C167.399 308.478 165.64 311.065 164.487 313.41C163.334 315.756 162.44 318.102 161.805 320.448C161.171 322.794 160.219 326.917 158.951 332.809C156.76 345.323 149.898 351.576 138.365 351.576C132.368 351.576 127.322 349.531 123.228 345.441C119.134 341.353 117.087 335.275 117.087 327.215C117.087 317.11 118.586 308.357 121.585 300.959C124.584 293.56 128.562 287.064 133.522 281.47C138.481 275.876 145.17 269.229 153.589 261.53C160.97 254.793 166.304 249.71 169.591 246.282C172.878 242.854 175.646 239.036 177.895 234.823C180.144 230.612 181.268 226.043 181.268 221.108C181.268 211.484 177.837 203.363 170.975 196.747C164.113 190.133 155.261 186.822 144.42 186.822C131.734 186.822 122.392 190.16 116.395 196.837C110.398 203.514 105.323 213.349 101.172 226.341C97.2507 239.938 89.8117 246.732 78.8557 246.732C72.3977 246.732 66.9477 244.359 62.5077 239.604C58.0657 234.853 55.8457 229.71 55.8457 224.176Z" fill="#005CB9"/>
<g opacity="0.3">
<path d="M139.042 420.095C131.818 420.095 125.513 417.655 120.124 412.776C114.735 407.897 112.042 401.075 112.042 392.302C112.042 384.52 114.647 377.973 119.858 372.661C125.069 367.352 131.463 364.694 139.042 364.694C146.502 364.694 152.779 367.352 157.871 372.661C162.963 377.973 165.509 384.52 165.509 392.302C165.509 400.949 162.845 407.745 157.516 412.684C152.186 417.622 146.028 420.095 139.042 420.095Z" fill="black"/>
<path d="M55.8457 224.176C55.8457 212.747 59.3637 201.168 66.3987 189.438C73.4337 177.709 83.6977 167.994 97.1917 160.295C110.686 152.598 126.428 148.746 144.419 148.746C161.142 148.746 175.904 151.967 188.706 158.4C201.508 164.836 211.397 173.588 218.375 184.656C225.352 195.726 228.841 207.754 228.841 220.747C228.841 230.973 226.852 239.938 222.873 247.635C218.894 255.334 214.166 261.981 208.687 267.575C203.209 273.169 193.377 282.583 179.191 295.816C175.27 299.545 172.127 302.826 169.763 305.651C167.399 308.478 165.64 311.065 164.487 313.41C163.334 315.756 162.44 318.102 161.805 320.448C161.171 322.794 160.219 326.917 158.951 332.809C156.76 345.323 149.898 351.576 138.365 351.576C132.368 351.576 127.322 349.531 123.228 345.441C119.134 341.353 117.087 335.275 117.087 327.215C117.087 317.11 118.586 308.357 121.585 300.959C124.584 293.56 128.562 287.064 133.522 281.47C138.481 275.876 145.17 269.229 153.589 261.53C160.97 254.793 166.304 249.71 169.591 246.282C172.878 242.854 175.646 239.036 177.895 234.823C180.144 230.612 181.268 226.043 181.268 221.108C181.268 211.484 177.837 203.363 170.975 196.747C164.113 190.133 155.261 186.822 144.42 186.822C131.734 186.822 122.392 190.16 116.395 196.837C110.398 203.514 105.323 213.349 101.172 226.341C97.2507 239.938 89.8117 246.732 78.8557 246.732C72.3977 246.732 66.9477 244.359 62.5077 239.604C58.0657 234.853 55.8457 229.71 55.8457 224.176Z" fill="black"/>
</g>
<path d="M139.042 412.817C131.818 412.817 125.513 410.377 120.124 405.498C114.735 400.619 112.042 393.796 112.042 385.024C112.042 377.242 114.647 370.695 119.858 365.383C125.069 360.074 131.463 357.416 139.042 357.416C146.502 357.416 152.779 360.074 157.871 365.383C162.963 370.695 165.509 377.241 165.509 385.024C165.509 393.671 162.845 400.467 157.516 405.406C152.186 410.344 146.028 412.817 139.042 412.817Z" fill="#005CB9"/>
<path d="M55.8457 216.898C55.8457 205.469 59.3637 193.89 66.3987 182.16C73.4337 170.43 83.6977 160.716 97.1917 153.017C110.686 145.32 126.428 141.468 144.419 141.468C161.142 141.468 175.904 144.689 188.706 151.122C201.508 157.558 211.397 166.31 218.375 177.378C225.352 188.448 228.841 200.476 228.841 213.469C228.841 223.695 226.852 232.66 222.873 240.357C218.894 248.056 214.166 254.703 208.687 260.297C203.209 265.891 193.377 275.305 179.191 288.538C175.27 292.267 172.127 295.548 169.763 298.373C167.399 301.2 165.64 303.787 164.487 306.133C163.334 308.479 162.44 310.825 161.805 313.171C161.171 315.517 160.219 319.64 158.951 325.532C156.76 338.046 149.898 344.299 138.365 344.299C132.368 344.299 127.322 342.254 123.228 338.164C119.134 334.076 117.087 327.998 117.087 319.938C117.087 309.833 118.586 301.081 121.585 293.682C124.584 286.283 128.562 279.787 133.522 274.193C138.481 268.599 145.17 261.952 153.589 254.253C160.97 247.516 166.304 242.433 169.591 239.005C172.878 235.576 175.646 231.759 177.895 227.546C180.144 223.335 181.268 218.766 181.268 213.831C181.268 204.207 177.837 196.086 170.975 189.47C164.113 182.856 155.261 179.545 144.42 179.545C131.734 179.545 122.392 182.883 116.395 189.56C110.398 196.237 105.323 206.072 101.172 219.064C97.2507 232.661 89.8117 239.455 78.8557 239.455C72.3977 239.455 66.9477 237.081 62.5077 232.327C58.0657 227.575 55.8457 222.432 55.8457 216.898Z" fill="#005CB9"/>
<path d="M383.052 85.7857C372.178 77.7617 356.857 80.0717 348.833 90.9467C342.638 99.3417 342.627 110.375 347.937 118.667L345.96 125.746L353.68 124.909C353.788 124.992 353.884 125.085 353.994 125.166C364.868 133.19 380.189 130.88 388.213 120.005C396.237 109.131 393.927 93.8097 383.052 85.7857Z" fill="#005CB9"/>
<path opacity="0.7" d="M383.052 85.7857C372.178 77.7617 356.857 80.0717 348.833 90.9467C342.638 99.3417 342.627 110.375 347.937 118.667L345.96 125.746L353.68 124.909C353.788 124.992 353.884 125.085 353.994 125.166C364.868 133.19 380.189 130.88 388.213 120.005C396.237 109.131 393.927 93.8097 383.052 85.7857Z" fill="white"/>
<path d="M385.681 84.2031C392.257 88.6811 396.314 96.6321 396.079 104.585" stroke="#005CB9" stroke-width="0.5" stroke-miterlimit="10" stroke-linecap="round" stroke-linejoin="round"/>
<path d="M395.842 108.229C395.896 109.441 395.697 110.664 395.26 111.796" stroke="#005CB9" stroke-width="0.5" stroke-miterlimit="10" stroke-linecap="round" stroke-linejoin="round"/>
<path d="M366.935 106.677C367.347 105.977 367.948 105.205 368.736 104.36C369.315 103.742 369.739 103.222 370.011 102.8C370.283 102.378 370.419 101.899 370.419 101.363C370.419 100.602 370.16 99.9987 369.643 99.5557C369.126 99.1127 368.438 98.8917 367.579 98.8917C366.754 98.8917 366.023 99.0927 365.383 99.4947C364.743 99.8957 364.204 100.458 363.766 101.178L360.584 98.9847C361.321 97.6667 362.315 96.6467 363.568 95.9257C364.821 95.2047 366.307 94.8447 368.025 94.8447C370.041 94.8447 371.658 95.3497 372.876 96.3587C374.094 97.3677 374.703 98.7687 374.703 100.561C374.703 101.406 374.585 102.147 374.348 102.785C374.111 103.423 373.822 103.964 373.48 104.406C373.139 104.849 372.696 105.359 372.153 105.936C371.505 106.615 371.031 107.187 370.733 107.65C370.435 108.113 370.285 108.675 370.285 109.334H366.315C366.318 108.263 366.523 107.378 366.935 106.677ZM366.515 116.041C366.033 115.553 365.791 114.958 365.791 114.257C365.791 113.557 366.028 112.971 366.501 112.501C366.974 112.031 367.58 111.796 368.315 111.796C369.052 111.796 369.656 112.032 370.129 112.501C370.602 112.971 370.839 113.557 370.839 114.257C370.839 114.958 370.599 115.553 370.116 116.041C369.634 116.53 369.034 116.773 368.315 116.773C367.597 116.774 366.996 116.53 366.515 116.041Z" fill="#005CB9"/>
<path d="M153.013 81.5447C145.867 93.0157 149.372 108.108 160.843 115.254C169.698 120.771 180.698 119.917 188.548 113.973L195.76 115.388L194.32 107.757C194.394 107.643 194.479 107.54 194.552 107.424C201.698 95.9527 198.193 80.8607 186.722 73.7147C175.251 66.5687 160.159 70.0747 153.013 81.5447Z" fill="#005CB9"/>
<path opacity="0.7" d="M153.013 81.5447C145.867 93.0157 149.372 108.108 160.843 115.254C169.698 120.771 180.698 119.917 188.548 113.973L195.76 115.388L194.32 107.757C194.394 107.643 194.479 107.54 194.552 107.424C201.698 95.9527 198.193 80.8607 186.722 73.7147C175.251 66.5687 160.159 70.0747 153.013 81.5447Z" fill="white"/>
<path d="M151.229 79.048C155.177 72.14 162.786 67.472 170.732 67.083" stroke="#005CB9" stroke-width="0.5" stroke-miterlimit="10" stroke-linecap="round" stroke-linejoin="round"/>
<path d="M174.383 67.0341C175.587 66.8851 176.822 66.9881 177.985 67.3341" stroke="#005CB9" stroke-width="0.5" stroke-miterlimit="10" stroke-linecap="round" stroke-linejoin="round"/>
<path d="M173.072 95.3476C173.484 94.6476 174.085 93.8756 174.873 93.0306C175.452 92.4126 175.876 91.8926 176.148 91.4706C176.421 91.0486 176.556 90.5696 176.556 90.0336C176.556 89.2726 176.297 88.6696 175.78 88.2266C175.263 87.7836 174.575 87.5626 173.716 87.5626C172.891 87.5626 172.159 87.7636 171.52 88.1656C170.88 88.5666 170.341 89.1286 169.903 89.8486L166.721 87.6556C167.457 86.3376 168.452 85.3176 169.705 84.5966C170.958 83.8756 172.444 83.5156 174.161 83.5156C176.177 83.5156 177.794 84.0206 179.012 85.0296C180.23 86.0386 180.839 87.4386 180.839 89.2316C180.839 90.0766 180.721 90.8176 180.484 91.4556C180.247 92.0936 179.958 92.6356 179.616 93.0766C179.275 93.5196 178.832 94.0296 178.289 94.6066C177.641 95.2866 177.167 95.8576 176.869 96.3206C176.571 96.7836 176.421 97.3456 176.421 98.0046H172.451C172.455 96.9336 172.66 96.0486 173.072 95.3476ZM172.652 104.712C172.17 104.224 171.928 103.629 171.928 102.928C171.928 102.228 172.164 101.642 172.638 101.172C173.111 100.702 173.717 100.467 174.452 100.467C175.189 100.467 175.793 100.703 176.266 101.172C176.739 101.642 176.976 102.228 176.976 102.928C176.976 103.629 176.736 104.224 176.253 104.712C175.771 105.201 175.171 105.444 174.452 105.444C173.734 105.444 173.134 105.2 172.652 104.712Z" fill="#005CB9"/>
<path d="M401.136 423.737C401.118 423.18 399.245 367.899 390.253 359.155C381.507 350.653 371.469 358.839 371.047 359.191L370.145 358.111C370.259 358.015 381.587 348.768 391.233 358.147C400.629 367.284 402.467 421.395 402.541 423.694L401.136 423.737Z" fill="#263238"/>
<path d="M401.908 434.6C401.843 433.939 395.763 368.234 419.758 340.696L420.819 341.619C397.221 368.701 403.246 433.808 403.309 434.462L401.908 434.6Z" fill="#263238"/>
<path d="M401.02 427.651L399.615 427.557C399.664 426.812 404.311 352.859 386.71 336.671L387.662 335.635C405.757 352.279 401.221 424.581 401.02 427.651Z" fill="#263238"/>
<path d="M403.311 427.61L401.903 427.599C401.92 425.562 402.484 377.647 416.094 369.848C419.12 368.112 422.082 367.824 424.9 368.989C433.13 372.393 437.208 387.04 437.378 387.662L436.02 388.033C435.98 387.887 431.953 373.429 424.36 370.29C421.967 369.302 419.421 369.563 416.793 371.069C403.879 378.469 403.315 427.119 403.311 427.61Z" fill="#263238"/>
<path d="M398.01 427.643L396.606 427.564C396.627 427.186 398.659 389.7 388.542 376.492C386.091 373.293 383.43 371.767 380.619 371.964C373.99 372.427 368.432 382.127 368.377 382.225L367.151 381.532C367.392 381.106 373.135 371.077 380.519 370.56C383.822 370.325 386.902 372.036 389.66 375.637C400.094 389.258 398.1 426.083 398.01 427.643Z" fill="#263238"/>
<path d="M400.23 432.743C399.955 429.106 393.617 343.513 404.768 328.43L405.899 329.265C395.056 343.931 401.566 431.75 401.633 432.635L400.23 432.743Z" fill="#263238"/>
<path d="M429.953 373.715C429.953 373.715 422.836 376.345 425.252 382.004C432.06 397.949 448.286 399.648 448.286 399.648C448.286 399.648 455.9 387.595 449.659 378.233C441.054 365.326 430.133 369.548 429.953 373.715Z" fill="#005CB9"/>
<path d="M398.85 366.579C398.85 366.579 405.974 366.281 406.379 372.42C406.784 378.559 390.946 395.545 390.946 395.545C390.946 395.545 379.644 391.459 382.071 376.138C384.499 360.818 397.08 362.803 398.85 366.579Z" fill="#005CB9"/>
<path d="M402.305 330.8C402.305 330.8 399.313 330.432 398.188 327.739C394.832 319.707 406.366 311.047 421.788 315.623C421.788 315.623 422.196 329.194 413.898 334.546C405.598 339.899 402.305 330.8 402.305 330.8Z" fill="#005CB9"/>
<path d="M375.876 372.886C375.876 372.886 378.358 369.482 374.607 369.148C370.856 368.814 354.617 376.091 358.887 392.748C358.887 392.748 379.773 385.935 380.498 378.962C381.223 371.988 375.876 372.886 375.876 372.886Z" fill="#005CB9"/>
<path d="M420.407 336.759C420.407 336.759 421.345 333.668 424.883 332.376C428.42 331.084 441.562 331.895 441.743 349.089C441.743 349.089 421.527 352.449 419.025 345.899C416.522 339.35 420.407 336.759 420.407 336.759Z" fill="#005CB9"/>
<path d="M409.494 351.047C409.494 351.047 410.853 348.69 413.45 349.952C416.047 351.213 423.705 359.092 416.403 368.604C416.403 368.604 402.834 360.446 403.943 354.72C404.966 349.442 409.494 351.047 409.494 351.047Z" fill="#005CB9"/>
<path d="M376.253 355.194C376.253 355.194 378.212 352.626 375.343 352.308C372.473 351.99 359.612 355.423 362.608 368.261C362.608 368.261 378.276 367.084 378.947 361.75C379.618 356.417 376.253 355.194 376.253 355.194Z" fill="#005CB9"/>
<path d="M421.051 461.95H382.756L378.624 422.324H425.182L421.051 461.95Z" fill="#263238"/>
<path d="M431.623 416.896H372.186V427.754H431.623V416.896Z" fill="#263238"/>
<path opacity="0.3" d="M389.548 389.887C388.374 381.536 392.6 372.24 398.852 366.58" stroke="black" stroke-width="0.5" stroke-miterlimit="10" stroke-linecap="round" stroke-linejoin="round"/>
<path opacity="0.3" d="M409.494 351.517C412.733 354.735 414.986 358.932 415.88 363.41" stroke="black" stroke-width="0.5" stroke-miterlimit="10" stroke-linecap="round" stroke-linejoin="round"/>
<path opacity="0.3" d="M429.953 373.715C436.414 376.584 442.495 382.655 445.589 389.011" stroke="black" stroke-width="0.5" stroke-miterlimit="10" stroke-linecap="round" stroke-linejoin="round"/>
<path opacity="0.3" d="M420.407 336.759C423.753 335.8 426.775 336.825 430.028 338.065C433.281 339.306 436.112 341.625 437.969 344.569" stroke="black" stroke-width="0.5" stroke-miterlimit="10" stroke-linecap="round" stroke-linejoin="round"/>
<path d="M392.052 339.656C392.052 339.656 396.795 340.222 397.07 337.317C397.345 334.412 381.39 323.107 368.298 332.453C368.298 332.453 372.328 345.418 381.918 347.778C391.507 350.138 392.052 339.656 392.052 339.656Z" fill="#005CB9"/>
<path opacity="0.3" d="M391.905 339.893C386.916 333.189 374.672 331.01 370.503 332.521" stroke="black" stroke-width="0.5" stroke-miterlimit="10" stroke-linecap="round" stroke-linejoin="round"/>
<path opacity="0.3" d="M376.396 355.426C372.326 356.938 367.979 359.549 365.719 363.257" stroke="black" stroke-width="0.5" stroke-miterlimit="10" stroke-linecap="round" stroke-linejoin="round"/>
<path opacity="0.3" d="M361.119 386.425C364.301 380.323 369.65 375.379 375.983 372.686" stroke="black" stroke-width="0.5" stroke-miterlimit="10" stroke-linecap="round" stroke-linejoin="round"/>
<path opacity="0.3" d="M402.933 330.476C405.473 325.054 410.35 320.776 416.058 318.966" stroke="black" stroke-width="0.5" stroke-miterlimit="10" stroke-linecap="round" stroke-linejoin="round"/>
<path opacity="0.3" d="M379.19 427.754L379.932 434.868H423.874L424.617 427.746L379.19 427.754Z" fill="black"/>
<path d="M251.363 424.444L255.261 453.047L264.583 453.518L267.601 425.944L251.363 424.444Z" fill="#263238"/>
<path d="M272.521 466.326H251.671C251.671 466.326 251.216 465.45 251.736 463.119C251.815 462.756 251.919 462.357 252.053 461.921C252.06 461.899 252.065 461.878 252.072 461.856C252.267 461.211 252.491 460.417 252.729 459.561C253.684 456.07 254.807 451.509 254.807 451.509C254.807 451.509 258.276 444.082 262.334 445.937C265.895 447.563 265.05 452.218 265.05 452.218C265.05 452.218 265.399 454.951 268.098 457.362C269.767 458.851 271.427 460.004 272.226 461.856C272.375 462.202 272.493 462.57 272.577 462.97C272.587 463.018 272.597 463.069 272.604 463.119C272.771 464.012 272.761 465.058 272.521 466.326Z" fill="#263238"/>
<path opacity="0.3" d="M251.735 463.119C251.215 465.45 251.67 466.326 251.67 466.326H272.52C272.761 465.058 272.77 464.012 272.604 463.119H251.735Z" fill="white"/>
<path d="M264.21 453.388C263.037 452.474 261.499 452.593 260.444 453.622C260.16 453.899 259.725 453.464 260.009 453.187C261.325 451.903 263.205 451.831 264.645 452.953C264.957 453.196 264.519 453.629 264.21 453.388Z" fill="#005CB9"/>
<path d="M264.799 455.335C263.626 454.421 262.088 454.54 261.033 455.569C260.749 455.846 260.314 455.411 260.598 455.134C261.914 453.85 263.794 453.778 265.235 454.9C265.546 455.143 265.108 455.576 264.799 455.335Z" fill="#005CB9"/>
<path d="M265.39 457.126C264.217 456.212 262.679 456.331 261.624 457.36C261.341 457.637 260.905 457.202 261.189 456.925C262.505 455.641 264.385 455.569 265.825 456.691C266.137 456.934 265.699 457.366 265.39 457.126Z" fill="#005CB9"/>
<path d="M212.228 422.654L208.329 451.257L199.008 451.727L195.989 424.154L212.228 422.654Z" fill="#263238"/>
<path d="M191.072 464.536H211.922C211.922 464.536 212.377 463.66 211.857 461.329C211.778 460.966 211.674 460.566 211.54 460.131C211.533 460.109 211.528 460.087 211.521 460.066C211.326 459.421 211.102 458.627 210.864 457.771C209.909 454.28 208.785 449.72 208.785 449.72C208.785 449.72 205.316 442.293 201.258 444.148C197.697 445.774 198.542 450.429 198.542 450.429C198.542 450.429 198.193 453.162 195.494 455.572C193.825 457.061 192.165 458.214 191.366 460.066C191.217 460.412 191.099 460.78 191.015 461.18C191.006 461.228 190.995 461.279 190.988 461.329C190.822 462.222 190.831 463.268 191.072 464.536Z" fill="#263238"/>
<path opacity="0.3" d="M211.857 461.329C212.377 463.66 211.922 464.536 211.922 464.536H191.072C190.831 463.268 190.822 462.222 190.988 461.329H211.857Z" fill="white"/>
<path d="M199.381 451.598C200.554 450.684 202.092 450.803 203.147 451.832C203.431 452.109 203.866 451.674 203.582 451.397C202.266 450.113 200.386 450.041 198.946 451.163C198.634 451.406 199.072 451.838 199.381 451.598Z" fill="#005CB9"/>
<path d="M198.793 453.545C199.966 452.631 201.504 452.75 202.559 453.779C202.843 454.056 203.278 453.621 202.994 453.344C201.677 452.06 199.798 451.988 198.357 453.11C198.046 453.353 198.484 453.785 198.793 453.545Z" fill="#005CB9"/>
<path d="M198.202 455.335C199.375 454.421 200.913 454.54 201.968 455.569C202.251 455.846 202.687 455.411 202.403 455.134C201.086 453.85 199.207 453.778 197.767 454.9C197.454 455.143 197.893 455.576 198.202 455.335Z" fill="#005CB9"/>
<path d="M271.781 236.678L228.42 239.262L201.893 234.681C201.893 234.681 200.092 264.975 197.826 336.957C197.332 352.654 193.183 445.967 193.183 445.967L216.501 448.343C216.501 448.343 228.083 351.562 229.853 343.11C230.918 338.026 234.893 299.859 238.052 281.614C239.583 296.83 240.846 333.553 242.003 343.432C242.003 343.432 247.791 422.855 248.611 445.385L270.346 444.306C273.028 413.375 273.938 300.708 273.938 300.708L273.934 300.706C275.44 277.11 271.781 236.678 271.781 236.678Z" fill="#263238"/>
<path opacity="0.4" d="M271.781 236.678L228.42 239.262L201.893 234.681C201.893 234.681 200.092 264.975 197.826 336.957C197.332 352.654 193.183 445.967 193.183 445.967L216.501 448.343C216.501 448.343 228.083 351.562 229.853 343.11C230.918 338.026 234.893 299.859 238.052 281.614C239.583 296.83 240.846 333.553 242.003 343.432C242.003 343.432 247.791 422.855 248.611 445.385L270.346 444.306C273.028 413.375 273.938 300.708 273.938 300.708L273.934 300.706C275.44 277.11 271.781 236.678 271.781 236.678Z" fill="white"/>
<path d="M219.245 134.738C223.273 134.488 233.623 132.369 248.501 133.953C256.245 134.778 262.569 134.597 270.514 138.245L274.442 233.606C274.501 241.486 273.236 242.589 273.236 242.589C273.236 242.589 273.463 247.064 273.48 247.202C247.332 257.307 217.217 256.648 200.562 246.269C200.955 246.334 200.562 243.037 200.562 243.037C200.562 243.037 198.051 240.492 198.911 232.394C201.779 205.373 208.065 161.819 212.525 137.518C212.643 136.918 218.634 134.776 219.245 134.738Z" fill="#005CB9"/>
<path opacity="0.3" d="M219.245 134.738C223.273 134.488 233.623 132.369 248.501 133.953C256.245 134.778 262.569 134.597 270.514 138.245L274.442 233.606C274.501 241.486 273.236 242.589 273.236 242.589C273.236 242.589 273.463 247.064 273.48 247.202C247.332 257.307 217.217 256.648 200.562 246.269C200.955 246.334 200.562 243.037 200.562 243.037C200.562 243.037 198.051 240.492 198.911 232.394C201.779 205.373 208.065 161.819 212.525 137.518C212.643 136.918 218.634 134.776 219.245 134.738Z" fill="black"/>
<path opacity="0.3" d="M267.655 143.464C266.623 143.464 262.425 153.202 259.743 165.011C257.061 176.82 250.156 199.044 250.156 199.044L208.958 205.543L206.592 225.183C206.592 225.183 261.573 230.219 267.969 223.33C274.364 216.442 272.62 215.116 274.94 202.872C277.009 191.953 278.107 164.531 277.781 157.252C277.318 146.867 269.079 143.492 267.655 143.464Z" fill="black"/>
<path d="M190.48 205.543C190.48 205.543 185.194 213.539 188.718 215.572C192.242 217.605 205.451 221.129 205.451 221.129V206.156L190.48 205.543Z" fill="#EBB373"/>
<path d="M270.165 138.089C269.133 138.089 263.422 148.687 260.74 160.496C258.058 172.305 252.488 200.449 252.488 200.449L205.451 206.157V223.083C205.451 223.083 262.184 227.019 268.579 220.131C274.974 213.243 275.13 209.742 277.45 197.498C279.519 186.579 280.617 159.157 280.291 151.878C279.828 141.491 271.589 138.116 270.165 138.089Z" fill="#005CB9"/>
<path opacity="0.3" d="M270.165 138.089C269.133 138.089 263.422 148.687 260.74 160.496C258.058 172.305 252.488 200.449 252.488 200.449L205.451 206.157V223.083C205.451 223.083 262.184 227.019 268.579 220.131C274.974 213.243 275.13 209.742 277.45 197.498C279.519 186.579 280.617 159.157 280.291 151.878C279.828 141.491 271.589 138.116 270.165 138.089Z" fill="black"/>
<g opacity="0.3">
<path d="M260.956 151.243C262.537 145.683 267.693 141.421 273.462 140.95C273.94 140.911 273.944 140.161 273.462 140.2C267.357 140.698 261.91 145.144 260.233 151.043C260.1 151.509 260.824 151.708 260.956 151.243Z" fill="black"/>
</g>
<path d="M222.426 131.912C222.426 131.912 223.175 134.2 222.636 134.939C222.097 135.678 221.438 135.85 221.438 135.85C221.438 135.85 222.591 137.564 222.134 138.65C222.134 138.65 223.864 140.593 222.831 141.907C221.798 143.221 220.66 142.478 220.3 141.907C219.941 141.336 218.383 145.371 216.407 144.496C214.431 143.621 216.347 141.278 216.946 140.421L215.029 140.707C215.029 140.707 212.214 146.992 210.118 147.278C208.022 147.564 202.283 146.971 201.768 144.496C201.768 144.496 210.728 128.114 211.35 127.757C211.808 127.495 217.117 126.333 219.89 125.737C220.922 125.515 221.977 125.959 222.51 126.83C223.394 128.273 224.459 130.359 223.669 130.962C222.426 131.912 222.426 131.912 222.426 131.912Z" fill="#EBB373"/>
<path opacity="0.3" d="M201.097 145.859C200.611 146.554 186.014 191.737 188.442 200.075C190.87 208.414 194.512 211.425 200.582 210.267C206.652 209.109 209.808 207.256 210.537 199.612C211.265 191.968 216.418 149.552 212.859 147.343C211.15 146.282 201.097 145.859 201.097 145.859Z" fill="black"/>
<path d="M198.732 144.085C198.246 144.78 183.649 189.963 186.077 198.301C188.505 206.64 192.147 209.651 198.217 208.493C204.287 207.335 207.443 205.482 208.172 197.838C208.9 190.194 215.087 147.683 213.225 146.923C211.362 146.162 198.732 144.085 198.732 144.085Z" fill="#005CB9"/>
<path opacity="0.3" d="M198.732 144.085C198.246 144.78 183.649 189.963 186.077 198.301C188.505 206.64 192.147 209.651 198.217 208.493C204.287 207.335 207.443 205.482 208.172 197.838C208.9 190.194 215.087 147.683 213.225 146.923C211.362 146.162 198.732 144.085 198.732 144.085Z" fill="black"/>
<path d="M248.954 137.229C248.954 137.229 242.162 142.994 240.39 143.433C238.007 144.023 230.623 136.058 230.623 136.058C233.554 132.252 232.133 129.329 231.477 124.949L250.157 106.908C250.157 106.908 248.211 106.863 248.2 106.908C247.723 108.476 247.611 117.98 247.954 130.001L248.954 137.229Z" fill="#EBB373"/>
<g opacity="0.2">
<path d="M240.962 124.062C239.394 127.123 235.931 129.49 232.45 130.438C232.423 130.114 232.297 129.648 232.256 129.329C232.194 128.827 232.003 128.083 231.902 127.563C231.773 126.927 231.614 126.241 231.418 125.598C231.323 125.347 231.229 125.41 231.134 125.16L230.939 124.644L240.639 118.402C241.656 118.815 242.222 121.579 240.962 124.062Z" fill="black"/>
</g>
<path d="M248.817 94.4772C248.517 82.4662 236.019 74.4562 224.901 80.1372C213.617 85.9042 213.521 103.78 217.016 114.293C220.899 125.973 236.12 130.168 244.399 120.158C249.903 113.503 249.117 106.488 248.817 94.4772Z" fill="#EBB373"/>
<path d="M232.062 101.816C232.253 103.028 231.764 104.106 230.969 104.224C230.174 104.342 229.375 103.454 229.183 102.241C228.992 101.029 229.481 99.9506 230.276 99.8326C231.071 99.7156 231.871 100.604 232.062 101.816Z" fill="#263238"/>
<path d="M219.734 103.058C219.926 104.27 219.436 105.348 218.642 105.466C217.847 105.583 217.048 104.696 216.856 103.483C216.665 102.271 217.154 101.193 217.949 101.075C218.743 100.958 219.543 101.846 219.734 103.058Z" fill="#263238"/>
<path d="M224.348 100.918C224.348 100.918 221.46 107.547 220.617 110.194C222.545 111.452 225.341 110.291 225.341 110.291L224.348 100.918Z" fill="#C15854"/>
<path d="M233.337 95.4479C233.18 95.5719 232.961 95.6109 232.761 95.5299C230.428 94.5949 228.772 95.6519 228.601 95.7669C228.34 95.9469 227.98 95.8829 227.798 95.6249C227.616 95.3659 227.68 95.0089 227.939 94.8289C228.031 94.7649 230.229 93.2819 233.192 94.4709C233.488 94.5889 233.631 94.9229 233.512 95.2149C233.473 95.3109 233.412 95.3889 233.337 95.4479Z" fill="#263238"/>
<path d="M216.085 100.223C215.988 100.174 215.903 100.096 215.845 99.9942C215.687 99.7172 215.78 99.3652 216.054 99.2072C218.798 97.6232 221.148 98.8271 221.261 98.8681C221.542 99.0141 221.655 99.3621 221.512 99.6451C221.369 99.9271 221.028 100.039 220.747 99.8972C220.651 99.8432 218.828 98.9392 216.626 100.21C216.454 100.309 216.251 100.307 216.085 100.223Z" fill="#263238"/>
<path d="M245.271 101.739C245.271 101.739 243.463 81.3965 237.108 80.6265C230.753 79.8565 229.781 85.7755 225.618 85.9335C221.456 86.0915 221.516 83.0125 221.516 83.0125C219.092 84.7435 217.46 89.7015 215.769 93.5305C215.769 93.5305 216.63 82.3575 221.046 78.9495C229.64 72.3165 241.709 73.5345 247.172 78.5825C252.538 83.5415 252.599 94.2945 252.599 94.2945C252.058 102.55 251.448 107.184 248.247 112.481L245.271 101.739Z" fill="#263238"/>
<path d="M254.057 101.956C253.574 105.273 251.596 108.045 249.35 109.639C245.972 112.038 243.974 108.246 243.711 104.322C243.475 100.79 243.822 96.387 247.79 95.547C251.7 94.719 254.609 98.164 254.057 101.956Z" fill="#EBB373"/>
<path opacity="0.2" d="M250.717 99.0033C250.106 98.3483 249.055 98.2373 248.229 98.5843C247.404 98.9313 246.787 99.6573 246.375 100.452C245.881 101.406 245.642 102.492 245.689 103.566" stroke="black" stroke-width="0.5" stroke-miterlimit="10" stroke-linecap="round" stroke-linejoin="round"/>
<path d="M242.269 85.0451C241.359 82.2781 239.532 79.6761 236.862 78.5131C235.6 77.9631 234.216 77.7581 232.845 77.6431C229.196 77.3371 231.614 76.1131 227.964 76.4091L224.556 77.2591C221.964 78.2911 217.185 81.0181 214.979 82.7261C211.478 85.4381 207.469 87.4941 203.219 88.7411C202.5 88.9521 201.644 89.2751 201.515 90.0141C201.384 90.7611 202.104 91.3651 202.769 91.7311C207.038 94.0821 212.591 93.8881 216.687 91.2461C215.76 93.9651 210.451 95.2901 212.409 95.4931C218.402 96.7971 225.035 94.5181 228.961 89.8061C228.956 90.6001 228.956 91.4211 229.27 92.1501C229.584 92.8791 230.302 93.4981 231.093 93.4371C231.733 93.3881 232.263 92.9251 232.672 92.4301C234.112 90.6891 234.637 88.3901 235.118 86.1831C237.681 88.8891 241.513 99.0331 244.461 101.313C249.515 94.5681 243.179 87.8121 242.269 85.0451Z" fill="#263238"/>
<path d="M227.524 114.355C228.784 113.641 230.371 113.55 231.695 114.15C231.879 114.233 232.098 114.203 232.208 114.015C232.302 113.854 232.259 113.586 232.074 113.502C230.499 112.788 228.655 112.852 227.146 113.707C226.726 113.945 227.103 114.593 227.524 114.355Z" fill="#263238"/>
<path d="M242.339 75.7198C242.053 74.4728 241.55 73.2608 240.876 72.1738C240.566 71.6738 239.857 71.4348 239.337 71.7698C238.836 72.0928 238.601 72.7738 238.933 73.3088C239.231 73.7888 239.491 74.2898 239.712 74.8098C239.674 74.7198 239.636 74.6308 239.599 74.5408C239.84 75.1158 240.031 75.7088 240.17 76.3168C240.302 76.8908 240.993 77.2838 241.554 77.1028C242.154 76.9098 242.481 76.3348 242.339 75.7198Z" fill="#263238"/>
<path d="M243.482 78.306C243.483 78.19 243.486 78.074 243.493 77.958C243.497 77.893 243.482 77.648 243.524 77.612C243.503 77.63 243.485 77.857 243.516 77.682C243.525 77.631 243.533 77.58 243.542 77.53C243.563 77.416 243.588 77.303 243.615 77.19C243.67 76.965 243.737 76.742 243.817 76.525C243.835 76.477 243.853 76.428 243.872 76.38C243.936 76.217 243.931 76.321 243.863 76.399C243.928 76.325 243.968 76.172 244.013 76.085C244.112 75.89 244.222 75.699 244.341 75.515C244.404 75.417 244.469 75.322 244.538 75.228C244.556 75.203 244.664 75.06 244.566 75.187C244.46 75.325 244.6 75.148 244.623 75.12C244.764 74.952 244.913 74.791 245.07 74.639C245.153 74.558 245.239 74.48 245.327 74.405C245.376 74.363 245.427 74.323 245.476 74.281C245.59 74.183 245.256 74.446 245.463 74.292C245.707 74.111 245.896 73.923 245.98 73.62C246.054 73.351 246.021 72.992 245.867 72.753C245.566 72.287 244.833 71.974 244.328 72.349C242.434 73.754 241.254 75.931 241.234 78.307C241.229 78.896 241.755 79.459 242.359 79.432C242.971 79.404 243.476 78.937 243.482 78.306Z" fill="#263238"/>
<path d="M331.189 158.466C331.189 158.466 337.36 159.01 341.459 166.082C345.557 173.154 349.576 178.94 349.576 178.94L336.319 187.78L331.189 158.466Z" fill="#263238"/>
<path opacity="0.7" d="M331.189 158.466C331.189 158.466 337.36 159.01 341.459 166.082C345.557 173.154 349.576 178.94 349.576 178.94L336.319 187.78L331.189 158.466Z" fill="white"/>
<path d="M338.894 219.506C337.416 218.517 335.528 218.442 333.75 218.424C320.445 218.29 307.127 219.523 294.073 222.097L291.782 223.226C289.974 222.175 287.557 222.884 286.037 224.319C284.516 225.754 283.687 227.755 282.904 229.694C276.138 246.457 269.697 263.397 265.122 280.886C264.063 284.934 263.154 289.448 265.145 293.128C267.468 297.422 272.806 298.934 277.613 299.789C293.316 302.581 309.354 302.754 325.304 302.786C329.18 302.794 333.325 302.715 336.519 300.519C340.992 297.444 342.052 291.389 342.574 285.986C344.478 266.245 344.299 246.3 341.968 226.605C341.653 223.958 341.108 220.989 338.894 219.506Z" fill="#263238"/>
<path d="M323.838 454.087L334.871 455.167L343.025 427.233L326.241 425.406L323.838 454.087Z" fill="#B97964"/>
<path d="M336.468 450.295H332.529C331.638 450.295 330.813 450.746 330.287 451.465C328.015 454.567 326.309 453.395 323.839 450.478C322.268 450.295 321.844 452.098 321.716 452.582L318.771 463.293C318.515 464.188 319.033 465.12 319.927 465.376C320.086 465.421 320.251 465.443 320.417 465.441C325.201 465.441 327.464 465.441 333.417 465.441H351.625C356.589 465.441 357.617 460.439 355.573 459.976C346.379 457.944 339.868 455.239 337.026 452.564C336.5 452.096 337.041 451.746 336.468 450.295Z" fill="#263238"/>
<path d="M345.017 453.341C345.432 453.043 345.68 452.566 345.686 452.055C345.721 451.781 345.596 451.511 345.365 451.361C344.13 450.487 339.205 452.788 338.653 453.058C338.592 453.08 338.543 453.128 338.521 453.19C338.48 453.304 338.539 453.429 338.653 453.47C339.863 453.756 341.1 453.916 342.344 453.946C343.275 454.034 344.212 453.822 345.017 453.341ZM345.055 451.733C345.155 451.795 345.207 451.913 345.184 452.029C345.163 452.398 344.985 452.74 344.695 452.968C343.576 453.804 340.876 453.444 339.423 453.174C341.468 452.274 344.374 451.258 345.055 451.733Z" fill="#005CB9"/>
<path d="M338.818 453.521C340.297 452.904 343.396 450.473 343.229 449.188C343.203 448.918 343.01 448.596 342.342 448.507C339.642 448.198 338.484 453.046 338.484 453.252C338.457 453.335 338.483 453.426 338.548 453.483C338.598 453.498 338.652 453.498 338.702 453.483L338.818 453.521ZM342.251 448.905C342.752 448.956 342.752 449.136 342.752 449.201C342.894 449.985 340.643 452.004 339.036 452.853C339.37 451.721 340.361 448.892 342.071 448.892L342.251 448.905Z" fill="#005CB9"/>
<path d="M339.203 453.335C337.846 453.52 336.588 454.331 335.858 455.49" stroke="#005CB9" stroke-width="0.5" stroke-miterlimit="10" stroke-linecap="round" stroke-linejoin="round"/>
<path d="M341.652 455.179C340.295 455.364 339.037 456.175 338.307 457.334" stroke="#005CB9" stroke-width="0.5" stroke-miterlimit="10" stroke-linecap="round" stroke-linejoin="round"/>
<path d="M344.698 456.728C343.341 456.913 342.082 457.724 341.353 458.883" stroke="#005CB9" stroke-width="0.5" stroke-miterlimit="10" stroke-linecap="round" stroke-linejoin="round"/>
<path opacity="0.3" d="M338.714 441.997L337.715 445.422L324.73 443.428L324.965 440.62L338.714 441.997Z" fill="black"/>
<path d="M285.604 454.972L296.637 456.053L304.792 428.119L288.007 426.292L285.604 454.972Z" fill="#B97964"/>
<path d="M298.235 451.181H294.296C293.405 451.181 292.58 451.632 292.053 452.351C289.781 455.453 288.074 454.281 285.603 451.364C284.032 451.181 283.61 452.984 283.481 453.468L280.536 464.18C280.28 465.074 280.798 466.007 281.692 466.263C281.851 466.309 282.016 466.33 282.181 466.328C286.965 466.328 289.228 466.328 295.181 466.328H313.389C318.353 466.328 319.381 461.326 317.337 460.863C308.143 458.831 301.633 456.126 298.791 453.451C298.267 452.982 298.808 452.631 298.235 451.181Z" fill="#263238"/>
<path d="M306.783 454.227C307.197 453.929 307.446 453.452 307.452 452.941C307.487 452.667 307.362 452.397 307.13 452.247C305.896 451.373 300.971 453.674 300.418 453.944C300.357 453.966 300.308 454.014 300.286 454.076C300.245 454.19 300.304 454.315 300.418 454.356C301.628 454.643 302.865 454.802 304.109 454.832C305.042 454.92 305.979 454.708 306.783 454.227ZM306.822 452.619C306.922 452.681 306.974 452.799 306.951 452.915C306.93 453.283 306.752 453.625 306.462 453.854C305.343 454.69 302.643 454.33 301.19 454.06C303.234 453.159 306.14 452.143 306.822 452.619Z" fill="#005CB9"/>
<path d="M300.585 454.407C302.064 453.79 305.163 451.359 304.996 450.074C304.97 449.804 304.777 449.483 304.109 449.393C301.409 449.084 300.251 453.932 300.251 454.138C300.224 454.221 300.25 454.312 300.315 454.369C300.365 454.384 300.419 454.384 300.469 454.369L300.585 454.407ZM304.018 449.79C304.519 449.842 304.519 450.022 304.519 450.086C304.66 450.87 302.41 452.889 300.803 453.738C301.137 452.606 302.128 449.777 303.838 449.777L304.018 449.79Z" fill="#005CB9"/>
<path d="M300.97 454.221C299.613 454.406 298.355 455.217 297.625 456.376" stroke="#005CB9" stroke-width="0.5" stroke-miterlimit="10" stroke-linecap="round" stroke-linejoin="round"/>
<path d="M303.418 456.063C302.061 456.248 300.802 457.059 300.073 458.218" stroke="#005CB9" stroke-width="0.5" stroke-miterlimit="10" stroke-linecap="round" stroke-linejoin="round"/>
<path d="M306.464 457.613C305.107 457.798 303.849 458.609 303.119 459.768" stroke="#005CB9" stroke-width="0.5" stroke-miterlimit="10" stroke-linecap="round" stroke-linejoin="round"/>
<path opacity="0.3" d="M286.497 444.314L286.732 441.505L300.482 442.882L299.482 446.308" fill="black"/>
<path opacity="0.2" d="M344.852 242.052C344.852 242.052 336.75 250.606 320.871 250.754C304.992 250.901 287.178 241.651 287.178 241.651L289.172 238.237L334.898 243.219L343.649 238.237L344.852 242.052Z" fill="black"/>
<path d="M346.242 246.959C346.242 246.959 355.892 286.49 360.25 321.664C361.578 332.384 361.831 346.721 359.485 357.275L341.859 444.899L319.68 442.677C323.166 404.887 328.023 358.278 329.414 338.447L303.919 259.103L346.242 246.959Z" fill="#005CB9"/>
<path opacity="0.2" d="M317.593 301.752C317.52 302.119 328.578 256.924 328.578 256.924C328.578 256.924 331.548 293.813 320.436 311.419L317.593 301.752Z" fill="black"/>
<path d="M285.248 349.487C285.457 347.254 285.665 342.748 285.867 336.815C285.837 336.812 285.803 336.81 285.773 336.807C285.466 329.037 282.047 293.261 281.451 270.231C281.391 255.519 283.785 245.239 286.868 239.951C287.027 239.68 287.173 239.432 287.306 239.212C287.822 238.358 288.141 237.883 288.141 237.883C288.872 237.966 289.597 238.037 290.318 238.097C290.588 238.12 290.856 238.141 291.122 238.161C318.133 240.156 337.946 229.503 337.946 229.503C341.16 235.155 342.719 233.983 346.243 246.959C343.896 250.342 336.692 270.198 323.198 274.634L321.628 293.008C321.025 304.351 319.804 315.56 318.841 325.635L317.9 336.655C317.85 337.376 317.802 338.091 317.759 338.792C317.377 345.105 302.006 448.058 302.006 448.058L281.451 447.758C281.451 447.758 282.422 379.718 285.248 349.487Z" fill="#005CB9"/>
<path opacity="0.2" d="M343.007 439.199L341.861 444.899L319.681 442.677L320.257 436.487L343.007 439.199Z" fill="black"/>
<path opacity="0.2" d="M302.005 448.058L302.872 442.242L281.45 441.985V447.758L302.005 448.058Z" fill="black"/>
<path d="M282.739 187.865L275.842 164.346C280.205 157.834 301.794 152.83 301.794 152.83L316.017 153.608C316.017 153.608 321.484 154.828 326.164 156.354C332.412 158.392 335.791 160.031 337.281 163.498C337.281 163.498 339.888 171.18 338.321 187.009C337.89 191.362 336.905 214.334 338.12 221.809L346.956 239.097C320.967 259.336 287.696 239.106 287.696 239.106C288.864 235.532 291.432 227.617 291.96 224.124C291.579 219.668 290.328 216.742 288.441 208.94C288.076 207.434 283.372 189.329 282.739 187.865Z" fill="#263238"/>
<path opacity="0.7" d="M282.739 187.865L275.842 164.346C280.205 157.834 301.794 152.83 301.794 152.83L316.017 153.608C316.017 153.608 321.484 154.828 326.164 156.354C332.412 158.392 335.791 160.031 337.281 163.498C337.281 163.498 339.888 171.18 338.321 187.009C337.89 191.362 336.905 214.334 338.12 221.809L346.956 239.097C320.967 259.336 287.696 239.106 287.696 239.106C288.864 235.532 291.432 227.617 291.96 224.124C291.579 219.668 290.328 216.742 288.441 208.94C288.076 207.434 283.372 189.329 282.739 187.865Z" fill="white"/>
<path opacity="0.2" d="M285.438 196.292H286.705L290.524 185.015L288.838 210.556L285.318 197.187L285.438 196.292Z" fill="black"/>
<path d="M312.728 228.429C306.292 224.01 298.284 221.933 290.511 222.666L286.706 232.657C297.348 242.252 310.362 243.539 324.683 243.092C326.7 235.682 319.164 232.848 312.728 228.429Z" fill="#263238"/>
<path d="M342.673 221.996C341.622 220.031 339.48 218.468 337.278 218.809C335.638 219.063 334.328 220.274 333.196 221.487C328.698 226.303 325.234 232.079 323.104 238.315L323.943 243.094C325.424 242.486 326.905 241.878 328.385 241.27C332.583 239.546 336.911 237.735 340.048 234.456C343.185 231.176 344.812 225.998 342.673 221.996Z" fill="#263238"/>
<path d="M331.03 239.122C331.03 242.443 328.338 245.136 325.016 245.136C321.695 245.136 319.002 242.444 319.002 239.122C319.002 235.801 321.694 233.108 325.016 233.108C328.338 233.108 331.03 235.801 331.03 239.122Z" fill="#263238"/>
<path d="M327.626 262.744C327.128 255.604 326.63 248.464 326.132 241.323L323.336 243.139C314.579 255.933 310.742 272.006 312.775 287.376C316.509 288.021 320.311 288.265 324.097 288.105C323.03 285.851 321.963 283.597 320.896 281.343C324.197 280.054 326.377 276.755 327.245 273.32C328.113 269.885 327.873 266.279 327.626 262.744Z" fill="#263238"/>
<path d="M339.777 270.282C341.374 268.104 341.671 265.23 341.501 262.535C340.961 253.966 336.002 245.794 328.651 241.357L327.456 240.418C331.726 253.299 330.895 267.239 330.018 280.781C332.888 280.2 335.758 279.619 338.628 279.038C337.743 277.262 336.839 275.222 337.539 273.366C337.989 272.172 339.022 271.312 339.777 270.282Z" fill="#263238"/>
<path d="M317.219 111.693C317.219 111.693 319.577 137.828 320.88 145.336C324.982 150.244 341.207 146.699 334.856 129.421C331.506 120.306 331.218 108.78 324.889 104.085C315.998 97.4914 317.219 111.693 317.219 111.693Z" fill="#263238"/>
<path d="M315.027 154.894C313.539 153.408 312.868 151.864 313.149 149.701C313.345 148.038 313.882 146.31 314.521 144.628L312.301 142.215L300.755 131.378C301.306 138.874 302.643 150.895 296.924 155.182L315.026 169.812V154.894H315.027Z" fill="#B97964"/>
<path opacity="0.2" d="M313.088 150.203C309.959 148.496 306.484 145.464 306.756 141.845C306.881 140.321 307.156 138.872 307.486 137.937L314.035 145.987C313.572 147.334 313.389 148.18 313.088 150.203Z" fill="black"/>
<path d="M297.728 119.434C299.191 130.84 299.57 135.685 305.693 141.472C314.903 150.176 328.459 146.644 330.4 135.215C332.147 124.929 329.461 108.005 318.052 103.602C306.81 99.266 296.264 108.028 297.728 119.434Z" fill="#B97964"/>
<path opacity="0.2" d="M322.745 145.222C313.715 141.109 310.175 142.226 310.837 144.504C311.139 145.543 315.21 146.188 315.21 146.188C315.21 146.188 316.124 146.274 316.556 146.305C316.945 146.333 317.194 146.55 317.175 146.569C316.864 146.894 322.441 145.622 322.745 145.222Z" fill="black"/>
<path opacity="0.3" d="M328.384 140.492C328.384 140.492 327.949 139.935 327.215 140.194C326.48 140.453 324.751 141.821 324.74 144.151C324.74 144.151 325.668 143.564 326.707 142.585C327.368 141.963 328.384 140.492 328.384 140.492Z" fill="black"/>
<path d="M313.248 123.455C313.257 124.529 313.874 125.44 314.625 125.492C315.376 125.543 315.978 124.714 315.969 123.641C315.96 122.568 315.343 121.656 314.592 121.604C313.841 121.552 313.239 122.381 313.248 123.455Z" fill="#263238"/>
<path d="M324.891 122.454C324.84 123.493 325.403 124.413 326.148 124.509C326.893 124.604 327.538 123.839 327.589 122.8C327.64 121.761 327.077 120.841 326.332 120.745C325.587 120.65 324.942 121.415 324.891 122.454Z" fill="#263238"/>
<path d="M311.534 121.691C311.68 121.7 311.826 121.651 311.935 121.542C313.622 119.829 315.633 120.31 315.656 120.316C315.954 120.388 316.244 120.208 316.298 119.905C316.35 119.602 316.149 119.296 315.847 119.22C315.742 119.194 313.218 118.588 311.125 120.714C310.917 120.926 310.929 121.284 311.152 121.513C311.259 121.621 311.397 121.682 311.534 121.691Z" fill="#263238"/>
<path d="M329.554 116.139C329.686 116.095 329.799 116.005 329.863 115.875C329.994 115.608 329.866 115.279 329.578 115.14C326.69 113.746 324.439 114.955 324.344 115.008C324.077 115.156 323.998 115.487 324.168 115.75C324.337 116.012 324.691 116.105 324.958 115.959C325.046 115.91 326.806 114.999 329.103 116.107C329.252 116.178 329.414 116.185 329.554 116.139Z" fill="#263238"/>
<path d="M306.741 100.787C302.811 101.433 300.338 101.997 297.242 103.934C294.146 105.871 290.835 110.588 289.029 114.184C286.456 119.31 286.267 125.609 286.15 131.597C286.073 135.535 286.085 139.82 288.088 142.934C289.433 145.026 291.523 146.276 293.666 146.851C295.81 147.426 298.03 147.389 300.225 147.325C302.037 147.272 304.242 146.889 304.913 144.861C305.969 141.672 301.987 138.712 302.521 135.339" fill="#263238"/>
<path d="M294.604 128.887C296.041 131.185 298.291 132.579 300.323 133.011C303.379 133.661 304.767 128.734 303.623 125.736C302.593 123.038 299.551 121.338 296.624 122.04C293.741 122.733 292.961 126.259 294.604 128.887Z" fill="#B97964"/>
<path d="M320.879 121.732C320.879 121.732 322.825 125.951 324.941 128.548C325.311 129.002 325.117 129.691 324.576 129.913C323.182 130.485 321.511 130.074 321.511 130.074L320.879 121.732Z" fill="#A24E3F"/>
<path d="M314.364 121.567L317.019 121.07C317.019 121.07 315.491 122.96 314.364 121.567Z" fill="#263238"/>
<path d="M326.061 120.744L328.74 120.406C328.74 120.406 327.103 122.202 326.061 120.744Z" fill="#263238"/>
<path d="M294.638 113.184C293.086 115.427 296.176 121.942 296.176 121.942C296.176 121.942 301.665 120.31 301.965 128.578C303.99 128.913 306.262 121.193 305.931 113.432C305.525 109.048 297.379 109.225 294.638 113.184Z" fill="#263238"/>
<path opacity="0.2" d="M298.812 124.889C297.842 124.517 296.835 125.158 296.516 125.959C296.13 126.929 296.664 129.182 299.636 129.889" stroke="black" stroke-width="0.5" stroke-miterlimit="10" stroke-linecap="round" stroke-linejoin="round"/>
<path d="M326.995 106.819C324.574 101.786 314.711 97.1101 303.37 101.97C293.124 106.345 288.77 121.381 296.175 121.943C303.58 122.505 315.508 113.539 315.508 113.539L326.995 106.819Z" fill="#263238"/>
<path d="M341.851 196.336L353.387 196.602L355.961 202.468L350.029 209.981C350.029 209.981 348.611 209.896 349.077 207.916C349.438 206.381 350.27 205.183 350.27 205.183L342.391 207.553C340.897 208.002 339.381 206.921 339.319 205.363L338.957 196.293L341.851 196.336Z" fill="#B97964"/>
<path d="M274.355 175.271C274.355 175.271 273.931 180.944 276.261 188.098C278.591 195.253 284.367 214.338 291.217 219.594C298.067 224.849 315.429 216.994 325.847 212.445C336.162 207.941 341.663 205.784 341.851 205.753L338.958 196.292L301.112 201.808L284.876 167.245C284.876 167.245 273.219 167.148 274.355 175.271Z" fill="#B97964"/>
<path opacity="0.2" d="M335.163 195.577C335.163 195.577 337.862 202.62 341.25 203.787C344.638 204.953 353.251 205.284 354.005 197.177L335.163 195.577Z" fill="black"/>
<path d="M275.842 164.347C268.738 171.214 276.683 197.786 276.683 197.786L299.366 191.81C299.366 191.81 293.976 171.792 288.556 166.746C283.964 162.493 279.742 160.456 275.842 164.347Z" fill="#263238"/>
<g opacity="0.7">
<path d="M275.842 164.347C268.738 171.214 276.683 197.786 276.683 197.786L299.366 191.81C299.366 191.81 293.976 171.792 288.556 166.746C283.964 162.493 279.742 160.456 275.842 164.347Z" fill="white"/>
</g>
<path d="M319.627 133.882C320.507 133.856 321.388 133.886 322.264 133.98C322.695 134.026 323.124 134.089 323.55 134.166C323.803 134.212 324.319 134.215 324.472 134.462C324.727 134.871 325.376 134.495 325.12 134.084C324.905 133.739 324.576 133.608 324.193 133.529C323.686 133.424 323.174 133.343 322.661 133.277C321.655 133.148 320.641 133.102 319.628 133.133C319.145 133.146 319.143 133.896 319.627 133.882Z" fill="#263238"/>
<path opacity="0.2" d="M313.089 150.803C313.09 150.821 311.896 151.191 312.182 152.479C312.468 153.767 312.918 153.93 312.918 153.93C312.918 153.93 311.603 155.341 313.089 156.894C313.089 156.894 313.92 157.753 315.535 157.528C315.535 157.528 319.01 163.354 321.832 163.579L322.691 163.742L330.783 180.697L322.211 150.201L313.089 150.803Z" fill="black"/>
<path d="M330.527 155.993C330.527 155.993 330.327 147.72 329.688 146.352C329.05 144.984 328.274 144.573 328.274 143.068C328.274 141.563 328.548 140.377 327.681 140.559C326.814 140.741 325.993 142.338 325.765 143.524C325.537 144.71 326.039 147.857 326.039 147.857C326.039 147.857 319.517 143.934 316.917 143.341C314.75 142.847 312.172 142.479 311.347 143.479C310.996 143.904 311.187 144.569 311.668 144.84C312.056 145.059 312.701 145.317 313.77 145.576C317.372 146.447 318.559 147.127 318.559 147.127C318.559 147.127 315.093 146.944 314.18 147.583C313.268 148.222 313.313 148.672 313.541 149.405C313.769 150.138 314.362 150.639 314.362 150.639C314.362 150.639 313.222 150.274 312.811 151.734C312.4 153.194 313.541 153.695 313.541 153.695C313.541 153.695 312.446 154.744 313.085 156.067C313.724 157.39 315.594 156.934 315.594 156.934C315.594 156.934 320.474 162.863 322.344 163C324.214 163.137 326.631 161.814 326.449 161.814C326.267 161.814 330.782 156.569 330.782 156.569L330.527 155.993Z" fill="#B97964"/>
<path d="M322.954 162.621C322.954 162.621 332.089 190.292 335.55 196.293C339.011 202.295 344.838 204.24 350.477 201.708C351.825 201.103 352.898 199.597 353.741 197.786C356.288 192.313 354.494 188.746 351.639 183.427C349.311 179.089 349.311 179.089 349.311 179.089L344.577 182.192L330.233 155.463L322.954 162.621Z" fill="#B97964"/>
</svg>
