<svg width="28" height="28" viewBox="0 0 28 28" fill="none" xmlns="http://www.w3.org/2000/svg">
<g clip-path="url(#clip0_6310_1227)">
<path d="M8.1865 26.6766L21.2271 25.8859C24.9391 23.5036 27.3987 19.3399 27.3987 14.6017C27.3987 7.20185 21.3999 1.20312 14.0001 1.20312C6.60029 1.20312 0.601562 7.20185 0.601562 14.6017C0.601562 19.9184 3.69835 24.5118 8.1865 26.6766Z" fill="#2A428C"/>
<path d="M12.4221 12.9403C12.4314 12.9269 12.4416 12.9145 12.4512 12.9014L10.4147 12.5401C10.2699 12.5144 10.218 12.6626 10.3473 12.7328L12.0735 13.6703C12.1299 13.4774 12.2342 13.2083 12.4221 12.9403Z" fill="#4FABF7"/>
<path d="M14.6284 11.9278C14.8015 11.9278 14.9664 11.9388 15.124 11.9594L14.7504 9.65838C14.7222 9.48497 14.5346 9.48497 14.5064 9.65838L14.1328 11.9594C14.2905 11.9388 14.4554 11.9278 14.6284 11.9278Z" fill="#73C3F9"/>
<path d="M14.7715 11.9305C14.6213 11.7655 14.6284 11.5631 14.6284 11.5631C14.6284 11.5631 14.6284 11.1461 14.6284 10.818C14.6284 10.5979 14.7783 10.4878 14.8772 10.439L14.7504 9.65838C14.7222 9.48497 14.5346 9.48497 14.5064 9.65838L14.1328 11.9594C14.2905 11.9388 14.4554 11.9278 14.6284 11.9278C14.6768 11.9277 14.7244 11.9288 14.7715 11.9305Z" fill="#4FABF7"/>
<path d="M17.1499 10.2239L15.6797 12.0861C16.0134 12.1982 16.3016 12.3692 16.542 12.5999L17.3578 10.3394C17.4159 10.1782 17.2559 10.0894 17.1499 10.2239Z" fill="#73C3F9"/>
<path d="M18.8411 12.5401L16.8047 12.9014C16.8134 12.9133 16.8226 12.9244 16.8311 12.9365C17.0204 13.2053 17.1254 13.4763 17.1822 13.6705L18.9086 12.7329C19.0379 12.6626 18.986 12.5144 18.8411 12.5401Z" fill="#73C3F9"/>
<path d="M13.5732 12.0861L12.103 10.2238C11.9969 10.0894 11.837 10.1782 11.8952 10.3394L12.7109 12.5998C12.9512 12.3691 13.2396 12.1981 13.5732 12.0861Z" fill="#4FABF7"/>
<path d="M12.9361 17.7411C13.5165 17.244 13.416 16.5545 13.4245 16.484C13.4127 16.4696 13.2957 16.3605 13.2445 16.2178L13.2321 16.1832C12.8671 16.0402 12.5491 15.7718 12.3766 15.4248L12.0664 16.5671C12.3888 16.9416 12.7024 17.3529 12.9361 17.7411Z" fill="#1E9EF4"/>
<path d="M16.7054 17.2357L16.9048 17.0698C17.0179 16.9758 17.0582 16.8205 17.0057 16.6832C16.9264 16.4755 16.8083 16.1344 16.702 15.7041C16.5257 15.9152 16.2892 16.0794 16.0253 16.1835L16.0128 16.2181C15.9357 16.433 15.6998 16.5993 15.689 16.6097C15.6908 16.639 15.1908 18.3669 16.0818 19.2579L16.1017 19.2778C16.4411 19.316 16.8358 19.3979 17.2232 19.5264L16.5985 17.6056C16.5552 17.472 16.5975 17.3255 16.7054 17.2357Z" fill="#4FABF7"/>
<path d="M16.7049 17.2357L16.9043 17.0698C17.0173 16.9758 17.0577 16.8205 17.0052 16.6832C16.9259 16.4755 16.8077 16.1344 16.7015 15.7041C16.5252 15.9152 16.2887 16.0794 16.0248 16.1835L16.0123 16.2181C15.9351 16.433 15.6993 16.5993 15.6884 16.6097C15.6898 16.6321 15.3992 17.6452 15.6584 18.5196C15.6792 18.477 15.6941 18.4219 15.7014 18.3513C15.7813 17.5716 16.598 17.6056 16.598 17.6056C16.5546 17.472 16.597 17.3255 16.7049 17.2357Z" fill="#1E9EF4"/>
<path d="M14.6266 12.3223C12.6296 12.3223 12.1061 13.7011 11.9805 14.2125C12.0168 14.4166 12.0918 14.5927 12.187 14.742C12.296 14.2825 12.7684 12.9821 14.6266 12.9821C16.4849 12.9821 16.9573 14.2825 17.0662 14.742C17.1615 14.5927 17.2365 14.4166 17.2728 14.2125C17.1472 13.7011 16.6237 12.3223 14.6266 12.3223Z" fill="#9BD8F9"/>
<path d="M14.4171 12.988C14.4381 12.9528 14.4546 12.9322 14.4546 12.9322C14.0131 12.6878 14.3588 12.3402 14.3588 12.3402C14.3553 12.3376 14.3529 12.3347 14.3495 12.332C12.5812 12.4534 12.1 13.7252 11.9805 14.212C12.0168 14.4161 12.0918 14.5922 12.187 14.7415C12.2917 14.2999 12.7329 13.082 14.4171 12.988Z" fill="#73C3F9"/>
<path d="M14.6273 12.3319C16.6526 12.3319 17.1555 13.7573 17.2679 14.2418C17.2865 14.1485 17.2976 14.0497 17.2976 13.9439C17.2976 13.9439 17.0671 11.875 14.6273 11.875C12.1875 11.875 11.957 13.9439 11.957 13.9439C11.957 14.0497 11.9682 14.1485 11.9867 14.2418C12.0992 13.7573 12.602 12.3319 14.6273 12.3319Z" fill="#C2E3FC"/>
<path d="M14.3585 12.3419C14.3591 12.3413 14.3595 12.3409 14.3595 12.3409C14.0971 12.138 14.3229 11.8893 14.3253 11.8867C12.1685 12.0495 11.957 13.9442 11.957 13.9442C11.957 14.05 11.9682 14.1488 11.9868 14.2421C12.094 13.7799 12.5577 12.4622 14.3585 12.3419Z" fill="#9BD8F9"/>
<path d="M14.6262 12.9287C12.3695 12.9287 12.1562 14.8478 12.1562 14.8478C12.1562 15.8607 13.1661 16.2451 13.1661 16.2451L13.2495 16.2383C13.2467 16.2316 13.2437 16.2248 13.2412 16.218C13.0665 15.7319 13.036 15.08 13.0334 14.7345C13.0327 14.6478 13.0919 14.5739 13.1774 14.5551C13.4818 14.4877 14.0601 14.292 14.5136 13.7382C14.5718 13.6671 14.6802 13.6667 14.7389 13.7382C15.1922 14.292 15.7707 14.4877 16.075 14.5551C16.1605 14.574 16.2198 14.6478 16.219 14.7345C16.2164 15.0799 16.186 15.7318 16.0112 16.218C16.0087 16.2248 16.0057 16.2316 16.0029 16.2383L16.0864 16.2451C16.0864 16.2451 17.0962 15.8607 17.0962 14.8478C17.0962 14.8478 16.8829 12.9287 14.6262 12.9287Z" fill="#73C3F9"/>
<path d="M13.2496 16.2386C13.2468 16.2318 13.2438 16.2251 13.2413 16.2182C13.0665 15.7321 13.036 15.0802 13.0334 14.7348C13.0328 14.648 13.092 14.5742 13.1774 14.5553C13.4679 14.491 14.0075 14.3091 14.4502 13.8117C14.4856 13.7005 14.5265 13.6285 14.5265 13.6285C14.1354 13.3471 14.4416 12.949 14.4536 12.9336C12.3592 13.029 12.1562 14.8481 12.1562 14.8481C12.1562 15.861 13.1661 16.2454 13.1661 16.2454L13.2496 16.2386Z" fill="#4FABF7"/>
<path d="M15.7744 16.5888C15.5051 16.8069 15.1367 16.9645 14.8903 17.0539C14.7193 17.1158 14.5326 17.1158 14.3617 17.0539C14.0697 16.9481 13.6067 16.7467 13.3403 16.4619C13.401 17.2466 12.9531 17.6199 12.9531 17.6199C12.9531 17.6199 12.9644 18.0197 13.7908 18.846C14.617 19.6723 16.1364 19.2014 16.1364 19.2014C15.3784 18.4433 15.6773 16.9792 15.7744 16.5888Z" fill="#9BD8F9"/>
<path d="M14.8903 17.0539C14.7193 17.1158 14.5326 17.1158 14.3617 17.0539C14.0697 16.9481 13.6067 16.7467 13.3403 16.4619C13.4009 17.2466 12.9531 17.6199 12.9531 17.6199C12.9531 17.6199 12.9644 18.0197 13.7908 18.846C14.1044 19.1596 14.5177 19.2861 14.9101 19.3227C14.625 19.1295 14.5492 18.6973 14.626 18.0715C14.7143 17.3515 15.6527 17.3121 15.6527 17.3121L15.6528 17.312C15.6824 16.9909 15.7406 16.7247 15.7744 16.5888C15.5051 16.8069 15.1367 16.9645 14.8903 17.0539Z" fill="#73C3F9"/>
<path d="M16.092 14.4767C15.7968 14.4114 15.2384 14.2223 14.8005 13.6873C14.7101 13.5769 14.5418 13.5769 14.4514 13.6873C14.0135 14.2222 13.4551 14.4114 13.1599 14.4767C13.0384 14.5036 12.9522 14.6105 12.9531 14.735C12.9558 15.0782 12.9862 15.7452 13.1658 16.2448C13.3202 16.6746 13.9845 16.9702 14.3616 17.1069C14.5326 17.1688 14.7193 17.1688 14.8902 17.1069C15.2674 16.9702 15.9316 16.6746 16.0861 16.2448C16.2657 15.7452 16.2961 15.0782 16.2987 14.735C16.2997 14.6105 16.2135 14.5036 16.092 14.4767Z" fill="#C2E3FC"/>
<path d="M14.8513 16.3646L14.7579 15.9609C14.6672 15.8703 14.7579 15.7864 14.7579 15.7864L14.5103 15.5342L14.5467 14.5583C14.2316 14.158 14.5188 13.6414 14.5258 13.6289C14.4982 13.6426 14.4725 13.6618 14.4514 13.6876C14.0135 14.2225 13.4551 14.4117 13.1599 14.4771C13.0384 14.504 12.9522 14.6109 12.9531 14.7353C12.9558 15.0785 12.9862 15.7456 13.1658 16.2452C13.3202 16.6749 13.9845 16.9705 14.3616 17.1072C14.5326 17.1692 14.7193 17.1692 14.8902 17.1072C14.94 17.0891 14.995 17.0681 15.053 17.0446C14.7119 16.9245 14.8513 16.3646 14.8513 16.3646Z" fill="#9BD8F9"/>
<path d="M14.7589 15.7866H14.5127C14.4277 15.7866 14.347 15.7499 14.2912 15.6859C14.2353 15.6219 14.2099 15.5369 14.2215 15.4527L14.3204 14.7311C14.3356 14.6207 14.4375 14.5434 14.5478 14.5585C14.6582 14.5737 14.7355 14.6754 14.7203 14.7859L14.6385 15.3829H14.7589C14.8705 15.3829 14.9608 15.4733 14.9608 15.5848C14.9607 15.6962 14.8703 15.7866 14.7589 15.7866Z" fill="#73C3F9"/>
<path d="M14.8518 16.3646H14.4011C14.2896 16.3646 14.1992 16.2743 14.1992 16.1628C14.1992 16.0513 14.2896 15.9609 14.4011 15.9609H14.8518C14.9633 15.9609 15.0536 16.0513 15.0536 16.1628C15.0536 16.2743 14.9633 16.3646 14.8518 16.3646Z" fill="#73C3F9"/>
<path d="M19.1695 21.1875C19.2742 21.8864 19.3387 22.8244 19.1417 23.6634C18.9156 24.6268 18.7739 25.8766 18.8051 27.1123C19.6582 26.7845 20.4697 26.3728 21.2284 25.8859C20.2865 24.2989 19.5838 22.2639 19.1695 21.1875Z" fill="#73C3F9"/>
<path d="M20.5328 24.5595C19.9354 23.2901 19.4743 21.9794 19.1696 21.1875C19.2743 21.8864 19.3387 22.8244 19.1417 23.6634C18.9156 24.6268 18.7739 25.8766 18.8051 27.1123C19.2078 26.9576 19.6009 26.7835 19.9839 26.5923C19.7613 26.3257 19.7588 25.8746 19.8407 25.3313C19.9146 24.8417 20.2942 24.6394 20.5328 24.5595Z" fill="#4FABF7"/>
<path d="M19.2467 23.6631C19.4061 22.984 19.3941 22.2404 19.3282 21.6108C19.189 21.2399 19.0732 20.9345 18.9822 20.7292C18.6548 19.9907 17.7576 19.5956 17.0574 19.3936C17.0383 19.6466 16.989 19.9605 16.8818 20.3319C16.3629 22.1273 14.9231 23.8351 13.8066 24.9516C13.0881 25.6701 12.2259 26.6445 11.5195 27.7698C12.3234 27.9203 13.1523 27.9998 13.9998 27.9998C15.7328 27.9998 17.389 27.6708 18.9093 27.0717C18.8822 25.8491 19.023 24.616 19.2467 23.6631Z" fill="#9BD8F9"/>
<path d="M14.1779 25.0524C14.1677 24.927 14.1019 24.8186 14.0051 24.75C13.938 24.819 13.8718 24.8863 13.8066 24.9515C13.0881 25.67 12.2259 26.6443 11.5195 27.7697C12.3234 27.9202 13.1523 27.9998 13.9998 27.9998C14.9221 27.9998 15.8223 27.9057 16.6921 27.7282C14.6069 27.4041 14.2373 25.7832 14.1779 25.0524Z" fill="#73C3F9"/>
<path d="M13.7927 18.7927C13.1482 18.1482 12.9995 17.7632 12.9653 17.6249L12.955 17.6199C12.955 17.6199 12.5355 16.9171 11.6924 16.0386C11.5893 15.9311 11.5354 15.7856 11.5473 15.6372C11.5499 15.6057 11.552 15.5711 11.5536 15.5342L11.4682 15.5955C11.4561 16.1042 11.38 16.8414 11.2519 17.4939C10.9387 19.0885 10.2213 20.8344 8.61729 20.5619C8.58338 20.5561 8.54948 20.5492 8.51562 20.542C8.5433 20.5764 8.57266 20.6094 8.60395 20.6407C9.23148 21.2682 8.38552 23.0416 9.29766 24.3559C9.43596 24.5552 9.43066 24.8199 9.27791 25.0084C9.27791 25.0084 11.5893 22.5331 13.4817 21.5203C14.7623 20.8349 15.4475 19.8944 15.571 19.2585C15.0535 19.3178 14.2952 19.2951 13.7927 18.7927Z" fill="#4FABF7"/>
<path d="M11.8156 22.2878C10.641 21.6795 10.6076 20.2346 10.6384 19.7004C10.6431 19.6183 10.6222 19.5381 10.5812 19.4688C10.1538 20.2194 9.52882 20.7167 8.61729 20.5618C8.58338 20.5561 8.54948 20.5492 8.51562 20.542C8.5433 20.5764 8.57266 20.6094 8.60395 20.6406C9.23148 21.2681 8.38552 23.0415 9.29766 24.3558C9.43596 24.5551 9.43066 24.8199 9.27791 25.0083C9.27791 25.0083 10.5666 23.6283 12.0074 22.5075C11.9724 22.4144 11.9064 22.3348 11.8156 22.2878Z" fill="#1E9EF4"/>
<path d="M16.139 19.2012L16.0702 19.167C15.9775 19.1911 15.7974 19.2325 15.5717 19.2584C15.3352 19.9229 14.763 20.7282 13.4825 21.4135C11.59 22.4264 9.27862 25.0082 9.27862 25.0082C8.98703 25.368 8.52995 25.9825 8.1875 26.6764C9.25505 27.1913 10.4014 27.5686 11.6034 27.7857C12.128 26.9525 12.8551 26.0176 13.8645 25.0082C16.4926 22.3802 17.0559 20.4303 17.1381 19.4172C16.5886 19.2504 16.139 19.2012 16.139 19.2012Z" fill="#73C3F9"/>
<path d="M13.8646 25.0083C13.9337 24.9392 14.0006 24.8708 14.0668 24.8026C14.0005 24.7332 13.9101 24.6865 13.8084 24.6752C12.2485 24.5023 12.0484 23.2103 12.036 22.6487C12.0344 22.5749 12.0138 22.504 11.9777 22.4424C10.5493 23.5892 9.27863 25.0084 9.27863 25.0084C8.98703 25.3682 8.52995 25.9826 8.1875 26.6765C9.25505 27.1914 10.4014 27.5687 11.6034 27.7859C12.128 26.9525 12.8552 26.0177 13.8646 25.0083Z" fill="#4FABF7"/>
<path d="M7.77259 16.6864C8.38093 16.9585 8.93502 16.813 8.98375 16.8112C8.98878 15.9009 8.8863 14.9597 8.82204 13.9014C8.37995 14.4171 7.47656 15.6167 7.47656 16.8086L7.55537 16.8338C7.56308 16.6937 7.68055 16.6453 7.77259 16.6864Z" fill="#1E9EF4"/>
<path d="M8.90636 16.8111C9.87477 16.4982 10.451 15.1489 10.7114 14.3588C10.7133 14.3531 10.716 14.3481 10.7182 14.3426C10.524 13.407 10.689 12.0081 10.4328 11.0981C10.239 10.4099 10.1294 9.71256 10.0719 9.25373C10.0343 8.9547 10.0555 8.6525 10.1225 8.35866C10.3071 7.54962 10.268 6.51241 10.08 5.92873C10.0389 5.80098 9.92092 5.71387 9.78666 5.71387C9.61686 5.71387 9.47921 5.85152 9.47921 6.02132V8.37529C9.47921 8.60492 9.29306 8.79108 9.06342 8.79108H8.47028C8.46317 9.41457 8.37606 12.0126 8.67563 13.5593C8.84358 14.4264 8.89477 15.7629 8.90636 16.8111Z" fill="#9BD8F9"/>
<path d="M10.1202 9.60352C9.8247 9.63403 9.36719 9.76036 9.36719 10.2511C9.36719 10.9757 9.76367 13.546 9.76367 14.4073C9.76367 15.1966 9.93599 15.3938 10.2699 15.4212C10.4661 15.0449 10.612 14.6611 10.7116 14.359C10.7134 14.3533 10.7162 14.3483 10.7183 14.3428C10.5242 13.4073 10.6891 12.0083 10.4329 11.0983C10.2835 10.5674 10.1842 10.0316 10.1202 9.60352Z" fill="#C2E3FC"/>
<path d="M11.5482 15.6443C11.5483 15.6419 11.5482 15.6396 11.5483 15.6373C11.573 15.3314 11.5664 14.7571 11.2725 14.2021C11.1472 13.9656 10.7962 13.9984 10.7124 14.2526C10.3652 15.3057 9.45712 17.3522 7.80704 16.6139C7.65834 16.5474 7.48881 16.6463 7.47869 16.8089C7.4531 17.2211 7.49132 17.9078 7.94534 18.3459C8.05318 18.4501 8.11154 18.595 8.10382 18.7448C8.08058 19.1958 8.10038 20.1361 8.60493 20.6407C11.3747 21.1111 11.5426 15.8514 11.5482 15.6443Z" fill="#73C3F9"/>
<path d="M8.10382 18.7443C8.08058 19.1953 8.10038 20.1356 8.60493 20.6402C9.54566 20.7999 10.1861 20.2984 10.6221 19.5586C10.6024 19.494 10.5674 19.4343 10.5186 19.3854C10.0105 18.8763 10.4379 17.8911 10.0435 17.4967C9.61927 17.0725 10.0409 15.7153 10.0434 15.707C9.5479 16.4746 8.81629 17.0649 7.80704 16.6134C7.65834 16.5468 7.48881 16.6457 7.47869 16.8083C7.4531 17.2205 7.49132 17.9072 7.94534 18.3454C8.05318 18.4496 8.11154 18.5946 8.10382 18.7443Z" fill="#4FABF7"/>
<path d="M9.11472 8.84426H8.44573C8.40624 8.84426 8.36823 8.83841 8.33203 8.82812V9.1475C8.33203 9.39502 8.53268 9.59566 8.78019 9.59566C9.02771 9.59566 9.22836 9.39502 9.22836 9.1475V8.82812C9.19221 8.83841 9.1542 8.84426 9.11472 8.84426Z" fill="#4FABF7"/>
<path d="M9.08087 9.47918C8.59212 9.3867 8.78019 8.89758 8.78019 8.89758C8.76844 8.87986 8.75755 8.86209 8.74716 8.84426H8.44573C8.40624 8.84426 8.36823 8.83841 8.33203 8.82812V9.1475C8.33203 9.39502 8.53268 9.59566 8.78019 9.59566C8.89608 9.59572 9.00135 9.55137 9.08087 9.47918Z" fill="#1E9EF4"/>
<path d="M9.11603 8.89798H8.44704C8.21741 8.89798 8.03125 8.71183 8.03125 8.4822V4.83984H9.53182V8.4822C9.53182 8.71183 9.34566 8.89798 9.11603 8.89798Z" fill="#73C3F9"/>
<path d="M8.03131 8.4822C8.03131 8.71183 8.21746 8.89798 8.44709 8.89798H8.78156C8.37447 8.28319 8.78156 7.616 8.78156 7.616V5.41598C8.5633 5.19772 8.78156 4.92204 8.78156 4.92204L8.71047 4.83984H8.03125V8.4822H8.03131Z" fill="#4FABF7"/>
<path d="M8.7478 5.41602H8.08854C7.90446 5.41602 7.75391 5.55886 7.75391 5.73342V7.29863C7.75391 7.4732 7.90452 7.61604 8.08854 7.61604H8.7478C8.93188 7.61604 9.08243 7.4732 9.08243 7.29863V5.73342C9.08243 5.55886 8.93182 5.41602 8.7478 5.41602Z" fill="#C2E3FC"/>
<path d="M8.41814 7.29863V5.73342C8.41814 5.55968 8.56738 5.41744 8.75026 5.41613C8.74938 5.41613 8.74862 5.41602 8.74774 5.41602H8.08854C7.90446 5.41602 7.75391 5.55886 7.75391 5.73342V7.29863C7.75391 7.4732 7.90452 7.61604 8.08854 7.61604H8.74774C8.74862 7.61604 8.74944 7.61593 8.75026 7.61593C8.56733 7.61462 8.41814 7.47243 8.41814 7.29863Z" fill="#9BD8F9"/>
<path d="M9.71658 4.37116H7.84348C7.77468 4.37116 7.7061 4.36613 7.63823 4.35645C7.63047 4.38991 7.625 4.4242 7.625 4.46002C7.625 4.7152 7.83188 4.92202 8.087 4.92202H9.473C9.72817 4.92202 9.935 4.7152 9.935 4.46002C9.935 4.4242 9.92953 4.38991 9.92177 4.35645C9.85401 4.36613 9.78538 4.37116 9.71658 4.37116Z" fill="#4FABF7"/>
<path d="M8.60467 4.48075C8.60467 4.44296 8.60932 4.4067 8.61561 4.37116H7.84348C7.77468 4.37116 7.7061 4.36613 7.63823 4.35645C7.63047 4.38991 7.625 4.4242 7.625 4.46002C7.625 4.7152 7.83188 4.92202 8.087 4.92202H8.78777C8.67669 4.82074 8.60467 4.66105 8.60467 4.48075Z" fill="#1E9EF4"/>
<path d="M8.00641 2.79408H9.55587C9.80502 2.59365 9.97516 2.27755 9.97516 1.84273C9.97516 1.09149 9.58174 0.432125 8.98969 0.059484C8.86227 -0.0207425 8.70023 -0.0193753 8.57286 0.0609059C7.94144 0.458922 7.55469 1.17101 7.59237 1.94659C7.61069 2.32568 7.77371 2.60869 8.00641 2.79408Z" fill="#FFDD40"/>
<path d="M7.59237 1.94623C7.6108 2.32532 7.77377 2.60838 8.00646 2.79372H8.69377V1.78736C8.33519 1.42877 8.63548 0.95425 8.63548 0.95425C8.20892 0.612945 8.57291 0.0605469 8.57291 0.0605469C7.94144 0.458562 7.55469 1.17065 7.59237 1.94623Z" fill="#FFB332"/>
<path d="M8.1544 2.7943H9.4074C9.53581 2.65452 9.61882 2.45879 9.61882 2.20493C9.61882 1.67785 9.34282 1.21531 8.92741 0.953846C8.83799 0.897572 8.72435 0.898502 8.63499 0.95483C8.19203 1.23406 7.92067 1.73369 7.94708 2.27778C7.95764 2.49549 8.03677 2.66748 8.1544 2.7943Z" fill="#FFB332"/>
<path d="M7.94708 2.27802C7.95769 2.49573 8.03677 2.66773 8.1544 2.79449H8.69329V1.78819C8.33471 1.4296 8.63499 0.955078 8.63499 0.955078C8.19203 1.23431 7.92067 1.73394 7.94708 2.27802Z" fill="#FF9100"/>
<path d="M8.33086 2.79382H9.23102C9.26624 2.72393 9.28729 2.64031 9.28729 2.54193C9.28729 2.22386 9.12071 1.94468 8.87002 1.78691C8.81605 1.75295 8.74747 1.7535 8.69355 1.78751C8.42623 1.95606 8.26245 2.25755 8.27841 2.5859C8.28219 2.66514 8.301 2.73443 8.33086 2.79382Z" fill="#FF4155"/>
<path d="M10.477 2.93136C10.4887 2.83057 10.4124 2.74121 10.311 2.74121H7.25512C7.15362 2.74121 7.07738 2.83057 7.08914 2.93136C7.13705 3.34228 6.89062 3.46134 6.89062 3.84738C6.89062 4.06727 7.08061 4.21165 7.27059 4.30106C7.4503 4.38561 7.64794 4.42487 7.84651 4.42487H9.71961C9.91818 4.42487 10.1159 4.38561 10.2955 4.30106C10.4855 4.21165 10.6755 4.06727 10.6755 3.84738C10.6755 3.46134 10.4291 3.34228 10.477 2.93136Z" fill="#9BD8F9"/>
<path d="M8.28105 3.89342C8.28105 3.44012 8.49685 3.30034 8.45485 2.81783C8.45256 2.7912 8.45463 2.76544 8.4595 2.74121H7.25512C7.15362 2.74121 7.07738 2.83057 7.08914 2.93136C7.13705 3.34228 6.89062 3.46134 6.89062 3.84738C6.89062 4.06727 7.08061 4.21165 7.27059 4.30106C7.4503 4.38561 7.64794 4.42487 7.84656 4.42487H8.61191C8.44616 4.31982 8.28105 4.15062 8.28105 3.89342Z" fill="#73C3F9"/>
<path d="M10.6743 3.64551H6.88935C6.77784 3.64551 6.6875 3.73591 6.6875 3.84736C6.6875 3.95887 6.77784 4.04921 6.88935 4.04921H10.6743C10.7858 4.04921 10.8761 3.95887 10.8761 3.84736C10.8761 3.73585 10.7858 3.64551 10.6743 3.64551Z" fill="#C2E3FC"/>
<path d="M14.0014 1.20312C13.8763 1.20312 13.7516 1.20515 13.6273 1.20859C12.7163 2.98424 11.7064 6.18182 15.3063 7.48645C20.4158 9.33811 22.144 13.0384 21.1934 16.3465C20.374 19.198 21.0446 22.8919 24.5117 22.9118C26.32 20.6279 27.3999 17.7411 27.3999 14.6018C27.4 7.20185 21.4013 1.20312 14.0014 1.20312Z" fill="#3C58A0"/>
<path d="M5.8257 11.263C5.8257 9.26132 4.1522 7.95309 2.81345 7.22656C1.41591 9.34204 0.601562 11.8766 0.601562 14.6018C0.601562 18.9328 2.65661 22.7836 5.84462 25.2329C6.58399 24.0713 7.252 21.9921 5.82575 19.5572C4.02101 16.4762 5.8257 14.599 5.8257 11.263Z" fill="#3C58A0"/>
<path d="M9.08841 2.29225C9.08841 2.40835 8.99429 2.50247 8.87819 2.50247C8.76209 2.50247 8.66797 2.40835 8.66797 2.29225C8.66797 2.17615 8.76209 2.08203 8.87819 2.08203C8.99429 2.08203 9.08841 2.17615 9.08841 2.29225Z" fill="#FF7186"/>
</g>
<defs>
<clipPath id="clip0_6310_1227">
<rect width="28" height="28" fill="white"/>
</clipPath>
</defs>
</svg>
