<svg width="28" height="28" viewBox="0 0 28 28" fill="none" xmlns="http://www.w3.org/2000/svg">
<path d="M25.5754 14.9176C25.5754 16.1282 25.3997 17.2998 25.0677 18.4127C25.0482 18.4713 25.0287 18.5494 25.0092 18.608C24.9896 18.6666 24.9701 18.7447 24.9506 18.8033C24.6772 19.6234 24.3257 20.4044 23.9157 21.1269C23.8181 21.3026 23.7009 21.4979 23.5838 21.6736C23.408 21.947 23.2128 22.2203 23.0175 22.4742C22.9394 22.5718 22.8808 22.6499 22.8027 22.7475C22.7441 22.8061 22.7051 22.8842 22.6465 22.9428C22.3341 23.3138 21.9826 23.6653 21.6311 23.9972C21.553 24.0558 21.4945 24.1339 21.4164 24.1925C21.3383 24.251 21.2602 24.3291 21.2016 24.3877C19.0147 26.2427 16.1834 27.3752 13.0983 27.3752C10.0131 27.3752 7.18185 26.2622 4.99493 24.3877C4.91683 24.3291 4.83873 24.251 4.76062 24.1925C4.68252 24.1339 4.62394 24.0558 4.54583 23.9972C4.19436 23.6653 3.84289 23.3138 3.53048 22.9428C3.4719 22.8842 3.41332 22.8061 3.37427 22.7475C3.29617 22.6499 3.21806 22.5523 3.15948 22.4546C2.96422 22.2008 2.76896 21.9274 2.59323 21.6541C2.47607 21.4783 2.35891 21.2831 2.26128 21.1073C1.83171 20.3654 1.49977 19.5843 1.2264 18.7837C1.20688 18.7447 1.18735 18.6861 1.18735 18.6471C1.16782 18.569 1.12877 18.4909 1.10925 18.3932C0.777302 17.2802 0.621094 16.1087 0.621094 14.8981C0.621094 8.84497 4.93636 3.78772 10.6575 2.63568C10.8528 2.59663 11.048 2.55758 11.2237 2.53805C11.8291 2.44042 12.4539 2.40137 13.0983 2.40137C13.7426 2.40137 14.3674 2.44042 14.9728 2.53805C15.1094 2.55758 15.2266 2.5771 15.3633 2.59663C15.4219 2.61615 15.5 2.61615 15.5585 2.63568C21.2602 3.78772 25.5754 8.84497 25.5754 14.9176Z" fill="#A5D9EB"/>
<path d="M13.0825 1.83496C5.87735 1.83496 0 7.71231 0 14.9174C0 15.6204 0.0585781 16.3233 0.156208 16.9872V17.0458V17.0653L0.175735 17.1239L0.195261 17.202C0.195261 17.241 0.214787 17.2606 0.214787 17.2996L0.253839 17.4949C0.488152 18.7055 0.898199 19.8771 1.48398 20.9705L1.52303 21.0681L1.56209 21.1072C1.56209 21.1072 1.60114 21.1658 1.60114 21.1853L1.62066 21.2439L1.65972 21.2829C1.67924 21.3415 1.71829 21.3806 1.73782 21.4196C4.0419 25.481 8.39621 27.9999 13.0825 27.9999C17.7687 27.9999 22.123 25.481 24.4271 21.4196C24.4662 21.361 24.4857 21.322 24.5247 21.2634L24.5638 21.2244L24.5833 21.1658C24.6028 21.1462 24.6419 21.0681 24.6419 21.0681L24.681 21.0291L24.7005 20.951C24.9348 20.5019 25.1496 20.0137 25.3448 19.5061C25.3839 19.3694 25.4425 19.2327 25.4815 19.1155C25.4815 19.096 25.5206 19.0179 25.5206 19.0179C25.5401 18.9593 25.5596 18.8812 25.5792 18.8226L25.6182 18.725C25.6377 18.6664 25.6573 18.6079 25.6768 18.5493L25.6963 18.4712V18.4516L25.7158 18.354C25.7158 18.3345 25.7354 18.315 25.7354 18.2954C25.7354 18.2759 25.7549 18.2564 25.7549 18.2173C26.0283 17.1434 26.1845 16.0304 26.1845 14.8979C26.1649 7.69278 20.2876 1.83496 13.0825 1.83496ZM25.1691 18.1002C25.1691 18.1197 25.1691 18.1392 25.1496 18.1588C25.1496 18.1783 25.1496 18.1783 25.1301 18.1978C25.1105 18.2369 25.1105 18.2564 25.1105 18.2954C25.1105 18.315 25.091 18.3345 25.091 18.354C25.0715 18.4126 25.0519 18.4907 25.0324 18.5493C25.0129 18.5883 25.0129 18.6274 24.9934 18.6664C24.9738 18.725 24.9543 18.8031 24.9348 18.8617C24.9348 18.8812 24.9153 18.9007 24.9153 18.9203C24.8762 19.057 24.8176 19.1741 24.7786 19.3108C24.6028 19.7989 24.3881 20.2676 24.1342 20.7167C24.1147 20.7557 24.0952 20.7753 24.0952 20.8143C24.0756 20.8534 24.0561 20.8729 24.0366 20.9119C23.9975 20.9705 23.9585 21.0486 23.9194 21.1072C21.7716 24.8757 17.7101 27.3946 13.0825 27.3946C8.45479 27.3946 4.39337 24.8562 2.2455 21.1072C2.20645 21.0486 2.16739 20.9705 2.12834 20.9119C2.10882 20.8729 2.08929 20.8534 2.06976 20.8143C2.05024 20.7753 2.03071 20.7557 2.01119 20.7167C1.46446 19.6818 1.05441 18.5493 0.820095 17.3777C0.800569 17.3191 0.800569 17.241 0.781043 17.1825C0.781043 17.1434 0.761517 17.1239 0.761517 17.1043C0.761517 17.0653 0.741991 17.0458 0.741991 17.0067C0.741991 17.0067 0.741991 17.0067 0.741991 16.9872C0.741991 16.9481 0.741991 16.9286 0.722465 16.9091C0.624834 16.2647 0.566256 15.6008 0.566256 14.9174C0.566256 8.02473 6.15071 2.42074 13.0629 2.42074C19.9556 2.42074 25.5596 8.02473 25.5596 14.9174C25.5792 16.0109 25.4425 17.0848 25.1691 18.1002Z" fill="#244964"/>
<path d="M16.8669 8.04452C16.9255 8.04452 16.9646 8.04452 17.0232 8.06404V8.04452C17.0232 7.53684 17.4332 7.12679 17.9409 7.12679C18.1361 7.12679 18.3119 7.18537 18.4681 7.30253C18.6438 6.85343 19.0929 6.52148 19.6201 6.52148C20.3035 6.52148 20.8503 7.06821 20.8503 7.75163C20.8503 7.86878 20.8307 7.98594 20.7917 8.08357C20.8893 8.04452 20.9869 8.02499 21.1041 8.02499C21.6118 8.02499 22.0218 8.43504 22.0218 8.94272C22.0218 9.45039 21.6118 9.86044 21.1041 9.86044H16.8669C16.3593 9.86044 15.9492 9.45039 15.9492 8.94272C15.9687 8.45457 16.3788 8.04452 16.8669 8.04452Z" fill="white"/>
<path d="M7.26462 9.97823C7.22557 9.97823 7.18652 9.97823 7.14746 9.99775C7.14746 9.99775 7.14746 9.99775 7.14746 9.97823C7.14746 9.60723 6.85457 9.31434 6.48358 9.31434C6.3469 9.31434 6.21021 9.35339 6.09306 9.45102C5.95637 9.11908 5.62443 8.88477 5.25344 8.88477C4.74576 8.88477 4.33571 9.29481 4.33571 9.80249C4.33571 9.8806 4.35524 9.97823 4.37476 10.0563C4.29666 10.0368 4.23808 10.0173 4.14045 10.0173C3.76945 10.0173 3.47656 10.3102 3.47656 10.6812C3.47656 11.0522 3.76945 11.3451 4.14045 11.3451H7.26462C7.63562 11.3451 7.92851 11.0522 7.92851 10.6812C7.94803 10.2906 7.63562 9.97823 7.26462 9.97823Z" fill="white"/>
<path d="M5.70312 18.6084H20.8358V19.5847H5.70312V18.6084Z" fill="#CDB5A2"/>
<path d="M11.207 1.24902H15.3466V2.75253H11.207V1.24902Z" fill="#D1D3D2"/>
<path d="M13.2771 0.195312C12.7499 0.195312 12.3008 0.624886 12.3008 1.17162V1.24972H14.2534V1.17162C14.2534 0.644412 13.8043 0.195312 13.2771 0.195312Z" fill="#E7E7E7"/>
<path d="M17.1653 14.3905H19.4108C17.7511 14.3905 17.3215 12.4379 17.2825 12.2621L15.5446 2.7334H10.9951L9.25725 12.2621C9.23773 12.4379 8.80815 14.3905 7.14844 14.3905H9.39394H17.1653Z" fill="#E7E7E7"/>
<path d="M6.79688 14.3896H19.7622V15.1512H6.79688V14.3896Z" fill="#E7E7E7"/>
<path d="M20.1719 15.1719H6.38654L5.70312 18.6085H20.8358L20.1719 15.1719Z" fill="#D1D3D2"/>
<path d="M12.3203 15.8545H14.2339V18.6077H12.3203V15.8545Z" fill="#4C4744"/>
<path d="M23.9211 21.1468C23.8234 21.3225 23.7063 21.5178 23.5891 21.6935C23.4134 21.9669 23.2181 22.2402 23.0229 22.4941V21.9669H22.4566V21.1663H21.8708V20.3657H21.2265V19.5652H20.8555V18.5889H23.7063L23.9211 21.1468Z" fill="#D1D3D2"/>
<path d="M25.0114 18.6084C24.9918 18.667 24.9723 18.7451 24.9528 18.8037C24.6794 19.6237 24.328 20.4048 23.9179 21.1273L23.6836 18.5889H25.0114V18.6084Z" fill="#E7E7E7"/>
<path d="M24.3705 18.6086H22.125L22.5546 15.7578H23.9604L24.3705 18.6086Z" fill="#E7E7E7"/>
<path d="M23.6053 15.7574H22.8828V14.7811C22.8828 14.5078 23.0976 14.293 23.371 14.293H23.6053V15.7574Z" fill="#4C4744"/>
<path d="M5.7023 18.6084V19.5847H5.31178V20.3853H4.68695V21.1858H4.10116V21.9864H3.53491V22.787H3.3787C3.30059 22.6893 3.22249 22.5917 3.16391 22.4941C2.96865 22.2402 2.77339 21.9669 2.59766 21.6935L2.89055 18.6084H5.7023Z" fill="#D1D3D2"/>
<path d="M2.87064 18.6084L2.57775 21.6935C2.4606 21.5178 2.34344 21.3225 2.24581 21.1468C1.81624 20.4048 1.48429 19.6238 1.21093 18.8232C1.1914 18.7841 1.17188 18.7256 1.17188 18.6865V18.6279H2.87064V18.6084Z" fill="#E7E7E7"/>
<path d="M2.1875 18.6086H4.41347L4.00342 15.7578H2.59755L2.1875 18.6086Z" fill="#E7E7E7"/>
<path d="M2.92578 15.7574H3.64825V14.7811C3.64825 14.5078 3.43346 14.293 3.16009 14.293H2.92578V15.7574Z" fill="#4C4744"/>
<path d="M4.6875 20.3857H21.8509V21.1863H4.6875V20.3857Z" fill="#CFD1D3"/>
<path d="M5.32812 19.5654H21.2223V20.366H5.32812V19.5654Z" fill="#E7E7E7"/>
<path d="M4.09766 21.1855H22.4326V21.9861H4.09766V21.1855Z" fill="#E7E7E7"/>
<path d="M3.53516 21.9863H22.7879V22.7869H3.53516V21.9863Z" fill="#CFD1D3"/>
<path d="M22.7878 22.7871C22.7292 22.8457 22.6902 22.9238 22.6316 22.9824C22.3192 23.3534 21.9677 23.7048 21.6163 24.0368C21.5382 24.0954 21.4796 24.1735 21.4015 24.232H4.76526C4.68715 24.1735 4.62857 24.0954 4.55047 24.0368C4.199 23.7048 3.84753 23.3534 3.53511 22.9824C3.47654 22.9238 3.41796 22.8457 3.37891 22.7871H22.7878Z" fill="#CDB5A2"/>
<path d="M21.4018 24.2324C21.3237 24.291 21.2456 24.3691 21.187 24.4277C19.0001 26.2827 16.1688 27.4152 13.0837 27.4152C9.99861 27.4152 7.16733 26.3022 4.98041 24.4277C4.9023 24.3691 4.8242 24.291 4.74609 24.2324H21.4018Z" fill="#C7C2C2"/>
<path d="M4.54986 24.0366C4.62796 24.0952 4.68654 24.1733 4.76465 24.2319C4.84275 24.2904 4.92085 24.3685 4.99896 24.4271H21.1861C21.2642 24.3685 21.3423 24.2904 21.4009 24.2319C21.479 24.1733 21.5375 24.0952 21.6156 24.0366H4.54986ZM24.3493 18.4131L23.9393 15.5623H23.6073V14.1174H23.1777C22.8067 14.1174 22.4943 14.4298 22.4943 14.8008V15.5818H22.1819L21.7719 18.4326H20.8151L20.1317 14.9765H19.7607V14.1955H19.2139C17.7104 14.1955 17.3199 12.4381 17.2809 12.2233L15.5235 2.63602L15.504 2.53839H15.3283V1.03488H14.2153C14.1567 0.4491 13.649 0 13.0632 0C12.4579 0 11.9698 0.4491 11.9112 1.03488H10.7982V2.53839H10.6225L10.6029 2.63602L8.8456 12.2233C8.8456 12.4381 8.43555 14.1955 6.95157 14.1955H6.40484V14.9765H6.03384L5.35043 18.4131H4.39365L3.9836 15.5623H3.67119V14.7812C3.67119 14.4102 3.3783 14.0978 2.98777 14.0978H2.5582V15.5623H2.22626L1.81621 18.4131H1.07422C1.09374 18.4912 1.11327 18.5888 1.15232 18.6669C1.17185 18.7255 1.17185 18.7646 1.19138 18.8036H2.44104L2.26531 20.6976L2.22626 21.1272C2.32389 21.3225 2.44104 21.4982 2.5582 21.6739L2.61678 21.0101L2.83157 18.7841H5.31138V19.3699H4.92086V20.1704H4.29602V20.971H3.71024V21.7716H3.14398V22.494C3.22209 22.5917 3.28067 22.6893 3.35877 22.7869C3.41735 22.8455 3.4564 22.9236 3.51498 22.9822H22.6115C22.6701 22.9236 22.7286 22.8455 22.7677 22.7869C22.8458 22.6893 22.9239 22.6112 22.9825 22.5136V21.7911H22.4553V20.9905H21.8695V20.19H21.2251V19.3894H20.8541V18.8036H23.3339L23.5683 21.3615L23.6073 21.6935C23.7245 21.5177 23.8416 21.3225 23.9393 21.1467L23.9197 21.0296L23.7245 18.8231H24.9741C24.9937 18.7646 25.0132 18.6864 25.0327 18.6279C25.0522 18.5693 25.0718 18.4912 25.0913 18.4326H24.3493V18.4131ZM2.94872 14.5079H2.98777C3.14398 14.5079 3.28066 14.6446 3.28066 14.8008V15.5818H2.94872V14.5079ZM2.20673 18.4131L2.5582 15.9528H3.63213L3.9836 18.4131H2.20673ZM13.0828 0.390521C13.4733 0.390521 13.7857 0.683413 13.8443 1.03488H12.3212C12.3798 0.683413 12.6922 0.390521 13.0828 0.390521ZM11.2083 1.44493H14.9573V2.55792H11.2083V1.44493ZM9.25564 12.3014L10.9544 2.94844H15.172L16.8903 12.321C16.9294 12.4967 17.1637 13.6097 17.9838 14.215H8.16218C8.98228 13.5901 9.23612 12.4772 9.25564 12.3014ZM6.79536 14.586H19.3701V14.9765H6.79536V14.586ZM6.34626 15.367H19.7997L20.405 18.4131H14.2348V15.6599H11.9307V18.4131H5.76048L6.34626 15.367ZM13.278 17.4954V16.9682H13.8443V17.4954H13.278ZM13.8443 17.8859V18.4131H13.278V17.8859H13.8443ZM13.278 16.5776V16.0504H13.8443V16.5776H13.278ZM12.3212 17.4954V16.9682H12.8875V17.4954H12.3212ZM12.8875 17.8859V18.4131H12.3212V17.8859H12.8875ZM12.3212 16.5776V16.0504H12.8875V16.5776H12.3212ZM5.72142 18.8036H20.4636V19.3894H5.72142V18.8036ZM5.3309 19.7604H20.8346V20.1704H5.3309V19.7604ZM22.631 22.1816V22.5917H3.55403V22.1816H22.631ZM22.0647 21.381V21.7911H4.10076V21.381H22.0647ZM21.479 20.5805V20.9905H4.68654V20.5805H21.479ZM22.9044 14.7812C22.9044 14.625 23.0411 14.4883 23.1973 14.4883H23.2363V15.5623H22.9044V14.7812ZM22.1624 18.4131L22.5138 15.9528H23.5878L23.9393 18.4131H22.1624Z" fill="#244964"/>
</svg>
