<svg width="28" height="28" viewBox="0 0 28 28" fill="none" xmlns="http://www.w3.org/2000/svg">
<path d="M25.332 19.9939C25.332 20.0377 25.3758 20.1252 25.4633 20.1252C25.507 20.1252 25.5945 20.0814 25.5945 19.9939V14.1752C25.5945 14.0877 25.5508 14.0439 25.4633 14.0439C25.3758 14.0439 25.332 14.0877 25.332 14.1752V19.9939Z" fill="#455A64"/>
<path d="M24.0195 20.082C24.0195 20.1695 24.0633 20.2133 24.1508 20.2133C24.1945 20.2133 24.282 20.1695 24.282 20.082V13.8695C24.282 13.782 24.2383 13.7383 24.1508 13.7383C24.0633 13.7383 24.0195 13.782 24.0195 13.8695V20.082Z" fill="#455A64"/>
<path d="M22.6602 20.0814C22.6602 20.1689 22.7039 20.2127 22.7914 20.2127C22.8789 20.2127 22.9227 20.1689 22.9227 20.0814V13.5189C22.9227 13.4314 22.8789 13.3877 22.7914 13.3877C22.7477 13.3877 22.6602 13.4314 22.6602 13.5189V20.0814Z" fill="#455A64"/>
<path d="M21.3047 20.082C21.3047 20.1695 21.3484 20.2133 21.4359 20.2133C21.5234 20.2133 21.5672 20.1695 21.5672 20.082V12.3383C21.5672 12.2508 21.5234 12.207 21.4359 12.207C21.3922 12.207 21.3047 12.2508 21.3047 12.3383V20.082Z" fill="#455A64"/>
<path d="M19.9492 20.0816C19.9492 20.1691 19.993 20.2129 20.0805 20.2129C20.1242 20.2129 20.2117 20.1691 20.2117 20.0816V10.0629C20.2117 9.97539 20.168 9.93164 20.0805 9.93164C19.993 9.93164 19.9492 9.97539 19.9492 10.0629V20.0816Z" fill="#455A64"/>
<path d="M26.7742 20.082C26.7742 20.1695 26.7305 20.2133 26.643 20.2133C26.5555 20.2133 26.5117 20.1695 26.5117 20.082V13.8695C26.5117 13.782 26.5555 13.7383 26.643 13.7383C26.6867 13.7383 26.7742 13.782 26.7742 13.8695V20.082Z" fill="#455A64"/>
<path d="M12.0297 14.2623C8.35469 14.2623 5.33594 10.0623 5.33594 4.94355C5.33594 4.85605 5.42344 4.76855 5.51094 4.76855C5.59844 4.76855 5.68594 4.85605 5.68594 4.94355C5.68594 9.88731 8.52969 13.8686 11.9859 13.8686C15.4859 13.8686 18.2859 9.84355 18.2859 4.94355C18.2859 4.85605 18.3734 4.76855 18.4609 4.76855C18.5484 4.76855 18.6359 4.85605 18.6359 4.94355C18.7234 10.1061 15.7047 14.2623 12.0297 14.2623Z" fill="#455A64"/>
<path d="M11.8984 19.993C11.8984 20.0367 11.9422 20.1242 12.0297 20.1242C12.0734 20.1242 12.1609 20.0805 12.1609 19.993V14.1742C12.1609 14.0867 12.1172 14.043 12.0297 14.043C11.9422 14.043 11.8984 14.0867 11.8984 14.1742V19.993Z" fill="#455A64"/>
<path d="M10.6289 20.0811C10.6289 20.1686 10.6727 20.2123 10.7602 20.2123C10.8477 20.2123 10.8914 20.1686 10.8914 20.0811V13.8686C10.8914 13.7811 10.8477 13.7373 10.7602 13.7373C10.7164 13.7373 10.6289 13.7811 10.6289 13.8686V20.0811Z" fill="#455A64"/>
<path d="M9.22656 20.0805C9.22656 20.168 9.27031 20.2117 9.35781 20.2117C9.44531 20.2117 9.48906 20.168 9.48906 20.0805V13.518C9.48906 13.4305 9.44531 13.3867 9.35781 13.3867C9.31406 13.3867 9.22656 13.4305 9.22656 13.518V20.0805Z" fill="#455A64"/>
<path d="M7.87109 20.0811C7.87109 20.1686 7.91484 20.2123 8.00234 20.2123C8.04609 20.2123 8.13359 20.1686 8.13359 20.0811V12.3373C8.13359 12.2498 8.08984 12.2061 8.00234 12.2061C7.91484 12.2061 7.87109 12.2498 7.87109 12.3373V20.0811Z" fill="#455A64"/>
<path d="M6.51562 20.0807C6.51562 20.1682 6.55938 20.2119 6.64688 20.2119C6.69063 20.2119 6.77813 20.1682 6.77813 20.0807V10.0619C6.77813 9.97441 6.73438 9.93066 6.64688 9.93066C6.55938 9.93066 6.51562 9.97441 6.51562 10.0619V20.0807Z" fill="#455A64"/>
<path d="M13.3406 20.0811C13.3406 20.1686 13.2969 20.2123 13.2094 20.2123C13.1656 20.2123 13.0781 20.1686 13.0781 20.0811V13.8686C13.0781 13.7811 13.1219 13.7373 13.2094 13.7373C13.2969 13.7373 13.3406 13.7811 13.3406 13.8686V20.0811Z" fill="#455A64"/>
<path d="M14.7391 20.0805C14.7391 20.168 14.6953 20.2117 14.6078 20.2117C14.5203 20.2117 14.4766 20.168 14.4766 20.0805V13.518C14.4766 13.4305 14.5203 13.3867 14.6078 13.3867C14.6516 13.3867 14.7391 13.4305 14.7391 13.518V20.0805Z" fill="#455A64"/>
<path d="M16.0984 20.0811C16.0984 20.1686 16.0547 20.2123 15.9672 20.2123C15.9234 20.2123 15.8359 20.1686 15.8359 20.0811V12.3373C15.8359 12.2498 15.8797 12.2061 15.9672 12.2061C16.0109 12.2061 16.0984 12.2498 16.0984 12.3373V20.0811Z" fill="#455A64"/>
<path d="M17.4539 20.0807C17.4539 20.1682 17.4102 20.2119 17.3227 20.2119C17.2789 20.2119 17.1914 20.1682 17.1914 20.0807V10.0619C17.1914 9.97441 17.2352 9.93066 17.3227 9.93066C17.4102 9.93066 17.4539 9.97441 17.4539 10.0619V20.0807Z" fill="#455A64"/>
<path d="M19.1648 22.8373C19.1648 23.0561 18.9898 23.2311 18.7711 23.2311H18.6398C18.4211 23.2311 18.2461 23.0561 18.2461 22.8373V2.75605C18.2461 2.5373 18.4211 2.3623 18.6398 2.3623H18.7711C18.9898 2.3623 19.1648 2.5373 19.1648 2.75605V22.8373Z" fill="#005CB9"/>
<path d="M19.1648 2.75586V22.8371C19.1648 23.0559 18.9898 23.2309 18.7711 23.2309H18.6398C18.4211 23.2309 18.2461 23.0559 18.2461 22.8371" fill="#1C355E"/>
<path d="M19.3391 2.53741C19.3391 2.75616 19.1641 2.88741 18.9891 2.88741H18.4203C18.2016 2.88741 18.0703 2.71241 18.0703 2.53741C18.0703 2.31866 18.2453 2.18741 18.4203 2.18741H18.9891C19.1641 2.14366 19.3391 2.31866 19.3391 2.53741Z" fill="#004993"/>
<path d="M19.2945 24.8936V23.0998C19.2945 22.8811 19.1195 22.7061 18.9008 22.7061H18.507C18.2883 22.7061 18.1133 22.8811 18.1133 23.0998V24.8936H19.2945Z" fill="#1C355E"/>
<path d="M5.73125 22.8373C5.73125 23.0561 5.55625 23.2311 5.3375 23.2311H5.20625C4.9875 23.2311 4.8125 23.0561 4.8125 22.8373V2.75605C4.8125 2.5373 4.9875 2.3623 5.20625 2.3623H5.3375C5.55625 2.3623 5.73125 2.5373 5.73125 2.75605V22.8373Z" fill="#005CB9"/>
<path d="M5.73125 2.75586V22.8371C5.73125 23.0559 5.55625 23.2309 5.3375 23.2309H5.20625C4.9875 23.2309 4.8125 23.0559 4.8125 22.8371" fill="#1C355E"/>
<path d="M5.94844 2.53741C5.94844 2.75616 5.77344 2.88741 5.59844 2.88741H5.02969C4.81094 2.88741 4.67969 2.71241 4.67969 2.53741C4.67969 2.31866 4.85469 2.18741 5.02969 2.18741H5.59844C5.77344 2.14366 5.94844 2.31866 5.94844 2.53741Z" fill="#004993"/>
<path d="M5.86094 24.8936V23.0998C5.86094 22.8811 5.68594 22.7061 5.46719 22.7061H5.07344C4.85469 22.7061 4.67969 22.8811 4.67969 23.0998V24.8936H5.86094Z" fill="#1C355E"/>
<path d="M22.5313 20.4752C22.5313 20.6939 22.3563 20.8689 22.1375 20.8689H0.6125C0.39375 20.8689 0.21875 20.6939 0.21875 20.4752V19.9064C0.21875 19.6877 0.39375 19.5127 0.6125 19.5127H22.1813C22.4 19.5127 22.575 19.6877 22.575 19.9064V20.4752H22.5313Z" fill="#455A64"/>
<path d="M27.7813 20.4752C27.7813 20.6939 27.6063 20.8689 27.3875 20.8689H5.8625C5.64375 20.8689 5.46875 20.6939 5.46875 20.4752V19.9064C5.46875 19.6877 5.64375 19.5127 5.8625 19.5127H27.4313C27.65 19.5127 27.825 19.6877 27.825 19.9064V20.4752H27.7813Z" fill="#455A64"/>
<path d="M9.88828 4.4625C9.88828 4.6375 9.75703 4.76875 9.58203 4.76875H5.73203C5.55703 4.76875 5.42578 4.6375 5.42578 4.4625C5.42578 4.2875 5.55703 4.15625 5.73203 4.15625H9.58203C9.75703 4.15625 9.88828 4.2875 9.88828 4.4625Z" fill="#1C355E"/>
<path d="M9.88828 7.39414C9.88828 7.56914 9.75703 7.70039 9.58203 7.70039H5.73203C5.55703 7.70039 5.42578 7.56914 5.42578 7.39414C5.42578 7.21914 5.55703 7.08789 5.73203 7.08789H9.58203C9.75703 7.08789 9.88828 7.21914 9.88828 7.39414Z" fill="#1C355E"/>
<path d="M9.88828 10.2809C9.88828 10.4559 9.75703 10.5871 9.58203 10.5871H5.73203C5.55703 10.5871 5.42578 10.4559 5.42578 10.2809C5.42578 10.1059 5.55703 9.97461 5.73203 9.97461H9.58203C9.75703 9.97461 9.88828 10.1059 9.88828 10.2809Z" fill="#1C355E"/>
<path d="M23.318 4.4625C23.318 4.6375 23.1867 4.76875 23.0117 4.76875H19.1617C18.9867 4.76875 18.8555 4.6375 18.8555 4.4625C18.8555 4.2875 18.9867 4.15625 19.1617 4.15625H23.0117C23.143 4.15625 23.318 4.2875 23.318 4.4625Z" fill="#1C355E"/>
<path d="M23.318 7.39414C23.318 7.56914 23.1867 7.70039 23.0117 7.70039H19.1617C18.9867 7.70039 18.8555 7.56914 18.8555 7.39414C18.8555 7.21914 18.9867 7.08789 19.1617 7.08789H23.0117C23.143 7.08789 23.318 7.21914 23.318 7.39414Z" fill="#1C355E"/>
<path d="M27.3438 20.0814C27.3438 20.1689 27.3875 20.2127 27.475 20.2127C27.5625 20.2127 27.6062 20.1689 27.6062 20.0814V13.5189C27.6062 13.4314 27.5625 13.3877 27.475 13.3877C27.4312 13.3877 27.3438 13.4314 27.3438 13.5189V20.0814Z" fill="#263238"/>
<path d="M25.9883 20.082C25.9883 20.1695 26.032 20.2133 26.1195 20.2133C26.1633 20.2133 26.2508 20.1695 26.2508 20.082V12.3383C26.2508 12.2508 26.207 12.207 26.1195 12.207C26.032 12.207 25.9883 12.2508 25.9883 12.3383V20.082Z" fill="#263238"/>
<path d="M24.6328 20.0816C24.6328 20.1691 24.6766 20.2129 24.7641 20.2129C24.8516 20.2129 24.8953 20.1691 24.8953 20.0816V10.0629C24.8953 9.97539 24.8516 9.93164 24.7641 9.93164C24.6766 9.93164 24.6328 9.97539 24.6328 10.0629V20.0816Z" fill="#263238"/>
<path d="M23.318 10.2809C23.318 10.4559 23.1867 10.5871 23.0117 10.5871H19.1617C18.9867 10.5871 18.8555 10.4559 18.8555 10.2809C18.8555 10.1059 18.9867 9.97461 19.1617 9.97461H23.0117C23.143 9.97461 23.318 10.1059 23.318 10.2809Z" fill="#1C355E"/>
<path d="M23.8445 22.8373C23.8445 23.0561 23.6695 23.2311 23.4508 23.2311H23.3195C23.1008 23.2311 22.9258 23.0561 22.9258 22.8373V2.75605C22.9258 2.5373 23.1008 2.3623 23.3195 2.3623H23.4508C23.6695 2.3623 23.8445 2.5373 23.8445 2.75605V22.8373Z" fill="#005CB9"/>
<path d="M23.8445 2.75586V22.8371C23.8445 23.0559 23.6695 23.2309 23.4508 23.2309H23.3195C23.1008 23.2309 22.9258 23.0559 22.9258 22.8371" fill="#005CB9"/>
<path d="M24.0617 2.53741C24.0617 2.75616 23.8867 2.88741 23.7117 2.88741H23.143C22.9242 2.88741 22.793 2.71241 22.793 2.53741C22.793 2.31866 22.968 2.18741 23.143 2.18741H23.7117C23.8867 2.14366 24.0617 2.31866 24.0617 2.53741Z" fill="#004993"/>
<path d="M23.9742 24.8936V23.0998C23.9742 22.8811 23.7992 22.7061 23.5805 22.7061H23.1867C22.968 22.7061 22.793 22.8811 22.793 23.0998V24.8936H23.9742Z" fill="#005CB9"/>
<path d="M0.960938 24.7188H27.5172V25.8562H0.960938V24.7188Z" fill="#56ABD6"/>
<path d="M0.960938 25.2002H27.5172V25.8564H0.960938V25.2002Z" fill="#2D97C1"/>
<path d="M16.7133 14.2623C13.0383 14.2623 10.0195 10.0623 10.0195 4.94355C10.0195 4.85605 10.107 4.76855 10.1945 4.76855C10.282 4.76855 10.3695 4.85605 10.3695 4.94355C10.3695 9.88731 13.2133 13.8686 16.6695 13.8686C20.1258 13.8686 22.9695 9.84355 22.9695 4.94355C22.9695 4.85605 23.057 4.76855 23.1445 4.76855C23.232 4.76855 23.3195 4.85605 23.3195 4.94355C23.407 10.1061 20.3883 14.2623 16.7133 14.2623Z" fill="#263238"/>
<path d="M16.582 19.993C16.582 20.0367 16.6258 20.1242 16.7133 20.1242C16.8008 20.1242 16.8445 20.0805 16.8445 19.993V14.1742C16.8445 14.0867 16.8008 14.043 16.7133 14.043C16.6695 14.043 16.582 14.0867 16.582 14.1742V19.993Z" fill="#263238"/>
<path d="M15.3125 20.0811C15.3125 20.1686 15.3562 20.2123 15.4437 20.2123C15.5312 20.2123 15.575 20.1686 15.575 20.0811V13.8686C15.575 13.7811 15.5312 13.7373 15.4437 13.7373C15.4 13.7373 15.3125 13.7811 15.3125 13.8686V20.0811Z" fill="#263238"/>
<path d="M13.957 20.0805C13.957 20.168 14.0008 20.2117 14.0883 20.2117C14.132 20.2117 14.2195 20.168 14.2195 20.0805V13.518C14.2195 13.4305 14.1758 13.3867 14.0883 13.3867C14.0445 13.3867 13.957 13.4305 13.957 13.518V20.0805Z" fill="#263238"/>
<path d="M12.5547 20.0811C12.5547 20.1686 12.5984 20.2123 12.6859 20.2123C12.7734 20.2123 12.8172 20.1686 12.8172 20.0811V12.3373C12.8172 12.2498 12.7734 12.2061 12.6859 12.2061C12.5984 12.2061 12.5547 12.2498 12.5547 12.3373V20.0811Z" fill="#263238"/>
<path d="M11.1992 20.0807C11.1992 20.1682 11.243 20.2119 11.3305 20.2119C11.418 20.2119 11.4617 20.1682 11.4617 20.0807V10.0619C11.4617 9.97441 11.418 9.93066 11.3305 9.93066C11.2867 9.93066 11.1992 9.97441 11.1992 10.0619V20.0807Z" fill="#263238"/>
<path d="M18.0672 20.0811C18.0672 20.1686 18.0234 20.2123 17.9359 20.2123C17.8484 20.2123 17.8047 20.1686 17.8047 20.0811V13.8686C17.8047 13.7811 17.8484 13.7373 17.9359 13.7373C17.9797 13.7373 18.0672 13.7811 18.0672 13.8686V20.0811Z" fill="#263238"/>
<path d="M19.4227 20.0805C19.4227 20.168 19.3789 20.2117 19.2914 20.2117C19.2039 20.2117 19.1602 20.168 19.1602 20.0805V13.518C19.1602 13.4305 19.2039 13.3867 19.2914 13.3867C19.3789 13.3867 19.4227 13.4305 19.4227 13.518V20.0805Z" fill="#263238"/>
<path d="M20.7781 20.0811C20.7781 20.1686 20.7344 20.2123 20.6469 20.2123C20.6031 20.2123 20.5156 20.1686 20.5156 20.0811V12.3373C20.5156 12.2498 20.5594 12.2061 20.6469 12.2061C20.7344 12.2061 20.7781 12.2498 20.7781 12.3373V20.0811Z" fill="#263238"/>
<path d="M22.1375 20.0807C22.1375 20.1682 22.0937 20.2119 22.0062 20.2119C21.9625 20.2119 21.875 20.1682 21.875 20.0807V10.0619C21.875 9.97441 21.9187 9.93066 22.0062 9.93066C22.0937 9.93066 22.1375 9.97441 22.1375 10.0619V20.0807Z" fill="#263238"/>
<path d="M1.39922 20.0814C1.39922 20.1689 1.35547 20.2127 1.26797 20.2127C1.18047 20.2127 1.13672 20.1689 1.13672 20.0814V13.5189C1.13672 13.4314 1.18047 13.3877 1.26797 13.3877C1.31172 13.3877 1.39922 13.4314 1.39922 13.5189V20.0814Z" fill="#455A64"/>
<path d="M2.75469 20.082C2.75469 20.1695 2.71094 20.2133 2.62344 20.2133C2.57969 20.2133 2.49219 20.1695 2.49219 20.082V12.3383C2.49219 12.2508 2.53594 12.207 2.62344 12.207C2.66719 12.207 2.75469 12.2508 2.75469 12.3383V20.082Z" fill="#455A64"/>
<path d="M4.11016 20.0816C4.11016 20.1691 4.06641 20.2129 3.97891 20.2129C3.93516 20.2129 3.84766 20.1691 3.84766 20.0816V10.0629C3.84766 9.97539 3.89141 9.93164 3.97891 9.93164C4.06641 9.93164 4.11016 9.97539 4.11016 10.0629V20.0816Z" fill="#455A64"/>
<path d="M3.23828 19.9939C3.23828 20.0377 3.28203 20.1252 3.36953 20.1252C3.41328 20.1252 3.50078 20.0377 3.50078 19.9939V14.1752C3.50078 14.0877 3.45703 14.0439 3.36953 14.0439C3.32578 14.0439 3.23828 14.0877 3.23828 14.1752V19.9939Z" fill="#263238"/>
<path d="M1.96953 20.082C1.96953 20.1695 2.01328 20.2133 2.10078 20.2133C2.14453 20.1695 2.18828 20.1258 2.18828 20.082V13.8695C2.18828 13.782 2.14453 13.7383 2.05703 13.7383C2.01328 13.7383 1.92578 13.782 1.92578 13.8695V20.082H1.96953Z" fill="#263238"/>
<path d="M4.72734 20.082C4.72734 20.1695 4.68359 20.2133 4.59609 20.2133C4.50859 20.2133 4.46484 20.1695 4.46484 20.082V13.8695C4.46484 13.782 4.50859 13.7383 4.59609 13.7383C4.63984 13.7383 4.72734 13.782 4.72734 13.8695V20.082Z" fill="#263238"/>
<path d="M6.08281 20.0814C6.08281 20.1689 6.03906 20.2127 5.95156 20.2127C5.86406 20.2127 5.82031 20.1689 5.82031 20.0814V13.5189C5.82031 13.4314 5.86406 13.3877 5.95156 13.3877C6.03906 13.3877 6.08281 13.4314 6.08281 13.5189V20.0814Z" fill="#263238"/>
<path d="M7.43828 20.082C7.43828 20.1695 7.39453 20.2133 7.30703 20.2133C7.26328 20.2133 7.17578 20.1695 7.17578 20.082V12.3383C7.17578 12.2508 7.21953 12.207 7.30703 12.207C7.39453 12.207 7.43828 12.2508 7.43828 12.3383V20.082Z" fill="#263238"/>
<path d="M8.79766 20.0816C8.79766 20.1691 8.75391 20.2129 8.66641 20.2129C8.62266 20.2129 8.53516 20.1691 8.53516 20.0816V10.0629C8.53516 9.97539 8.57891 9.93164 8.66641 9.93164C8.75391 9.93164 8.79766 9.97539 8.79766 10.0629V20.0816Z" fill="#263238"/>
<path d="M10.4578 22.8373C10.4578 23.0561 10.2828 23.2311 10.0641 23.2311H9.93281C9.71406 23.2311 9.53906 23.0561 9.53906 22.8373V2.75605C9.53906 2.5373 9.71406 2.3623 9.93281 2.3623H10.0641C10.2828 2.3623 10.4578 2.5373 10.4578 2.75605V22.8373Z" fill="#005CB9"/>
<path d="M10.4578 2.75586V22.8371C10.4578 23.0559 10.2828 23.2309 10.0641 23.2309H9.93281C9.71406 23.2309 9.53906 23.0559 9.53906 22.8371" fill="#005CB9"/>
<path d="M10.632 2.53741C10.632 2.75616 10.457 2.88741 10.282 2.88741H9.71328C9.49453 2.88741 9.36328 2.71241 9.36328 2.53741C9.36328 2.31866 9.53828 2.18741 9.71328 2.18741H10.282C10.457 2.14366 10.632 2.31866 10.632 2.53741Z" fill="#004993"/>
<path d="M10.5875 24.8936V23.0998C10.5875 22.8811 10.4125 22.7061 10.1937 22.7061H9.8C9.58125 22.7061 9.40625 22.8811 9.40625 23.0998V24.8936H10.5875Z" fill="#005CB9"/>
<path d="M5.16172 4.76855C5.07422 4.76855 4.98672 4.85605 4.98672 4.94355C4.98672 9.0998 2.97422 12.5561 0.261719 13.5623V13.9998C3.19297 12.9936 5.33672 9.31855 5.33672 4.94355C5.38047 4.85605 5.29297 4.76855 5.16172 4.76855Z" fill="#455A64"/>
<path d="M9.88906 4.76855C9.80156 4.76855 9.71406 4.85605 9.71406 4.94355C9.71406 9.88731 6.87031 13.8686 3.41406 13.8686C2.27656 13.8686 1.22656 13.4311 0.351562 12.7311V13.2123C1.27031 13.8686 2.32031 14.2623 3.41406 14.2623C7.08906 14.2623 10.1078 10.0623 10.1078 4.94355C10.0641 4.85605 9.97656 4.76855 9.88906 4.76855Z" fill="#263238"/>
<path d="M27.4758 13.3873C26.8195 13.6936 26.1633 13.8686 25.4195 13.8686C21.9195 13.8686 19.1195 9.84355 19.1195 4.94355C19.1195 4.85605 19.032 4.76855 18.9445 4.76855C18.857 4.76855 18.7695 4.85605 18.7695 4.94355C18.7695 10.0623 21.7883 14.2623 25.4633 14.2623C26.1633 14.2623 26.8633 14.0873 27.5195 13.8248V13.3873H27.4758Z" fill="#455A64"/>
<path d="M27.4742 13.0373C25.3305 11.5936 23.7992 8.53106 23.7992 4.94355C23.7992 4.85605 23.7117 4.76855 23.6242 4.76855C23.5367 4.76855 23.4492 4.85605 23.4492 4.94355C23.4492 8.74981 25.1117 12.0748 27.4742 13.4748V13.0373Z" fill="#263238"/>
</svg>
