<svg width="28" height="28" viewBox="0 0 28 28" fill="none" xmlns="http://www.w3.org/2000/svg">
<path d="M13.9896 0C6.28486 0 0 6.28955 0 14C0 14.7522 0.0626397 15.5045 0.167039 16.2149V16.2776V16.2985L0.187919 16.3612L0.208799 16.4448C0.208799 16.4866 0.229679 16.5075 0.229679 16.5493L0.271439 16.7582C0.521998 18.0537 0.960477 19.3075 1.58688 20.4776L1.62864 20.5821L1.6704 20.6239C1.6704 20.6239 1.71216 20.6866 1.71216 20.7075L1.73303 20.7702L1.77479 20.8119C1.79567 20.8746 1.83743 20.9164 1.85831 20.9582C4.32215 25.3045 8.97837 28 13.9896 28C19.0007 28 23.657 25.3045 26.1208 20.9582C26.1626 20.8955 26.1834 20.8537 26.2252 20.791L26.267 20.7493L26.2878 20.6866C26.3087 20.6657 26.3505 20.5821 26.3505 20.5821L26.3922 20.5403L26.4131 20.4567C26.6637 19.9761 26.8934 19.4537 27.1022 18.9104C27.1439 18.7642 27.2066 18.6179 27.2483 18.4925C27.2483 18.4716 27.2901 18.3881 27.2901 18.3881C27.311 18.3254 27.3318 18.2418 27.3527 18.1791L27.3945 18.0746C27.4154 18.0119 27.4362 17.9493 27.4571 17.8866L27.478 17.803V17.7821L27.4989 17.6776C27.4989 17.6567 27.5198 17.6358 27.5198 17.6149C27.5198 17.594 27.5406 17.5731 27.5406 17.5313C27.833 16.3821 28 15.191 28 13.9791C27.9791 6.28955 21.6943 0 13.9896 0ZM26.9142 17.406C26.9142 17.4269 26.9142 17.4478 26.8934 17.4687C26.8934 17.4896 26.8934 17.4896 26.8725 17.5104C26.8516 17.5522 26.8516 17.5731 26.8516 17.6149C26.8516 17.6358 26.8307 17.6567 26.8307 17.6776C26.8098 17.7403 26.789 17.8239 26.7681 17.8866C26.7472 17.9284 26.7472 17.9701 26.7263 18.0119C26.7054 18.0746 26.6846 18.1582 26.6637 18.2209C26.6637 18.2418 26.6428 18.2627 26.6428 18.2836C26.601 18.4299 26.5384 18.5552 26.4966 18.7015C26.3087 19.2239 26.079 19.7254 25.8076 20.206C25.7867 20.2478 25.7658 20.2687 25.7658 20.3104C25.745 20.3522 25.7241 20.3731 25.7032 20.4149C25.6614 20.4776 25.6197 20.5612 25.5779 20.6239C23.2811 24.6567 18.959 27.3731 13.9896 27.3731C9.02013 27.3731 4.69799 24.6567 2.40119 20.6448C2.35943 20.5821 2.31767 20.4985 2.27591 20.4358C2.25503 20.394 2.23415 20.3731 2.21327 20.3313C2.19239 20.2896 2.17151 20.2687 2.15063 20.2269C1.566 19.1194 1.12752 17.9075 0.876958 16.6537C0.856078 16.591 0.856078 16.5075 0.835198 16.4448C0.835198 16.403 0.814318 16.3821 0.814318 16.3612C0.814318 16.3194 0.793438 16.2985 0.793438 16.2567C0.793438 16.2567 0.793438 16.2567 0.793438 16.2358C0.793438 16.194 0.793438 16.1731 0.772558 16.1522C0.689038 15.4418 0.626398 14.7313 0.626398 14C0.626398 6.62388 6.59806 0.626866 13.9896 0.626866C21.3602 0.626866 27.3527 6.62388 27.3527 14C27.3527 15.1701 27.2066 16.3194 26.9142 17.406Z" fill="#1C355E"/>
<path d="M27.3513 14.0001C27.3513 15.9643 26.9337 17.824 26.182 19.4956C26.1612 19.5374 26.1403 19.5792 26.1403 19.6001C26.0985 19.7046 26.0359 19.809 25.9941 19.9135C25.6809 20.5613 25.326 21.1673 24.9084 21.7314C24.8666 21.7941 24.804 21.8777 24.7622 21.9404C24.6996 22.0031 24.6578 22.0867 24.5952 22.1493C24.2611 22.5881 23.9061 23.0061 23.5094 23.3822C23.4468 23.4449 23.3633 23.5284 23.3006 23.5911C23.238 23.6538 23.1545 23.7374 23.0918 23.8001C20.6906 26.015 17.496 27.3732 13.9882 27.3732C10.4803 27.3732 7.2857 26.015 4.90539 23.8001C4.82187 23.7374 4.75923 23.6538 4.69659 23.5911C4.63395 23.5284 4.55043 23.4449 4.48779 23.3822C4.09107 22.9852 3.73611 22.5881 3.40203 22.1493C3.33939 22.0867 3.29763 22.0031 3.23499 21.9404C3.19323 21.8777 3.13059 21.7941 3.08883 21.7314C2.67123 21.1673 2.31627 20.5613 2.00308 19.9135C1.94044 19.809 1.89868 19.7046 1.85692 19.6001C1.83604 19.5583 1.81516 19.5374 1.81516 19.4956C1.0426 17.824 0.625 15.9643 0.625 14.0001C0.625 12.4747 0.875559 10.9911 1.3558 9.63292C1.37668 9.57024 1.39756 9.48665 1.41844 9.42397C1.43932 9.36128 1.48108 9.2777 1.50196 9.21501C3.44379 4.17919 8.28794 0.626953 13.9882 0.626953C19.6884 0.626953 24.5325 4.17919 26.4744 9.21501C26.4952 9.2777 26.537 9.36128 26.5579 9.42397C26.5788 9.48665 26.5996 9.57024 26.6414 9.63292C27.1008 10.9911 27.3513 12.4747 27.3513 14.0001Z" fill="#A5D9EB"/>
<path d="M24.7407 21.9395C24.6781 22.0021 24.6363 22.0857 24.5737 22.1484C24.2396 22.5872 23.8846 23.0051 23.4879 23.3812C23.4253 23.4439 23.3418 23.5275 23.2791 23.5902H4.69597C4.63333 23.5275 4.54981 23.4439 4.48717 23.3812C4.09045 22.9842 3.73549 22.5872 3.40141 22.1484C3.33877 22.0857 3.29701 22.0021 3.23438 21.9395H24.7407Z" fill="#D2B098"/>
<path d="M27.3513 13.9996C27.3513 15.9638 26.9337 17.8235 26.182 19.4951C26.1612 19.5369 26.1403 19.5787 26.1403 19.5996C26.0985 19.7041 26.0359 19.8085 25.9941 19.913C25.6809 20.5608 25.326 21.1667 24.9084 21.7309C24.8666 21.7936 24.804 21.8772 24.7622 21.9399H3.25587C3.21411 21.8772 3.15147 21.7936 3.10971 21.7309C2.69211 21.1667 2.33716 20.5608 2.02396 19.913C1.96132 19.8085 1.91956 19.7041 1.8778 19.5996C1.85692 19.5578 1.83604 19.5369 1.83604 19.4951C1.0426 17.8235 0.625 15.9638 0.625 13.9996C0.625 12.4742 0.875559 10.9906 1.3558 9.63241C1.37668 9.56973 1.39756 9.48614 1.41844 9.42346H5.38563V7.93988H7.4945V7.3548C7.4945 7.3548 8.76818 7.62644 9.85393 6.81152C10.9397 6.01749 11.4199 5.9548 11.4199 5.9548L11.3364 5.53689L12.0881 5.39062C12.3386 4.5757 13.0903 3.96973 13.9882 3.96973C14.886 3.96973 15.6377 4.5757 15.8882 5.39062L16.6399 5.53689L16.5564 5.9548C16.5564 5.9548 17.0366 6.01749 18.1224 6.81152C19.2081 7.60555 20.4818 7.3548 20.4818 7.3548V7.93988H22.5907V9.42346H26.5579C26.5788 9.48614 26.5996 9.56973 26.6414 9.63241C27.1008 10.9906 27.3513 12.4742 27.3513 13.9996Z" fill="#FAEDD9"/>
<path d="M26.118 19.6201C26.0762 19.7246 26.0136 19.8291 25.9718 19.9336C25.6586 20.5813 25.3036 21.1873 24.886 21.7515C24.8443 21.8141 24.7816 21.8977 24.7399 21.9604H3.23354C3.19179 21.8977 3.12915 21.8141 3.08739 21.7515C2.66979 21.1873 2.31483 20.5813 2.00163 19.9336C1.93899 19.8291 1.89723 19.7246 1.85547 19.6201H26.118Z" fill="#E8D1B8"/>
<path d="M13.0273 9.44434H14.9274V12.307H13.0273V9.44434Z" fill="#005CB9"/>
<path d="M1.56641 10.5938H2.8192V12.746H1.56641V10.5938Z" fill="#005CB9"/>
<path d="M1.56641 15.3574H2.8192V17.5097H1.56641V15.3574Z" fill="#005CB9"/>
<path d="M9.56288 12.2859H8.22656V9.86202C8.22656 9.4859 8.51888 9.19336 8.89472 9.19336C9.27056 9.19336 9.56288 9.4859 9.56288 9.86202V12.2859Z" fill="#F7C59C"/>
<path d="M7.49498 13.6446H6.55539L6.24219 12.9551H7.82906L7.49498 13.6446Z" fill="#EFDDC7"/>
<path d="M6.57422 13.6445H7.47206V19.0147H6.57422V13.6445Z" fill="#EFDDC7"/>
<path d="M6.19922 19.0146H7.84873V22.2117H6.19922V19.0146Z" fill="#EFDDC7"/>
<path d="M11.1291 13.6446H10.1687L9.85547 12.9551H11.4423L11.1291 13.6446Z" fill="#EFDDC7"/>
<path d="M14.5535 13.6446H13.1963L12.7578 12.9551H14.992L14.5535 13.6446Z" fill="#FCF9F5"/>
<path d="M10.207 13.6445H11.1049V19.0147H10.207V13.6445Z" fill="#EFDDC7"/>
<path d="M9.83203 19.0146H11.4815V22.2117H9.83203V19.0146Z" fill="#EFDDC7"/>
<path d="M19.8558 12.2859H18.5195V9.86202C18.5195 9.4859 18.8119 9.19336 19.1877 9.19336C19.5635 9.19336 19.8558 9.4859 19.8558 9.86202V12.2859Z" fill="#F7C59C"/>
<path d="M9.56288 18.2625H8.22656V15.8386C8.22656 15.4625 8.51888 15.1699 8.89472 15.1699C9.27056 15.1699 9.56288 15.4625 9.56288 15.8386V18.2625Z" fill="#F7C59C"/>
<path d="M19.8558 18.2625H18.5195V15.8386C18.5195 15.4625 18.8119 15.1699 19.1877 15.1699C19.5635 15.1699 19.8558 15.4625 19.8558 15.8386V18.2625Z" fill="#F7C59C"/>
<path d="M17.788 13.6446H16.8484L16.5352 12.9551H18.122L17.788 13.6446Z" fill="#EFDDC7"/>
<path d="M16.8711 13.6445H17.7689V19.0147H16.8711V13.6445Z" fill="#EFDDC7"/>
<path d="M16.5156 19.0146H18.1651V22.2117H16.5156V19.0146Z" fill="#EFDDC7"/>
<path d="M21.4221 13.6446H20.4825L20.1484 12.9551H21.7353L21.4221 13.6446Z" fill="#EFDDC7"/>
<path d="M20.5039 13.6445H21.4017V19.0147H20.5039V13.6445Z" fill="#EFDDC7"/>
<path d="M20.1289 19.0146H21.7784V22.2117H20.1289V19.0146Z" fill="#EFDDC7"/>
<path d="M13.8005 16.1104C12.9027 16.1104 12.1719 16.8417 12.1719 17.7402V21.9402H15.4291V17.7402C15.4291 16.8417 14.6983 16.1104 13.8005 16.1104Z" fill="#7F7F75"/>
<path d="M11.5469 14.668V17.5307H11.5678C11.6722 16.4023 12.6326 15.5038 13.8019 15.5038C14.9712 15.5038 15.9317 16.4023 16.0361 17.5307H16.0569V14.668H11.5469Z" fill="#EFDDC7"/>
<path d="M13.8633 13.6445H13.2578V15.0236L13.4457 15.6087H13.8633H14.2809L14.4897 15.0236V13.6445H13.8633Z" fill="#FCF9F5"/>
<path d="M25.1367 10.5938H26.3895V12.746H25.1367V10.5938Z" fill="#005CB9"/>
<path d="M25.1367 15.3574H26.3895V17.5097H25.1367V15.3574Z" fill="#005CB9"/>
<path d="M23.2785 23.5908C23.2158 23.6535 23.1323 23.7371 23.0697 23.7998C20.6893 26.0147 17.4947 27.3729 13.9869 27.3729C10.4791 27.3729 7.28442 26.0147 4.90411 23.7998C4.82059 23.7371 4.75795 23.6535 4.69531 23.5908H23.2785Z" fill="#00AE42"/>
<path d="M15.1589 9.23535H12.8203V12.5159H15.138V9.23535H15.1589ZM14.7413 12.0771H13.2588V9.65326H14.7413V12.0771Z" fill="#1C355E"/>
<path d="M3.04539 10.3848H1.375V12.9549H3.04539V10.3848ZM2.6278 12.537H1.7926V10.8027H2.6278V12.537Z" fill="#1C355E"/>
<path d="M3.04539 15.1484H1.375V17.7186H3.04539V15.1484ZM2.6278 17.3007H1.7926V15.5663H2.6278V17.3007Z" fill="#1C355E"/>
<path d="M9.76954 9.86199C9.76954 9.38139 9.37282 8.98438 8.89258 8.98438C8.41234 8.98438 8.01562 9.38139 8.01562 9.86199V12.5157H9.76954V9.86199ZM9.35194 12.0769H8.43322V9.86199C8.43322 9.61124 8.64202 9.40229 8.89258 9.40229C9.14314 9.40229 9.35194 9.61124 9.35194 9.86199V12.0769Z" fill="#1C355E"/>
<path d="M20.0625 9.86199C20.0625 9.38139 19.6658 8.98438 19.1856 8.98438C18.7053 8.98438 18.3086 9.38139 18.3086 9.86199V12.5157H20.0625V9.86199ZM19.6449 12.0769H18.7262V9.86199C18.7262 9.61124 18.935 9.40229 19.1856 9.40229C19.4361 9.40229 19.6449 9.61124 19.6449 9.86199V12.0769Z" fill="#1C355E"/>
<path d="M8.89258 14.9609C8.41234 14.9609 8.01562 15.358 8.01562 15.8386V18.4923H9.76954V15.8386C9.76954 15.3371 9.37282 14.9609 8.89258 14.9609ZM9.35194 18.0535H8.43322V15.8386C8.43322 15.5878 8.64202 15.3788 8.89258 15.3788C9.14314 15.3788 9.35194 15.5878 9.35194 15.8386V18.0535Z" fill="#1C355E"/>
<path d="M19.1856 14.9609C18.7053 14.9609 18.3086 15.358 18.3086 15.8386V18.4923H20.0625V15.8386C20.0625 15.3371 19.6658 14.9609 19.1856 14.9609ZM19.6449 18.0535H18.7262V15.8386C18.7262 15.5878 18.935 15.3788 19.1856 15.3788C19.4361 15.3788 19.6449 15.5878 19.6449 15.8386V18.0535Z" fill="#1C355E"/>
<path d="M26.6001 10.3848H24.9297V12.9549H26.6001V10.3848ZM26.1825 12.537H25.3473V10.8027H26.1825V12.537Z" fill="#1C355E"/>
<path d="M26.6001 15.1484H24.9297V17.7186H26.6001V15.1484ZM26.1825 17.3007H25.3473V15.5663H26.1825V17.3007Z" fill="#1C355E"/>
<path d="M14.301 15.5458C14.134 15.504 13.967 15.4831 13.7999 15.4831C13.6746 15.4831 13.5494 15.4831 13.4241 15.504C13.3614 15.504 13.2779 15.5249 13.2153 15.5458L13.2988 15.7966H14.4263L14.489 15.5876C14.4472 15.5876 14.3846 15.5667 14.301 15.5458ZM5.5941 8.1488H7.70297V7.58462C8.14145 7.62641 9.10193 7.62641 9.97888 6.97865C10.9811 6.24731 11.4405 6.16373 11.4405 6.14283L11.6493 6.12194L11.5658 5.68313L12.2339 5.55776L12.2757 5.43238C12.5054 4.68015 13.1944 4.15776 13.9878 4.15776C14.7604 4.15776 15.4703 4.68015 15.6791 5.43238L15.7209 5.55776L16.389 5.68313L16.3264 6.12194L16.5352 6.16373C16.5352 6.16373 16.9945 6.24731 17.9968 6.99955C18.8529 7.62641 19.8133 7.64731 20.2727 7.60552V8.1488H22.3816V9.63238H26.6202C26.5993 9.5697 26.5784 9.48612 26.5367 9.42343C26.5158 9.36074 26.474 9.27716 26.4532 9.21447H22.7783V7.73089H20.6694V7.08313L20.4189 7.14582C20.398 7.14582 19.2287 7.37567 18.2265 6.64432C17.4957 6.10104 17.0363 5.89209 16.7857 5.8085L16.8693 5.3697L16.0341 5.22343C15.7417 4.34582 14.9066 3.76074 13.9878 3.76074C13.0691 3.76074 12.2339 4.34582 11.9207 5.20253L11.0855 5.3488L11.169 5.78761C10.9185 5.87119 10.4591 6.10104 9.72832 6.62343C8.74697 7.35477 7.55681 7.12492 7.53593 7.12492L7.28537 7.06223V7.73089H5.1765V9.21447H1.50163C1.48075 9.27716 1.43899 9.36074 1.41811 9.42343C1.39723 9.48612 1.37635 9.5697 1.35547 9.63238H5.5941V8.1488ZM21.9849 18.8055H21.609V14.5219H21.7134V14.104H21.609V13.7488L22.0684 12.7458H5.9073L6.36665 13.7488V14.104H6.26225V14.5219H6.36665V18.8055H5.99082V19.4951H1.81483C1.83571 19.5369 1.85659 19.5787 1.85659 19.5995C1.89835 19.704 1.96099 19.8085 2.00275 19.913H5.99082V21.7309H3.06762C3.10938 21.7936 3.17202 21.8772 3.21378 21.9398C3.27642 22.0025 3.31818 22.0861 3.38082 22.1488H5.99082V22.4204H8.05793V22.1488H9.62392V22.4204H11.691V22.1488H16.3055V22.4204H18.3726V22.1488H19.9386V22.4204H22.0057V22.1488H24.6157C24.6784 22.0861 24.7201 22.0025 24.7828 21.9398C24.8454 21.8772 24.8872 21.7936 24.9289 21.7309H22.0266V19.913H26.0147C26.0564 19.8085 26.1191 19.704 26.1608 19.5995C26.1817 19.5578 26.2026 19.5369 26.2026 19.4951H22.0057V18.8055H21.9849ZM21.5673 22.0234H20.3353V19.2234H21.5673V22.0234ZM17.9341 22.0234H16.7022V19.2234H17.9341V22.0234ZM11.2526 22.0234H10.0206V19.2234H11.2526V22.0234ZM7.64033 22.0234H6.40841V19.2234H7.64033V22.0234ZM10.4174 14.104V13.8533H10.8976V14.104H10.4174ZM10.8976 14.5219V18.8055H10.4174V14.5219H10.8976ZM10.9811 13.4354H10.2921L10.1877 13.1637H11.1273L10.9811 13.4354ZM6.78425 14.104V13.8533H7.26449V14.104H6.78425ZM7.26449 14.5219V18.8055H6.78425V14.5219H7.26449ZM7.36889 13.4354H6.67985L6.55457 13.1637H7.49417L7.36889 13.4354ZM8.05793 19.5369H9.62392V21.7309H8.05793V19.5369ZM9.99976 18.8055H9.62392V19.119H8.05793V18.8055H7.68209V14.5219H9.99976V18.8055ZM11.9625 21.7309H11.6702V18.8055H11.2943V14.5219H13.0274V15.0652L13.2153 15.5667L13.2988 15.8175H14.4263L14.489 15.6085L14.6769 15.0652V14.5219H16.6396V18.8055H16.2637V21.7309H15.5956V17.7398C15.5956 16.7369 14.7813 15.901 13.7582 15.901C12.7559 15.901 11.9207 16.716 11.9207 17.7398V21.7309H11.9625ZM14.6142 13.1637L14.4263 13.4354H13.3197L13.1318 13.1637H14.6142ZM13.4658 13.8533H14.301V14.9816L14.1549 15.3787H13.612L13.4658 14.9816V13.8533ZM20.7112 18.8055V14.5219H21.1914V18.8055H20.7112ZM21.1914 14.104H20.7112V13.8533H21.1914V14.104ZM20.4815 13.1637H21.4211L21.2958 13.4354H20.6068L20.4815 13.1637ZM17.0781 14.104V13.8533H17.5583V14.104H17.0781ZM17.5583 14.5219V18.8055H17.0781V14.5219H17.5583ZM17.6627 13.4354H16.9737L16.8484 13.1637H17.788L17.6627 13.4354ZM18.3517 19.5369H19.9177V21.7309H18.3517V19.5369ZM20.2936 18.8055H19.9177V19.119H18.3517V18.8055H17.9759V14.5219H20.2727V18.8055H20.2936ZM15.2197 21.7309H12.3801V17.7398C12.3801 16.9667 13.0065 16.319 13.7999 16.319C14.5725 16.319 15.2197 16.9458 15.2197 17.7398V21.7309ZM18.2473 13.1637H20.0221L20.2936 13.7488V14.104H17.9968V13.7488L18.2473 13.1637ZM16.4099 13.1637L16.6813 13.7488V14.104H14.7186V13.7906L15.1153 13.1637H16.4099ZM11.5658 13.1637H12.6306L13.0274 13.7906V14.1249H11.2943V13.7697L11.5658 13.1637ZM9.72832 13.1637L9.99976 13.7488V14.104H7.68209V13.7488L7.95353 13.1637H9.72832ZM4.69626 23.5906C4.7589 23.6533 4.84242 23.7369 4.90506 23.7995H23.0706C23.1541 23.7369 23.2168 23.6533 23.2794 23.5906C23.3629 23.5279 23.4256 23.4443 23.4882 23.3816H4.46658C4.5501 23.4652 4.61274 23.5279 4.69626 23.5906Z" fill="#1C355E"/>
</svg>
