<svg width="28" height="28" viewBox="0 0 28 28" fill="none" xmlns="http://www.w3.org/2000/svg">
<g clip-path="url(#clip0_6308_1274)">
<path d="M27.8142 27.7668L26.1846 25.7041H1.8171L0.1875 27.7668H27.8142Z" fill="white"/>
<path d="M27.8134 27.8597H0.18671C0.151243 27.8597 0.117643 27.8392 0.10271 27.8074C0.0877767 27.7757 0.09151 27.7365 0.11391 27.7085L1.74351 25.6458C1.76031 25.6234 1.78831 25.6104 1.81631 25.6104H26.1819C26.2099 25.6104 26.2379 25.6234 26.2547 25.6458L27.8843 27.7085C27.9067 27.7365 27.9104 27.7757 27.8955 27.8074C27.8824 27.8392 27.8488 27.8597 27.8134 27.8597ZM0.378977 27.673H27.6211L26.139 25.797H1.86298L0.378977 27.673Z" fill="#1C355E"/>
<path d="M20.782 22.9004V25.7041H7.21875V22.9004H10.7804L8.58888 23.9009H19.4118L17.2204 22.9004H20.782Z" fill="#005CB9"/>
<path d="M20.7804 23.3185V22.9004H17.2188L18.1334 23.3185H20.7804Z" fill="#C6CDD4"/>
<path d="M9.86568 23.3185L10.7804 22.9004H7.21875V23.3185H9.86568Z" fill="#C6CDD4"/>
<path d="M20.7815 25.797H7.21833C7.16607 25.797 7.125 25.756 7.125 25.7037V22.9C7.125 22.8477 7.16607 22.8066 7.21833 22.8066H10.7799C10.8247 22.8066 10.8621 22.8365 10.8714 22.8794C10.8807 22.9224 10.8583 22.9653 10.8191 22.984L9.0178 23.8053H18.9821L17.1807 22.984C17.1415 22.9653 17.1191 22.9224 17.1285 22.8794C17.1378 22.8365 17.1751 22.8066 17.2199 22.8066H20.7815C20.8338 22.8066 20.8749 22.8477 20.8749 22.9V25.7037C20.8749 25.756 20.8319 25.797 20.7815 25.797ZM7.31167 25.6104H20.6882V22.9933H17.6474L19.4487 23.8146C19.4879 23.8333 19.5103 23.8762 19.501 23.9192C19.4917 23.9621 19.4543 23.992 19.4095 23.992H8.58847C8.54367 23.992 8.50633 23.9621 8.497 23.9192C8.48767 23.8762 8.51007 23.8333 8.54927 23.8146L10.3506 22.9933H7.31167V25.6104Z" fill="#1C355E"/>
<path d="M15.2013 3.83894V7.15974C14.8186 7.05707 14.4154 7.00107 14.001 7.00107C13.5866 7.00107 13.1834 7.05521 12.8008 7.15974V3.83894C12.8008 3.17627 13.3384 2.63867 14.001 2.63867C14.6637 2.63867 15.2013 3.17627 15.2013 3.83894Z" fill="#005CB9"/>
<path d="M15.2009 7.25363C15.1934 7.25363 15.1841 7.25177 15.1766 7.2499C14.415 7.04457 13.5862 7.04457 12.8246 7.2499C12.7966 7.25737 12.7668 7.25177 12.7444 7.2331C12.722 7.2163 12.707 7.1883 12.707 7.15843V3.8395C12.707 3.12643 13.2876 2.5459 14.0006 2.5459C14.7137 2.5459 15.2942 3.12643 15.2942 3.8395V7.1603C15.2942 7.19017 15.2812 7.2163 15.2569 7.23496C15.242 7.24803 15.2214 7.25363 15.2009 7.25363ZM14.0006 6.91017C14.3758 6.91017 14.7473 6.95497 15.1076 7.04083V3.8395C15.1076 3.2291 14.611 2.73257 14.0006 2.73257C13.3902 2.73257 12.8937 3.2291 12.8937 3.8395V7.03897C13.254 6.9531 13.6254 6.91017 14.0006 6.91017Z" fill="#1C355E"/>
<path d="M13.9062 0.139648H14.0929V2.63912H13.9062V0.139648Z" fill="#1C355E"/>
<path d="M13.8008 7.00361V5.60548C13.8008 5.44308 13.6683 5.31055 13.5059 5.31055C13.3435 5.31055 13.2109 5.44308 13.2109 5.60548V7.00361H13.8008Z" fill="#C6CDD4"/>
<path d="M14.75 7.00361V5.60548C14.75 5.44308 14.6175 5.31055 14.4551 5.31055C14.2927 5.31055 14.1602 5.44308 14.1602 5.60548V7.00361H14.75Z" fill="#C6CDD4"/>
<path d="M15.2472 3.81152H12.7496C12.5816 3.81152 12.4453 3.94779 12.4453 4.11579C12.4453 4.28379 12.5816 4.42006 12.7496 4.42006H15.2472C15.4152 4.42006 15.5514 4.28379 15.5514 4.11579C15.5514 3.94779 15.4152 3.81152 15.2472 3.81152Z" fill="#40506B"/>
<path d="M15.2507 4.51297H12.7531C12.5347 4.51297 12.3555 4.33564 12.3555 4.11537C12.3555 3.89511 12.5328 3.71777 12.7531 3.71777H15.2507C15.4691 3.71777 15.6483 3.89511 15.6483 4.11537C15.6483 4.33564 15.4691 4.51297 15.2507 4.51297ZM12.7531 3.90444C12.6373 3.90444 12.5421 3.99964 12.5421 4.11537C12.5421 4.23111 12.6373 4.32631 12.7531 4.32631H15.2507C15.3664 4.32631 15.4616 4.23111 15.4616 4.11537C15.4616 3.99964 15.3664 3.90444 15.2507 3.90444H12.7531Z" fill="#1C355E"/>
<path d="M8.77344 13.9824H19.223V16.6256H8.77344V13.9824Z" fill="white"/>
<path d="M10.1399 14.9385H10.0186C9.82069 14.9385 9.66016 15.099 9.66016 15.2969V16.6259H10.4983V15.2969C10.4983 15.099 10.3378 14.9385 10.1399 14.9385Z" fill="#496491"/>
<path d="M11.7102 14.9385H11.5889C11.391 14.9385 11.2305 15.099 11.2305 15.2969V16.6259H12.0686V15.2969C12.0686 15.099 11.9081 14.9385 11.7102 14.9385Z" fill="#496491"/>
<path d="M13.2766 14.9385H13.1553C12.9574 14.9385 12.7969 15.099 12.7969 15.2969V16.6259H13.635V15.2969C13.635 15.099 13.4745 14.9385 13.2766 14.9385Z" fill="#496491"/>
<path d="M14.8469 14.9385H14.7256C14.5277 14.9385 14.3672 15.099 14.3672 15.2969V16.6259H15.2053V15.2969C15.2053 15.099 15.0448 14.9385 14.8469 14.9385Z" fill="#496491"/>
<path d="M16.4133 14.9385H16.292C16.0941 14.9385 15.9336 15.099 15.9336 15.2969V16.6259H16.7717V15.2969C16.7717 15.099 16.6112 14.9385 16.4133 14.9385Z" fill="#496491"/>
<path d="M17.9797 14.9385H17.8584C17.6605 14.9385 17.5 15.099 17.5 15.2969V16.6259H18.3381V15.2969C18.3381 15.099 18.1776 14.9385 17.9797 14.9385Z" fill="#496491"/>
<path d="M18.6118 11.6164V13.0985H9.38672V11.6164C9.38672 9.48275 10.8334 7.68889 12.799 7.16062C13.1817 7.05795 13.5849 7.00195 13.9993 7.00195C14.4137 7.00195 14.8169 7.05609 15.1995 7.16062C15.991 7.37342 16.6985 7.79155 17.2622 8.35342C18.0966 9.18969 18.6118 10.3433 18.6118 11.6164Z" fill="#005CB9"/>
<path d="M19.5199 13.9825H8.48047L9.38767 13.0977H18.6146L19.5199 13.9825Z" fill="#005CB9"/>
<path d="M8.77344 13.9824H19.223V14.6152H8.77344V13.9824Z" fill="#1C355E"/>
<path d="M20.6782 17.7178V21.8282H14.871L13.9992 21.4306L13.1275 21.8282H7.32031V17.7178H20.6782Z" fill="white"/>
<path d="M7.32031 17.7178H20.6782V18.5466H7.32031V17.7178Z" fill="#1C355E"/>
<path d="M18.6114 13.191H9.3863C9.33404 13.191 9.29297 13.1499 9.29297 13.0976V11.6155C9.29297 9.48938 10.7247 7.62085 12.7743 7.07018C13.5676 6.85551 14.43 6.85551 15.2234 7.07018C16.0148 7.28298 16.7428 7.70298 17.3271 8.28725C18.2156 9.17578 18.7066 10.3574 18.7066 11.6155V13.0976C18.7047 13.148 18.6636 13.191 18.6114 13.191ZM9.47964 13.0043H18.5199V11.6155C18.5199 10.4078 18.0495 9.27285 17.1964 8.41978C16.6346 7.85791 15.9364 7.45471 15.1767 7.25125C14.4132 7.04591 13.5863 7.04591 12.8247 7.25125C10.8554 7.77951 9.4815 9.57525 9.4815 11.6174V13.0043H9.47964Z" fill="#1C355E"/>
<path d="M16.8597 13.1914H11.1402C11.0879 13.1914 11.0469 13.1504 11.0469 13.0981V11.616C11.0469 9.49545 11.941 7.62878 13.2197 7.07438C13.7255 6.85411 14.2762 6.85411 14.7821 7.07438C15.2805 7.28905 15.7378 7.71465 16.1018 8.30451C16.6506 9.19118 16.953 10.3672 16.953 11.616V13.0981C16.953 13.1485 16.9119 13.1914 16.8597 13.1914ZM11.2335 13.0048H16.7682V11.616C16.7682 10.4008 16.4751 9.26025 15.945 8.40345C15.5997 7.84718 15.1722 7.44771 14.7093 7.24611C14.2501 7.04638 13.7535 7.04638 13.2943 7.24611C12.081 7.77065 11.2335 9.56825 11.2335 11.616V13.0048Z" fill="#1C355E"/>
<path d="M15.0078 13.191H12.9918C12.9395 13.191 12.8984 13.15 12.8984 13.0977V11.6156C12.8984 9.47822 13.2064 7.66382 13.6638 7.10196C13.871 6.84622 14.1267 6.84622 14.332 7.10196C14.5112 7.32036 14.6736 7.74782 14.8006 8.33396C14.9928 9.21129 15.0974 10.378 15.0974 11.6156V13.0977C15.1011 13.1481 15.0582 13.191 15.0078 13.191ZM13.0851 13.0044H14.9126V11.6156C14.9126 10.3892 14.808 9.23929 14.6195 8.37316C14.4982 7.81502 14.3488 7.41556 14.1883 7.21956C14.0558 7.05529 13.9419 7.05529 13.8094 7.21956C13.3838 7.74409 13.0851 9.55102 13.0851 11.6156V13.0044Z" fill="#1C355E"/>
<path d="M19.5192 14.0764H8.47971C8.44238 14.0764 8.40691 14.0539 8.39385 14.0185C8.37891 13.983 8.38825 13.9438 8.41438 13.9158L9.32158 13.031C9.33838 13.0142 9.36265 13.0049 9.38691 13.0049H18.6138C18.6381 13.0049 18.6624 13.0142 18.6792 13.031L19.5864 13.9158C19.6144 13.942 19.6218 13.983 19.6069 14.0185C19.592 14.0539 19.5584 14.0764 19.5192 14.0764ZM8.70931 13.8897H19.2914L18.5765 13.1915H9.42425L8.70931 13.8897Z" fill="#1C355E"/>
<path d="M19.2265 16.7195H8.77693C8.72466 16.7195 8.68359 16.6784 8.68359 16.6262V13.983C8.68359 13.9307 8.72466 13.8896 8.77693 13.8896H19.2265C19.2788 13.8896 19.3199 13.9307 19.3199 13.983V16.6262C19.3199 16.6766 19.2788 16.7195 19.2265 16.7195ZM8.87026 16.5328H19.1332V14.0763H8.87026V16.5328Z" fill="#1C355E"/>
<path d="M10.5018 16.7198H9.66365C9.61138 16.7198 9.57031 16.6788 9.57031 16.6265V15.2974C9.57031 15.0492 9.77378 14.8457 10.022 14.8457H10.1434C10.3916 14.8457 10.5951 15.0492 10.5951 15.2974V16.6265C10.5951 16.6769 10.554 16.7198 10.5018 16.7198ZM9.75698 16.5332H10.4084V15.2974C10.4084 15.1518 10.289 15.0324 10.1434 15.0324H10.022C9.87645 15.0324 9.75698 15.1518 9.75698 15.2974V16.5332Z" fill="#1C355E"/>
<path d="M12.0661 16.7198H11.2261C11.1739 16.7198 11.1328 16.6788 11.1328 16.6265V15.2974C11.1328 15.0492 11.3363 14.8457 11.5845 14.8457H11.7077C11.956 14.8457 12.1595 15.0492 12.1595 15.2974V16.6265C12.1595 16.6769 12.1184 16.7198 12.0661 16.7198ZM11.3195 16.5332H11.9728V15.2974C11.9728 15.1518 11.8533 15.0324 11.7077 15.0324H11.5845C11.4389 15.0324 11.3195 15.1518 11.3195 15.2974V16.5332Z" fill="#1C355E"/>
<path d="M13.6346 16.7198H12.7965C12.7442 16.7198 12.7031 16.6788 12.7031 16.6265V15.2974C12.7031 15.0492 12.9066 14.8457 13.1549 14.8457H13.2762C13.5245 14.8457 13.7279 15.0492 13.7279 15.2974V16.6265C13.7279 16.6769 13.685 16.7198 13.6346 16.7198ZM12.8879 16.5332H13.5394V15.2974C13.5394 15.1518 13.4199 15.0324 13.2743 15.0324H13.153C13.0074 15.0324 12.8879 15.1518 12.8879 15.2974V16.5332Z" fill="#1C355E"/>
<path d="M15.2029 16.7198H14.3629C14.3106 16.7198 14.2695 16.6788 14.2695 16.6265V15.2974C14.2695 15.0492 14.473 14.8457 14.7213 14.8457H14.8445C15.0927 14.8457 15.2962 15.0492 15.2962 15.2974V16.6265C15.2962 16.6769 15.2533 16.7198 15.2029 16.7198ZM14.4562 16.5332H15.1095V15.2974C15.1095 15.1518 14.9901 15.0324 14.8445 15.0324H14.7213C14.5757 15.0324 14.4562 15.1518 14.4562 15.2974V16.5332Z" fill="#1C355E"/>
<path d="M16.7713 16.7198H15.9332C15.8809 16.7198 15.8398 16.6788 15.8398 16.6265V15.2974C15.8398 15.0492 16.0433 14.8457 16.2916 14.8457H16.4129C16.6612 14.8457 16.8646 15.0492 16.8646 15.2974V16.6265C16.8646 16.6769 16.8217 16.7198 16.7713 16.7198ZM16.0246 16.5332H16.6761V15.2974C16.6761 15.1518 16.5566 15.0324 16.411 15.0324H16.2897C16.1441 15.0324 16.0246 15.1518 16.0246 15.2974V16.5332Z" fill="#1C355E"/>
<path d="M18.3416 16.7198H17.5035C17.4512 16.7198 17.4102 16.6788 17.4102 16.6265V15.2974C17.4102 15.0492 17.6136 14.8457 17.8619 14.8457H17.9832C18.2315 14.8457 18.435 15.0492 18.435 15.2974V16.6265C18.435 16.6769 18.392 16.7198 18.3416 16.7198ZM17.595 16.5332H18.2464V15.2974C18.2464 15.1518 18.127 15.0324 17.9814 15.0324H17.86C17.7144 15.0324 17.595 15.1518 17.595 15.2974V16.5332Z" fill="#1C355E"/>
<path d="M9.13996 18.7988H8.98689C8.73676 18.7988 8.53516 19.0004 8.53516 19.2506V21.8284H9.59169V19.2506C9.58982 19.0004 9.38822 18.7988 9.13996 18.7988Z" fill="#496491"/>
<path d="M11.1165 18.7988H10.9635C10.7133 18.7988 10.5117 19.0004 10.5117 19.2506V21.8284H11.5683V19.2506C11.5664 19.0004 11.3648 18.7988 11.1165 18.7988Z" fill="#496491"/>
<path d="M13.0892 18.7988H12.9361C12.686 18.7988 12.4844 19.0004 12.4844 19.2506V21.8284H13.5409V19.2506C13.5409 19.0004 13.3393 18.7988 13.0892 18.7988Z" fill="#496491"/>
<path d="M15.0657 18.7988H14.9127C14.6625 18.7988 14.4609 19.0004 14.4609 19.2506V21.8284H15.5175V19.2506C15.5175 19.0004 15.3159 18.7988 15.0657 18.7988Z" fill="#496491"/>
<path d="M17.0384 18.7988H16.8853C16.6352 18.7988 16.4336 19.0004 16.4336 19.2506V21.8284H17.4901V19.2506C17.4901 19.0004 17.2885 18.7988 17.0384 18.7988Z" fill="#496491"/>
<path d="M19.015 18.7988H18.8619C18.6118 18.7988 18.4102 19.0004 18.4102 19.2506V21.8284H19.4667V19.2506C19.4667 19.0004 19.2632 18.7988 19.015 18.7988Z" fill="#496491"/>
<path d="M9.59127 21.9213H8.53474C8.48247 21.9213 8.44141 21.8803 8.44141 21.828V19.2501C8.44141 18.9496 8.68594 18.7051 8.98647 18.7051H9.13954C9.44007 18.7051 9.68461 18.9496 9.68461 19.2501V21.828C9.68461 21.8784 9.64354 21.9213 9.59127 21.9213ZM8.62807 21.7347H9.49794V19.2501C9.49794 19.0523 9.33741 18.8917 9.13954 18.8917H8.98647C8.78861 18.8917 8.62807 19.0523 8.62807 19.2501V21.7347Z" fill="#1C355E"/>
<path d="M11.5678 21.9213H10.5113C10.459 21.9213 10.418 21.8803 10.418 21.828V19.2501C10.418 18.9496 10.6625 18.7051 10.963 18.7051H11.1161C11.4166 18.7051 11.6612 18.9496 11.6612 19.2501V21.828C11.6612 21.8784 11.6201 21.9213 11.5678 21.9213ZM10.6046 21.7347H11.4745V19.2501C11.4745 19.0523 11.314 18.8917 11.1161 18.8917H10.963C10.7652 18.8917 10.6046 19.0523 10.6046 19.2501V21.7347Z" fill="#1C355E"/>
<path d="M13.5405 21.9213H12.484C12.4317 21.9213 12.3906 21.8803 12.3906 21.828V19.2501C12.3906 18.9496 12.6352 18.7051 12.9357 18.7051H13.0888C13.3893 18.7051 13.6338 18.9496 13.6338 19.2501V21.828C13.6338 21.8784 13.5928 21.9213 13.5405 21.9213ZM12.5773 21.7347H13.4472V19.2501C13.4472 19.0523 13.2866 18.8917 13.0888 18.8917H12.9357C12.7378 18.8917 12.5773 19.0523 12.5773 19.2501V21.7347Z" fill="#1C355E"/>
<path d="M15.5171 21.9213H14.4605C14.4083 21.9213 14.3672 21.8803 14.3672 21.828V19.2501C14.3672 18.9496 14.6117 18.7051 14.9123 18.7051H15.0653C15.3659 18.7051 15.6104 18.9496 15.6104 19.2501V21.828C15.6104 21.8784 15.5693 21.9213 15.5171 21.9213ZM14.5539 21.7347H15.4237V19.2501C15.4237 19.0523 15.2632 18.8917 15.0653 18.8917H14.9123C14.7144 18.8917 14.5539 19.0523 14.5539 19.2501V21.7347Z" fill="#1C355E"/>
<path d="M17.4897 21.9213H16.4332C16.3809 21.9213 16.3398 21.8803 16.3398 21.828V19.2501C16.3398 18.9496 16.5844 18.7051 16.8849 18.7051H17.0398C17.3404 18.7051 17.5849 18.9496 17.5849 19.2501V21.828C17.583 21.8784 17.5401 21.9213 17.4897 21.9213ZM16.5265 21.7347H17.3964V19.2501C17.3964 19.0523 17.2358 18.8917 17.038 18.8917H16.883C16.6852 18.8917 16.5246 19.0523 16.5246 19.2501V21.7347H16.5265Z" fill="#1C355E"/>
<path d="M19.4663 21.9213H18.4097C18.3575 21.9213 18.3164 21.8803 18.3164 21.828V19.2501C18.3164 18.9496 18.5609 18.7051 18.8615 18.7051H19.0164C19.3169 18.7051 19.5615 18.9496 19.5615 19.2501V21.828C19.5596 21.8784 19.5167 21.9213 19.4663 21.9213ZM18.5031 21.7347H19.3729V19.2501C19.3729 19.0523 19.2124 18.8917 19.0145 18.8917H18.8596C18.6617 18.8917 18.5012 19.0523 18.5012 19.2501V21.7347H18.5031Z" fill="#1C355E"/>
<path d="M20.6778 21.9221H14.8706C14.8575 21.9221 14.8444 21.9183 14.8314 21.9146L13.9988 21.5338L13.1663 21.9127C13.1532 21.9183 13.1402 21.9202 13.1271 21.9202H7.3199C7.26763 21.9202 7.22656 21.8791 7.22656 21.8269V17.7183C7.22656 17.6661 7.26763 17.625 7.3199 17.625H20.6778C20.73 17.625 20.7711 17.6661 20.7711 17.7183V21.8287C20.7711 21.8791 20.73 21.9221 20.6778 21.9221ZM14.8892 21.7354H20.5844V17.8117H7.41323V21.7354H13.1084L13.9615 21.3471C13.9858 21.3359 14.0138 21.3359 14.0399 21.3471L14.8892 21.7354Z" fill="#1C355E"/>
<path d="M10.3496 9.99902C10.1872 9.99902 10.0547 10.1316 10.0547 10.294V10.8129C10.0547 10.9753 10.1872 11.1078 10.3496 11.1078C10.512 11.1078 10.6446 10.9753 10.6446 10.8129V10.294C10.6446 10.1316 10.512 9.99902 10.3496 9.99902Z" fill="#C6CDD4"/>
<path d="M12.1543 9.99902C11.9919 9.99902 11.8594 10.1316 11.8594 10.294V10.8129C11.8594 10.9753 11.9919 11.1078 12.1543 11.1078C12.3167 11.1078 12.4492 10.9753 12.4492 10.8129V10.294C12.4474 10.1316 12.3167 9.99902 12.1543 9.99902Z" fill="#C6CDD4"/>
<path d="M14.002 9.99902C13.8396 9.99902 13.707 10.1316 13.707 10.294V10.8129C13.707 10.9753 13.8396 11.1078 14.002 11.1078C14.1644 11.1078 14.2969 10.9753 14.2969 10.8129V10.294C14.2969 10.1316 14.1644 9.99902 14.002 9.99902Z" fill="#C6CDD4"/>
<path d="M15.8457 9.99902C15.6833 9.99902 15.5508 10.1316 15.5508 10.294V10.8129C15.5508 10.9753 15.6833 11.1078 15.8457 11.1078C16.0081 11.1078 16.1406 10.9753 16.1406 10.8129V10.294C16.1406 10.1316 16.0081 9.99902 15.8457 9.99902Z" fill="#C6CDD4"/>
<path d="M17.6504 9.99902C17.488 9.99902 17.3555 10.1316 17.3555 10.294V10.8129C17.3555 10.9753 17.488 11.1078 17.6504 11.1078C17.8128 11.1078 17.9453 10.9753 17.9453 10.8129V10.294C17.9453 10.1316 17.8128 9.99902 17.6504 9.99902Z" fill="#C6CDD4"/>
<path d="M18.6741 11.7314H9.32587C9.18214 11.7314 9.06641 11.8472 9.06641 11.9909V12.0786C9.06641 12.2224 9.18214 12.3381 9.32587 12.3381H18.6723C18.816 12.3381 18.9317 12.2224 18.9317 12.0786V11.9909C18.9336 11.8472 18.816 11.7314 18.6741 11.7314Z" fill="#40506B"/>
<path d="M18.6737 12.432H9.32546C9.13132 12.432 8.97266 12.2733 8.97266 12.0792V11.9915C8.97266 11.7973 9.13132 11.6387 9.32546 11.6387H18.6719C18.866 11.6387 19.0247 11.7973 19.0247 11.9915V12.0792C19.0265 12.2733 18.8679 12.432 18.6737 12.432ZM9.32546 11.8253C9.23399 11.8253 9.15932 11.9 9.15932 11.9915V12.0792C9.15932 12.1707 9.23399 12.2453 9.32546 12.2453H18.6719C18.7633 12.2453 18.838 12.1707 18.838 12.0792V11.9915C18.838 11.9 18.7633 11.8253 18.6719 11.8253H9.32546Z" fill="#1C355E"/>
<path d="M20.5962 16.626H7.40631C7.10391 16.626 6.85938 16.8705 6.85938 17.1729C6.85938 17.4753 7.10391 17.7198 7.40631 17.7198H20.598C20.9004 17.7198 21.145 17.4753 21.145 17.1729C21.1431 16.8705 20.8986 16.626 20.5962 16.626Z" fill="#005CB9"/>
<path d="M20.5958 17.8118H7.40589C7.05309 17.8118 6.76562 17.5243 6.76562 17.1715C6.76562 16.8187 7.05309 16.5312 7.40589 16.5312H20.5976C20.9504 16.5312 21.2379 16.8187 21.2379 17.1715C21.2379 17.5243 20.9486 17.8118 20.5958 17.8118ZM7.40589 16.7198C7.15576 16.7198 6.95229 16.9233 6.95229 17.1734C6.95229 17.4235 7.15576 17.627 7.40589 17.627H20.5976C20.8478 17.627 21.0512 17.4235 21.0512 17.1734C21.0512 16.9233 20.8478 16.7198 20.5976 16.7198H7.40589Z" fill="#1C355E"/>
<path d="M21.4287 22.3639C21.4287 22.6607 21.1879 22.8996 20.893 22.8996H17.2194L14.8711 21.8281H20.893C21.1879 21.8281 21.4287 22.0671 21.4287 22.3639Z" fill="#005CB9"/>
<path d="M13.1279 21.8281L10.7796 22.8996H7.10605C6.80925 22.8996 6.57031 22.6588 6.57031 22.3639C6.57031 22.0671 6.81111 21.8281 7.10605 21.8281H13.1279Z" fill="#005CB9"/>
<path d="M19.4128 23.9003H8.58984L10.7813 22.8997L13.1296 21.8283L14.0013 21.4307L14.873 21.8283L17.2213 22.8997L19.4128 23.9003Z" fill="#40506B"/>
<path d="M10.7813 23.5456L13.1296 22.4741L14.0013 22.0765L14.873 22.4741L17.2213 23.5456L17.9978 23.9003H19.4128L17.2213 22.8997L14.873 21.8283L14.0013 21.4307L13.1296 21.8283L10.7813 22.8997L8.58984 23.9003H10.0048L10.7813 23.5456Z" fill="#1C355E"/>
<path d="M9.14453 23.9004H10.6659V25.7036H9.14453V23.9004Z" fill="#005CB9"/>
<path d="M17.3359 23.9004H18.8573V25.7036H17.3359V23.9004Z" fill="#005CB9"/>
<path d="M9.14453 23.9004H10.6659V24.5556H9.14453V23.9004Z" fill="#C6CDD4"/>
<path d="M17.3359 23.9004H18.8573V24.5556H17.3359V23.9004Z" fill="#C6CDD4"/>
<path d="M10.6641 23.9004H17.3374V25.7036H10.6641V23.9004Z" fill="#005CB9"/>
<path d="M10.6641 23.9004H17.3374V24.4249H10.6641V23.9004Z" fill="#C6CDD4"/>
<path d="M20.8928 22.9936H17.2192C17.2061 22.9936 17.1931 22.9898 17.18 22.9861L14.8317 21.9146C14.7925 21.896 14.7701 21.853 14.7795 21.8101C14.7888 21.7672 14.8261 21.7373 14.8709 21.7373H20.8928C21.24 21.7373 21.5219 22.0192 21.5219 22.3664C21.5219 22.7136 21.2381 22.9936 20.8928 22.9936ZM17.2379 22.8069H20.8909C21.1355 22.8069 21.3333 22.609 21.3333 22.3645C21.3333 22.12 21.1355 21.9221 20.8909 21.9221H15.3003L17.2379 22.8069Z" fill="#1C355E"/>
<path d="M10.7792 22.9935H7.10563C6.75843 22.9935 6.47656 22.7116 6.47656 22.3644C6.47656 22.0172 6.75843 21.7354 7.10563 21.7354H13.1275C13.1723 21.7354 13.2096 21.7652 13.219 21.8082C13.2283 21.8511 13.2059 21.894 13.1667 21.9127L10.8184 22.9842C10.8072 22.9898 10.7942 22.9935 10.7792 22.9935ZM7.10563 21.922C6.8611 21.922 6.66323 22.1199 6.66323 22.3644C6.66323 22.609 6.8611 22.8068 7.10563 22.8068H10.7587L12.6982 21.922H7.10563Z" fill="#1C355E"/>
<path d="M19.4126 23.9942H8.58967C8.54487 23.9942 8.50754 23.9643 8.4982 23.9214C8.48887 23.8785 8.51127 23.8355 8.55047 23.8169L13.9619 21.3473C13.9862 21.3361 14.0142 21.3361 14.0403 21.3473L19.4518 23.8169C19.491 23.8355 19.5134 23.8785 19.5041 23.9214C19.4947 23.9625 19.4555 23.9942 19.4126 23.9942ZM9.019 23.8075H18.9833L14.0011 21.5339L9.019 23.8075Z" fill="#1C355E"/>
<path d="M14.6091 22.6681C14.6819 23.0507 14.3515 23.3811 13.9688 23.3083C13.756 23.2673 13.5824 23.0937 13.5414 22.8809C13.4686 22.4982 13.799 22.1678 14.1816 22.2406C14.3944 22.2817 14.568 22.4553 14.6091 22.6681Z" fill="white"/>
<path d="M10.6654 25.7965H9.14411C9.09185 25.7965 9.05078 25.7554 9.05078 25.7032V23.9C9.05078 23.8477 9.09185 23.8066 9.14411 23.8066H10.6654C10.7177 23.8066 10.7588 23.8477 10.7588 23.9V25.7032C10.7588 25.7554 10.7158 25.7965 10.6654 25.7965ZM9.23745 25.6098H10.5721V23.9933H9.23745V25.6098Z" fill="#1C355E"/>
<path d="M18.8569 25.7965H17.3355C17.2833 25.7965 17.2422 25.7554 17.2422 25.7032V23.9C17.2422 23.8477 17.2833 23.8066 17.3355 23.8066H18.8569C18.9091 23.8066 18.9502 23.8477 18.9502 23.9V25.7032C18.9502 25.7554 18.9091 25.7965 18.8569 25.7965ZM17.4289 25.6098H18.7635V23.9933H17.4289V25.6098Z" fill="#1C355E"/>
<path d="M17.3351 25.7965H10.6636C10.6114 25.7965 10.5703 25.7554 10.5703 25.7032V23.9C10.5703 23.8477 10.6114 23.8066 10.6636 23.8066H17.337C17.3892 23.8066 17.4303 23.8477 17.4303 23.9V25.7032C17.4284 25.7554 17.3874 25.7965 17.3351 25.7965ZM10.757 25.6098H17.2436V23.9933H10.757V25.6098Z" fill="#1C355E"/>
<path d="M14.0721 23.4136C14.0311 23.4136 13.99 23.4098 13.9508 23.4024C13.6988 23.3538 13.4972 23.1522 13.4487 22.9002C13.4095 22.6893 13.4748 22.4746 13.6241 22.3253C13.7735 22.176 13.9881 22.1106 14.1991 22.1498C14.4511 22.1984 14.6527 22.4 14.7012 22.652C14.7404 22.8629 14.6751 23.0776 14.5257 23.2269C14.4044 23.3464 14.2401 23.4136 14.0721 23.4136ZM14.0721 22.3253C13.9527 22.3253 13.8407 22.372 13.7529 22.4578C13.6465 22.5661 13.5999 22.7136 13.6297 22.8666C13.6633 23.0421 13.8089 23.1858 13.9825 23.2194C14.1337 23.2474 14.2831 23.2026 14.3895 23.0962C14.4959 22.988 14.5425 22.8405 14.5127 22.6893C14.4791 22.5138 14.3335 22.3682 14.1599 22.3365C14.1319 22.3272 14.102 22.3253 14.0721 22.3253Z" fill="#1C355E"/>
<path d="M9.56641 24.8018H9.75307V25.2759H9.56641V24.8018Z" fill="#1C355E"/>
<path d="M10.0547 24.8018H10.2414V25.2759H10.0547V24.8018Z" fill="#1C355E"/>
<path d="M17.7578 24.8018H17.9445V25.2759H17.7578V24.8018Z" fill="#1C355E"/>
<path d="M18.2461 24.8018H18.4328V25.2759H18.2461V24.8018Z" fill="#1C355E"/>
<path d="M11.7031 24.7852H12.6215V25.7036H11.7031V24.7852Z" fill="#40506B"/>
<path d="M13.5391 24.7852H14.4575V25.7036H13.5391V24.7852Z" fill="#40506B"/>
<path d="M15.3789 24.7852H16.2973V25.7036H15.3789V24.7852Z" fill="#40506B"/>
<path d="M12.6192 25.7974H11.7027C11.6504 25.7974 11.6094 25.7564 11.6094 25.7041V24.7857C11.6094 24.7334 11.6504 24.6924 11.7027 24.6924H12.6211C12.6734 24.6924 12.7144 24.7334 12.7144 24.7857V25.7041C12.7126 25.7564 12.6715 25.7974 12.6192 25.7974ZM11.796 25.6108H12.5278V24.879H11.796V25.6108Z" fill="#1C355E"/>
<path d="M14.457 25.7974H13.5386C13.4864 25.7974 13.4453 25.7564 13.4453 25.7041V24.7857C13.4453 24.7334 13.4864 24.6924 13.5386 24.6924H14.457C14.5093 24.6924 14.5504 24.7334 14.5504 24.7857V25.7041C14.5504 25.7564 14.5093 25.7974 14.457 25.7974ZM13.632 25.6108H14.3637V24.879H13.632V25.6108Z" fill="#1C355E"/>
<path d="M16.293 25.7974H15.3746C15.3223 25.7974 15.2812 25.7564 15.2812 25.7041V24.7857C15.2812 24.7334 15.3223 24.6924 15.3746 24.6924H16.293C16.3453 24.6924 16.3863 24.7334 16.3863 24.7857V25.7041C16.3863 25.7564 16.3453 25.7974 16.293 25.7974ZM15.4698 25.6108H16.2015V24.879H15.4698V25.6108Z" fill="#1C355E"/>
<path d="M2.67969 26.3047H4.07222V26.5231H2.67969V26.3047Z" fill="#1C355E"/>
<path d="M5.04297 26.3047H6.4355V26.5231H5.04297V26.3047Z" fill="#1C355E"/>
<path d="M7.40234 26.3047H8.79488V26.5231H7.40234V26.3047Z" fill="#1C355E"/>
<path d="M9.76172 26.3047H11.1543V26.5231H9.76172V26.3047Z" fill="#1C355E"/>
<path d="M12.1211 26.3047H13.5136V26.5231H12.1211V26.3047Z" fill="#1C355E"/>
<path d="M14.4844 26.3047H15.8769V26.5231H14.4844V26.3047Z" fill="#1C355E"/>
<path d="M16.8438 26.3047H18.2363V26.5231H16.8438V26.3047Z" fill="#1C355E"/>
<path d="M19.207 26.3047H20.5996V26.5231H19.207V26.3047Z" fill="#1C355E"/>
<path d="M21.5664 26.3047H22.9589V26.5231H21.5664V26.3047Z" fill="#1C355E"/>
<path d="M23.9258 26.3047H25.3183V26.5231H23.9258V26.3047Z" fill="#1C355E"/>
<path d="M1.5 27.0156H2.89253V27.234H1.5V27.0156Z" fill="#1C355E"/>
<path d="M3.85938 27.0156H5.25191V27.234H3.85938V27.0156Z" fill="#1C355E"/>
<path d="M6.22266 27.0156H7.61519V27.234H6.22266V27.0156Z" fill="#1C355E"/>
<path d="M8.58203 27.0156H9.97456V27.234H8.58203V27.0156Z" fill="#1C355E"/>
<path d="M10.9453 27.0156H12.3378V27.234H10.9453V27.0156Z" fill="#1C355E"/>
<path d="M13.3047 27.0156H14.6972V27.234H13.3047V27.0156Z" fill="#1C355E"/>
<path d="M15.6641 27.0156H17.0566V27.234H15.6641V27.0156Z" fill="#1C355E"/>
<path d="M18.0234 27.0156H19.416V27.234H18.0234V27.0156Z" fill="#1C355E"/>
<path d="M20.3867 27.0156H21.7793V27.234H20.3867V27.0156Z" fill="#1C355E"/>
<path d="M22.7461 27.0156H24.1386V27.234H22.7461V27.0156Z" fill="#1C355E"/>
<path d="M25.1055 27.0156H26.498V27.234H25.1055V27.0156Z" fill="#1C355E"/>
</g>
<defs>
<clipPath id="clip0_6308_1274">
<rect width="28" height="28" fill="white"/>
</clipPath>
</defs>
</svg>
